%TF.GenerationSoftware,KiCad,Pcbnew,9.0.5*%
%TF.CreationDate,2025-10-09T16:36:40+08:00*%
%TF.ProjectId,snowshoe-mx,736e6f77-7368-46f6-952d-6d782e6b6963,rev?*%
%TF.SameCoordinates,Original*%
%TF.FileFunction,Copper,L2,Bot*%
%TF.FilePolarity,Positive*%
%FSLAX46Y46*%
G04 Gerber Fmt 4.6, Leading zero omitted, Abs format (unit mm)*
G04 Created by KiCad (PCBNEW 9.0.5) date 2025-10-09 16:36:40*
%MOMM*%
%LPD*%
G01*
G04 APERTURE LIST*
G04 Aperture macros list*
%AMRoundRect*
0 Rectangle with rounded corners*
0 $1 Rounding radius*
0 $2 $3 $4 $5 $6 $7 $8 $9 X,Y pos of 4 corners*
0 Add a 4 corners polygon primitive as box body*
4,1,4,$2,$3,$4,$5,$6,$7,$8,$9,$2,$3,0*
0 Add four circle primitives for the rounded corners*
1,1,$1+$1,$2,$3*
1,1,$1+$1,$4,$5*
1,1,$1+$1,$6,$7*
1,1,$1+$1,$8,$9*
0 Add four rect primitives between the rounded corners*
20,1,$1+$1,$2,$3,$4,$5,0*
20,1,$1+$1,$4,$5,$6,$7,0*
20,1,$1+$1,$6,$7,$8,$9,0*
20,1,$1+$1,$8,$9,$2,$3,0*%
G04 Aperture macros list end*
%TA.AperFunction,NonConductor*%
%ADD10C,0.000000*%
%TD*%
%TA.AperFunction,ComponentPad*%
%ADD11C,1.400000*%
%TD*%
%TA.AperFunction,SMDPad,CuDef*%
%ADD12R,2.550000X2.500000*%
%TD*%
%TA.AperFunction,SMDPad,CuDef*%
%ADD13RoundRect,0.225000X0.375000X-0.225000X0.375000X0.225000X-0.375000X0.225000X-0.375000X-0.225000X0*%
%TD*%
%TA.AperFunction,Conductor*%
%ADD14C,0.750000*%
%TD*%
G04 APERTURE END LIST*
D10*
%TA.AperFunction,NonConductor*%
G36*
X108444677Y-66745228D02*
G01*
X108443941Y-66765281D01*
X108443358Y-66773921D01*
X108442617Y-66781739D01*
X108441709Y-66788813D01*
X108440623Y-66795221D01*
X108439350Y-66801039D01*
X108437880Y-66806346D01*
X108436202Y-66811218D01*
X108434306Y-66815733D01*
X108432183Y-66819968D01*
X108429822Y-66824000D01*
X108427213Y-66827908D01*
X108424346Y-66831768D01*
X108421136Y-66835769D01*
X108417710Y-66839621D01*
X108414067Y-66843309D01*
X108410207Y-66846818D01*
X108406129Y-66850132D01*
X108401833Y-66853238D01*
X108397317Y-66856119D01*
X108392582Y-66858761D01*
X108387625Y-66861148D01*
X108385063Y-66862241D01*
X108382446Y-66863266D01*
X108379774Y-66864219D01*
X108377045Y-66865099D01*
X108374261Y-66865904D01*
X108371421Y-66866633D01*
X108368525Y-66867283D01*
X108365573Y-66867852D01*
X108362565Y-66868339D01*
X108359501Y-66868742D01*
X108356380Y-66869058D01*
X108353202Y-66869286D01*
X108349969Y-66869425D01*
X108346678Y-66869471D01*
X108341140Y-66869312D01*
X108335678Y-66868842D01*
X108330300Y-66868072D01*
X108325015Y-66867014D01*
X108319831Y-66865677D01*
X108314756Y-66864074D01*
X108309798Y-66862214D01*
X108304966Y-66860110D01*
X108300269Y-66857772D01*
X108295713Y-66855210D01*
X108291308Y-66852437D01*
X108287061Y-66849463D01*
X108282982Y-66846299D01*
X108279077Y-66842956D01*
X108275356Y-66839445D01*
X108271827Y-66835777D01*
X108271827Y-66866058D01*
X108271827Y-66866098D01*
X108213566Y-66866098D01*
X108213566Y-66721040D01*
X108271788Y-66721040D01*
X108272017Y-66736892D01*
X108272409Y-66744854D01*
X108273083Y-66752732D01*
X108274107Y-66760446D01*
X108275555Y-66767913D01*
X108277497Y-66775054D01*
X108280003Y-66781787D01*
X108281491Y-66784975D01*
X108283146Y-66788031D01*
X108284978Y-66790944D01*
X108286996Y-66793705D01*
X108289209Y-66796303D01*
X108291625Y-66798728D01*
X108294254Y-66800971D01*
X108297103Y-66803020D01*
X108300184Y-66804866D01*
X108303503Y-66806499D01*
X108307070Y-66807908D01*
X108310894Y-66809084D01*
X108314984Y-66810016D01*
X108319349Y-66810695D01*
X108323997Y-66811109D01*
X108328938Y-66811249D01*
X108333880Y-66811119D01*
X108338533Y-66810732D01*
X108342905Y-66810097D01*
X108347005Y-66809222D01*
X108350842Y-66808117D01*
X108354424Y-66806788D01*
X108357760Y-66805244D01*
X108360859Y-66803494D01*
X108363729Y-66801546D01*
X108366379Y-66799408D01*
X108368819Y-66797088D01*
X108371055Y-66794594D01*
X108373098Y-66791936D01*
X108374956Y-66789120D01*
X108376637Y-66786156D01*
X108378150Y-66783052D01*
X108379505Y-66779815D01*
X108380709Y-66776455D01*
X108381771Y-66772979D01*
X108382700Y-66769396D01*
X108383505Y-66765713D01*
X108384195Y-66761940D01*
X108385262Y-66754155D01*
X108385971Y-66746107D01*
X108386391Y-66737861D01*
X108386592Y-66729483D01*
X108386643Y-66721040D01*
X108386414Y-66704240D01*
X108386018Y-66696017D01*
X108385340Y-66687999D01*
X108384307Y-66680250D01*
X108382847Y-66672835D01*
X108380888Y-66665819D01*
X108379699Y-66662481D01*
X108378359Y-66659267D01*
X108376857Y-66656184D01*
X108375186Y-66653242D01*
X108373337Y-66650449D01*
X108371299Y-66647811D01*
X108369065Y-66645338D01*
X108366626Y-66643038D01*
X108363971Y-66640918D01*
X108361093Y-66638987D01*
X108357983Y-66637253D01*
X108354630Y-66635724D01*
X108351027Y-66634408D01*
X108347165Y-66633313D01*
X108343033Y-66632448D01*
X108338624Y-66631819D01*
X108333929Y-66631436D01*
X108328938Y-66631307D01*
X108323997Y-66631446D01*
X108319349Y-66631856D01*
X108314984Y-66632528D01*
X108310894Y-66633452D01*
X108307070Y-66634617D01*
X108303503Y-66636013D01*
X108300184Y-66637632D01*
X108297103Y-66639462D01*
X108294254Y-66641494D01*
X108291625Y-66643717D01*
X108289209Y-66646123D01*
X108286996Y-66648701D01*
X108284978Y-66651440D01*
X108283146Y-66654332D01*
X108281491Y-66657366D01*
X108280003Y-66660531D01*
X108278675Y-66663820D01*
X108277497Y-66667220D01*
X108276460Y-66670723D01*
X108275555Y-66674318D01*
X108274774Y-66677995D01*
X108274107Y-66681745D01*
X108273083Y-66689422D01*
X108272409Y-66697270D01*
X108272017Y-66705209D01*
X108271833Y-66713158D01*
X108271788Y-66721040D01*
X108213566Y-66721040D01*
X108213566Y-66459341D01*
X108271827Y-66459341D01*
X108271827Y-66607296D01*
X108275919Y-66603523D01*
X108280057Y-66599920D01*
X108284249Y-66596497D01*
X108288501Y-66593265D01*
X108292820Y-66590233D01*
X108297213Y-66587412D01*
X108301686Y-66584811D01*
X108306246Y-66582441D01*
X108310901Y-66580313D01*
X108315656Y-66578435D01*
X108320518Y-66576818D01*
X108325495Y-66575473D01*
X108330592Y-66574408D01*
X108335818Y-66573636D01*
X108341177Y-66573165D01*
X108346678Y-66573006D01*
X108353202Y-66573190D01*
X108359501Y-66573734D01*
X108365573Y-66574621D01*
X108371421Y-66575838D01*
X108377045Y-66577370D01*
X108382446Y-66579201D01*
X108387625Y-66581316D01*
X108392582Y-66583701D01*
X108397317Y-66586342D01*
X108401833Y-66589222D01*
X108406129Y-66592327D01*
X108410207Y-66595642D01*
X108414067Y-66599153D01*
X108417710Y-66602844D01*
X108421136Y-66606701D01*
X108424346Y-66610709D01*
X108427213Y-66614549D01*
X108429822Y-66618430D01*
X108432183Y-66622428D01*
X108434306Y-66626624D01*
X108435282Y-66628820D01*
X108436202Y-66631095D01*
X108437067Y-66633459D01*
X108437880Y-66635920D01*
X108438640Y-66638490D01*
X108439350Y-66641179D01*
X108440623Y-66646948D01*
X108441709Y-66653308D01*
X108442617Y-66660337D01*
X108443358Y-66668113D01*
X108443941Y-66676716D01*
X108444378Y-66686223D01*
X108444677Y-66696714D01*
X108444849Y-66708267D01*
X108444904Y-66720961D01*
X108444904Y-66721040D01*
X108444677Y-66745228D01*
G37*
%TD.AperFunction*%
%TA.AperFunction,NonConductor*%
G36*
X107982080Y-66274897D02*
G01*
X107981751Y-66285379D01*
X107981195Y-66295067D01*
X107980408Y-66304019D01*
X107979382Y-66312291D01*
X107978113Y-66319942D01*
X107976595Y-66327030D01*
X107974821Y-66333611D01*
X107972787Y-66339744D01*
X107970485Y-66345486D01*
X107967912Y-66350895D01*
X107965060Y-66356029D01*
X107961924Y-66360946D01*
X107958499Y-66365702D01*
X107954778Y-66370356D01*
X107950756Y-66374965D01*
X107947628Y-66378299D01*
X107944235Y-66381642D01*
X107940567Y-66384963D01*
X107936612Y-66388231D01*
X107932359Y-66391415D01*
X107927798Y-66394485D01*
X107922917Y-66397409D01*
X107917706Y-66400157D01*
X107914973Y-66401455D01*
X107912153Y-66402697D01*
X107909245Y-66403880D01*
X107906248Y-66404999D01*
X107903160Y-66406051D01*
X107899980Y-66407032D01*
X107896706Y-66407937D01*
X107893338Y-66408764D01*
X107889873Y-66409508D01*
X107886310Y-66410165D01*
X107882649Y-66410732D01*
X107878887Y-66411204D01*
X107875023Y-66411579D01*
X107871056Y-66411851D01*
X107866985Y-66412017D01*
X107862808Y-66412073D01*
X107854559Y-66411851D01*
X107846728Y-66411204D01*
X107839302Y-66410165D01*
X107832272Y-66408764D01*
X107825627Y-66407032D01*
X107819355Y-66404999D01*
X107813447Y-66402697D01*
X107807890Y-66400157D01*
X107802675Y-66397409D01*
X107797791Y-66394485D01*
X107793226Y-66391415D01*
X107788971Y-66388231D01*
X107785013Y-66384963D01*
X107781343Y-66381642D01*
X107777949Y-66378299D01*
X107774821Y-66374965D01*
X107770799Y-66370356D01*
X107767080Y-66365702D01*
X107763656Y-66360946D01*
X107760523Y-66356029D01*
X107757674Y-66350895D01*
X107755104Y-66345486D01*
X107752806Y-66339744D01*
X107750775Y-66333611D01*
X107749005Y-66327030D01*
X107747490Y-66319942D01*
X107746225Y-66312291D01*
X107745202Y-66304019D01*
X107744417Y-66295067D01*
X107743864Y-66285379D01*
X107743536Y-66274897D01*
X107743433Y-66264118D01*
X107801689Y-66264118D01*
X107801857Y-66278405D01*
X107802076Y-66284609D01*
X107802393Y-66290253D01*
X107802813Y-66295388D01*
X107803343Y-66300064D01*
X107803988Y-66304331D01*
X107804755Y-66308240D01*
X107805650Y-66311842D01*
X107806677Y-66315185D01*
X107807844Y-66318322D01*
X107809157Y-66321301D01*
X107810620Y-66324174D01*
X107812241Y-66326991D01*
X107814024Y-66329803D01*
X107815977Y-66332658D01*
X107816809Y-66333773D01*
X107817696Y-66334871D01*
X107819630Y-66337008D01*
X107821768Y-66339061D01*
X107824098Y-66341020D01*
X107826608Y-66342875D01*
X107829288Y-66344618D01*
X107832124Y-66346240D01*
X107835106Y-66347730D01*
X107838222Y-66349079D01*
X107841461Y-66350279D01*
X107844810Y-66351320D01*
X107848258Y-66352192D01*
X107851793Y-66352887D01*
X107855405Y-66353394D01*
X107859080Y-66353706D01*
X107862808Y-66353812D01*
X107866536Y-66353706D01*
X107870212Y-66353396D01*
X107873823Y-66352890D01*
X107877358Y-66352198D01*
X107880805Y-66351328D01*
X107884153Y-66350289D01*
X107887391Y-66349092D01*
X107890505Y-66347745D01*
X107893485Y-66346256D01*
X107896319Y-66344636D01*
X107898995Y-66342893D01*
X107901502Y-66341037D01*
X107903827Y-66339076D01*
X107905960Y-66337020D01*
X107907888Y-66334878D01*
X107909600Y-66332658D01*
X107911552Y-66329802D01*
X107913336Y-66326990D01*
X107914956Y-66324171D01*
X107916420Y-66321293D01*
X107917732Y-66318305D01*
X107918899Y-66315156D01*
X107919927Y-66311795D01*
X107920821Y-66308171D01*
X107921588Y-66304232D01*
X107922234Y-66299928D01*
X107922764Y-66295208D01*
X107923184Y-66290019D01*
X107923500Y-66284311D01*
X107923719Y-66278033D01*
X107923846Y-66271134D01*
X107923887Y-66263562D01*
X107923718Y-66249114D01*
X107923497Y-66242861D01*
X107923178Y-66237187D01*
X107922756Y-66232038D01*
X107922223Y-66227362D01*
X107921575Y-66223105D01*
X107920806Y-66219217D01*
X107919910Y-66215643D01*
X107918882Y-66212331D01*
X107917714Y-66209229D01*
X107916403Y-66206284D01*
X107914942Y-66203443D01*
X107913324Y-66200655D01*
X107911546Y-66197865D01*
X107909600Y-66195022D01*
X107908771Y-66193907D01*
X107907887Y-66192809D01*
X107905958Y-66190672D01*
X107903824Y-66188619D01*
X107901496Y-66186660D01*
X107898987Y-66184805D01*
X107896308Y-66183062D01*
X107893472Y-66181441D01*
X107890490Y-66179951D01*
X107887374Y-66178601D01*
X107884136Y-66177401D01*
X107880788Y-66176361D01*
X107877341Y-66175488D01*
X107873808Y-66174794D01*
X107870200Y-66174286D01*
X107866530Y-66173974D01*
X107862808Y-66173868D01*
X107859087Y-66173974D01*
X107855416Y-66174284D01*
X107851808Y-66174790D01*
X107848274Y-66175483D01*
X107844827Y-66176353D01*
X107841478Y-66177391D01*
X107838239Y-66178588D01*
X107835121Y-66179936D01*
X107832137Y-66181424D01*
X107829298Y-66183044D01*
X107826616Y-66184787D01*
X107824103Y-66186644D01*
X107821771Y-66188604D01*
X107819632Y-66190660D01*
X107817696Y-66192803D01*
X107815977Y-66195022D01*
X107814024Y-66197871D01*
X107812241Y-66200678D01*
X107810620Y-66203495D01*
X107809157Y-66206371D01*
X107807845Y-66209358D01*
X107806677Y-66212507D01*
X107805650Y-66215869D01*
X107804755Y-66219494D01*
X107803988Y-66223435D01*
X107803343Y-66227741D01*
X107802813Y-66232465D01*
X107802393Y-66237656D01*
X107802076Y-66243365D01*
X107801857Y-66249645D01*
X107801730Y-66256546D01*
X107801689Y-66264118D01*
X107743433Y-66264118D01*
X107743428Y-66263562D01*
X107743536Y-66252234D01*
X107743864Y-66241769D01*
X107744417Y-66232109D01*
X107745202Y-66223193D01*
X107746225Y-66214964D01*
X107747490Y-66207360D01*
X107749005Y-66200324D01*
X107750775Y-66193797D01*
X107752806Y-66187718D01*
X107755104Y-66182028D01*
X107757674Y-66176669D01*
X107760523Y-66171581D01*
X107763656Y-66166705D01*
X107767080Y-66161981D01*
X107770799Y-66157351D01*
X107774821Y-66152755D01*
X107777949Y-66149421D01*
X107781341Y-66146077D01*
X107785010Y-66142754D01*
X107788965Y-66139483D01*
X107793218Y-66136296D01*
X107797781Y-66133223D01*
X107802663Y-66130295D01*
X107807876Y-66127543D01*
X107810610Y-66126244D01*
X107813430Y-66125000D01*
X107816339Y-66123815D01*
X107819338Y-66122694D01*
X107822427Y-66121640D01*
X107825609Y-66120658D01*
X107828885Y-66119751D01*
X107832255Y-66118923D01*
X107835723Y-66118177D01*
X107839287Y-66117519D01*
X107842952Y-66116951D01*
X107846716Y-66116478D01*
X107850583Y-66116103D01*
X107854553Y-66115830D01*
X107858627Y-66115664D01*
X107862808Y-66115608D01*
X107871063Y-66115830D01*
X107878898Y-66116478D01*
X107886325Y-66117519D01*
X107893354Y-66118923D01*
X107899998Y-66120658D01*
X107906266Y-66122694D01*
X107912170Y-66125000D01*
X107917721Y-66127544D01*
X107922930Y-66130295D01*
X107927808Y-66133223D01*
X107932367Y-66136296D01*
X107936618Y-66139483D01*
X107940570Y-66142754D01*
X107944237Y-66146077D01*
X107947628Y-66149421D01*
X107950756Y-66152755D01*
X107954778Y-66157364D01*
X107958499Y-66162015D01*
X107961924Y-66166767D01*
X107965060Y-66171676D01*
X107967912Y-66176799D01*
X107970485Y-66182192D01*
X107972787Y-66187914D01*
X107974821Y-66194020D01*
X107976595Y-66200568D01*
X107978113Y-66207615D01*
X107979382Y-66215218D01*
X107980408Y-66223433D01*
X107981195Y-66232319D01*
X107981751Y-66241930D01*
X107982080Y-66252326D01*
X107982188Y-66263562D01*
X107982080Y-66274897D01*
G37*
%TD.AperFunction*%
%TA.AperFunction,NonConductor*%
G36*
X108247080Y-63950154D02*
G01*
X108247692Y-63950199D01*
X108248300Y-63950274D01*
X108248905Y-63950378D01*
X108249506Y-63950509D01*
X108250100Y-63950668D01*
X108250689Y-63950853D01*
X108251270Y-63951064D01*
X108252406Y-63951560D01*
X108253501Y-63952150D01*
X108254548Y-63952827D01*
X108255540Y-63953586D01*
X108256470Y-63954421D01*
X108257329Y-63955326D01*
X108258110Y-63956295D01*
X108258469Y-63956801D01*
X108258807Y-63957321D01*
X108259121Y-63957854D01*
X108259411Y-63958400D01*
X108259676Y-63958956D01*
X108259915Y-63959524D01*
X108260128Y-63960101D01*
X108260313Y-63960688D01*
X108260469Y-63961283D01*
X108260596Y-63961886D01*
X108311634Y-64236126D01*
X108311920Y-64237344D01*
X108312313Y-64238566D01*
X108312806Y-64239784D01*
X108313391Y-64240990D01*
X108314063Y-64242176D01*
X108314814Y-64243335D01*
X108315637Y-64244458D01*
X108316525Y-64245537D01*
X108317472Y-64246565D01*
X108318471Y-64247533D01*
X108319515Y-64248434D01*
X108320597Y-64249259D01*
X108321710Y-64250000D01*
X108322847Y-64250650D01*
X108324002Y-64251201D01*
X108325167Y-64251644D01*
X108509000Y-64326892D01*
X108510146Y-64327393D01*
X108511361Y-64327812D01*
X108512634Y-64328148D01*
X108513954Y-64328404D01*
X108515310Y-64328578D01*
X108516692Y-64328674D01*
X108518090Y-64328690D01*
X108519492Y-64328628D01*
X108520888Y-64328489D01*
X108522267Y-64328274D01*
X108523620Y-64327983D01*
X108524934Y-64327617D01*
X108526199Y-64327178D01*
X108527405Y-64326665D01*
X108528542Y-64326080D01*
X108529598Y-64325423D01*
X108758713Y-64168181D01*
X108759231Y-64167845D01*
X108759764Y-64167534D01*
X108760312Y-64167250D01*
X108760872Y-64166992D01*
X108761444Y-64166759D01*
X108762027Y-64166552D01*
X108763219Y-64166216D01*
X108764440Y-64165981D01*
X108765680Y-64165847D01*
X108766929Y-64165814D01*
X108768179Y-64165880D01*
X108769419Y-64166044D01*
X108770641Y-64166306D01*
X108771834Y-64166666D01*
X108772990Y-64167121D01*
X108774099Y-64167672D01*
X108774632Y-64167983D01*
X108775151Y-64168317D01*
X108775653Y-64168675D01*
X108776138Y-64169056D01*
X108776603Y-64169460D01*
X108777049Y-64169888D01*
X108970010Y-64362849D01*
X108970434Y-64363294D01*
X108970835Y-64363760D01*
X108971214Y-64364244D01*
X108971569Y-64364747D01*
X108971902Y-64365265D01*
X108972211Y-64365799D01*
X108972497Y-64366347D01*
X108972760Y-64366908D01*
X108972999Y-64367481D01*
X108973214Y-64368064D01*
X108973574Y-64369257D01*
X108973837Y-64370479D01*
X108974003Y-64371719D01*
X108974071Y-64372968D01*
X108974040Y-64374218D01*
X108973909Y-64375458D01*
X108973805Y-64376071D01*
X108973676Y-64376678D01*
X108973522Y-64377279D01*
X108973342Y-64377871D01*
X108973136Y-64378454D01*
X108972904Y-64379026D01*
X108972647Y-64379586D01*
X108972363Y-64380133D01*
X108972053Y-64380666D01*
X108971716Y-64381184D01*
X108817213Y-64606371D01*
X108816557Y-64607433D01*
X108815975Y-64608573D01*
X108815466Y-64609780D01*
X108815033Y-64611045D01*
X108814675Y-64612356D01*
X108814394Y-64613704D01*
X108814189Y-64615078D01*
X108814062Y-64616467D01*
X108814014Y-64617861D01*
X108814046Y-64619250D01*
X108814157Y-64620623D01*
X108814350Y-64621970D01*
X108814624Y-64623281D01*
X108814980Y-64624545D01*
X108815419Y-64625751D01*
X108815943Y-64626890D01*
X108897223Y-64816516D01*
X108897438Y-64817100D01*
X108897681Y-64817682D01*
X108897951Y-64818261D01*
X108898246Y-64818836D01*
X108898911Y-64819973D01*
X108899667Y-64821086D01*
X108900505Y-64822167D01*
X108901419Y-64823210D01*
X108902399Y-64824208D01*
X108903439Y-64825153D01*
X108904529Y-64826040D01*
X108905661Y-64826860D01*
X108906828Y-64827608D01*
X108908022Y-64828276D01*
X108909234Y-64828857D01*
X108910456Y-64829344D01*
X108911069Y-64829550D01*
X108911681Y-64829731D01*
X108912291Y-64829884D01*
X108912899Y-64830010D01*
X109178051Y-64879302D01*
X109178654Y-64879432D01*
X109179249Y-64879591D01*
X109179836Y-64879779D01*
X109180413Y-64879994D01*
X109180981Y-64880235D01*
X109181538Y-64880502D01*
X109182083Y-64880793D01*
X109182616Y-64881108D01*
X109183136Y-64881446D01*
X109183643Y-64881806D01*
X109184134Y-64882187D01*
X109184611Y-64882589D01*
X109185072Y-64883009D01*
X109185516Y-64883448D01*
X109185943Y-64883904D01*
X109186351Y-64884377D01*
X109186740Y-64884866D01*
X109187110Y-64885369D01*
X109187459Y-64885886D01*
X109187788Y-64886417D01*
X109188094Y-64886959D01*
X109188377Y-64887513D01*
X109188637Y-64888077D01*
X109188873Y-64888650D01*
X109189084Y-64889232D01*
X109189269Y-64889822D01*
X109189428Y-64890418D01*
X109189559Y-64891021D01*
X109189663Y-64891628D01*
X109189738Y-64892239D01*
X109189784Y-64892854D01*
X109189799Y-64893470D01*
X109189799Y-65166362D01*
X109189783Y-65166979D01*
X109189738Y-65167593D01*
X109189662Y-65168205D01*
X109189558Y-65168813D01*
X109189425Y-65169416D01*
X109189265Y-65170014D01*
X109189079Y-65170604D01*
X109188867Y-65171187D01*
X109188630Y-65171762D01*
X109188368Y-65172327D01*
X109187775Y-65173426D01*
X109187094Y-65174476D01*
X109186331Y-65175470D01*
X109185492Y-65176401D01*
X109184584Y-65177261D01*
X109183612Y-65178043D01*
X109183104Y-65178403D01*
X109182583Y-65178740D01*
X109182048Y-65179055D01*
X109181502Y-65179345D01*
X109180944Y-65179610D01*
X109180375Y-65179850D01*
X109179797Y-65180062D01*
X109179210Y-65180247D01*
X109178615Y-65180403D01*
X109178012Y-65180530D01*
X108919368Y-65228671D01*
X108918761Y-65228797D01*
X108918152Y-65228951D01*
X108916932Y-65229341D01*
X108915719Y-65229832D01*
X108914518Y-65230419D01*
X108913339Y-65231093D01*
X108912189Y-65231848D01*
X108911076Y-65232677D01*
X108910007Y-65233573D01*
X108908991Y-65234528D01*
X108908035Y-65235535D01*
X108907148Y-65236588D01*
X108906337Y-65237679D01*
X108905609Y-65238801D01*
X108904974Y-65239948D01*
X108904438Y-65241111D01*
X108904009Y-65242284D01*
X108823245Y-65443976D01*
X108822744Y-65445122D01*
X108822325Y-65446336D01*
X108821989Y-65447607D01*
X108821735Y-65448924D01*
X108821561Y-65450278D01*
X108821468Y-65451658D01*
X108821454Y-65453053D01*
X108821519Y-65454453D01*
X108821662Y-65455848D01*
X108821882Y-65457226D01*
X108822180Y-65458578D01*
X108822553Y-65459893D01*
X108823002Y-65461160D01*
X108823525Y-65462370D01*
X108824122Y-65463511D01*
X108824793Y-65464574D01*
X108971716Y-65678648D01*
X108972049Y-65679166D01*
X108972356Y-65679699D01*
X108972637Y-65680246D01*
X108972893Y-65680806D01*
X108973123Y-65681379D01*
X108973327Y-65681961D01*
X108973660Y-65683154D01*
X108973891Y-65684375D01*
X108974022Y-65685615D01*
X108974055Y-65686864D01*
X108973988Y-65688113D01*
X108973824Y-65689354D01*
X108973563Y-65690575D01*
X108973206Y-65691769D01*
X108972754Y-65692924D01*
X108972208Y-65694033D01*
X108971899Y-65694567D01*
X108971567Y-65695086D01*
X108971212Y-65695588D01*
X108970834Y-65696072D01*
X108970433Y-65696538D01*
X108970010Y-65696984D01*
X108777009Y-65889944D01*
X108776564Y-65890368D01*
X108776098Y-65890769D01*
X108775613Y-65891147D01*
X108775111Y-65891502D01*
X108774593Y-65891834D01*
X108774059Y-65892142D01*
X108773511Y-65892427D01*
X108772950Y-65892689D01*
X108772377Y-65892927D01*
X108771794Y-65893141D01*
X108770601Y-65893498D01*
X108769379Y-65893759D01*
X108768139Y-65893923D01*
X108766890Y-65893989D01*
X108765640Y-65893957D01*
X108764400Y-65893826D01*
X108763179Y-65893594D01*
X108762579Y-65893441D01*
X108761987Y-65893262D01*
X108761404Y-65893057D01*
X108760832Y-65892828D01*
X108760272Y-65892572D01*
X108759725Y-65892291D01*
X108759191Y-65891984D01*
X108758674Y-65891651D01*
X108548370Y-65747307D01*
X108547309Y-65746655D01*
X108546175Y-65746082D01*
X108544976Y-65745589D01*
X108543724Y-65745176D01*
X108542427Y-65744844D01*
X108541097Y-65744593D01*
X108539744Y-65744423D01*
X108538378Y-65744336D01*
X108537009Y-65744330D01*
X108535648Y-65744408D01*
X108534304Y-65744568D01*
X108532988Y-65744813D01*
X108531710Y-65745141D01*
X108530481Y-65745553D01*
X108529310Y-65746050D01*
X108528208Y-65746633D01*
X108435459Y-65796163D01*
X108434905Y-65796429D01*
X108434347Y-65796664D01*
X108433785Y-65796866D01*
X108433220Y-65797037D01*
X108432653Y-65797177D01*
X108432085Y-65797287D01*
X108431518Y-65797366D01*
X108430951Y-65797415D01*
X108430386Y-65797434D01*
X108429825Y-65797424D01*
X108429267Y-65797386D01*
X108428715Y-65797319D01*
X108428168Y-65797223D01*
X108427628Y-65797100D01*
X108427096Y-65796950D01*
X108426574Y-65796773D01*
X108426061Y-65796569D01*
X108425558Y-65796339D01*
X108425068Y-65796083D01*
X108424591Y-65795801D01*
X108424127Y-65795494D01*
X108423678Y-65795163D01*
X108423245Y-65794807D01*
X108422829Y-65794427D01*
X108422430Y-65794023D01*
X108422050Y-65793596D01*
X108421690Y-65793147D01*
X108421350Y-65792674D01*
X108421033Y-65792180D01*
X108420737Y-65791663D01*
X108420466Y-65791125D01*
X108420219Y-65790567D01*
X108229004Y-65328485D01*
X108228781Y-65327911D01*
X108228587Y-65327328D01*
X108228422Y-65326737D01*
X108228286Y-65326140D01*
X108228178Y-65325537D01*
X108228098Y-65324930D01*
X108228020Y-65323706D01*
X108228050Y-65322478D01*
X108228183Y-65321254D01*
X108228418Y-65320044D01*
X108228751Y-65318856D01*
X108229180Y-65317699D01*
X108229701Y-65316582D01*
X108230311Y-65315515D01*
X108231008Y-65314505D01*
X108231788Y-65313561D01*
X108232209Y-65313118D01*
X108232649Y-65312694D01*
X108233109Y-65312291D01*
X108233587Y-65311911D01*
X108234085Y-65311554D01*
X108234600Y-65311221D01*
X108257818Y-65297013D01*
X108259492Y-65295948D01*
X108261278Y-65294733D01*
X108263144Y-65293396D01*
X108265055Y-65291963D01*
X108266980Y-65290458D01*
X108268885Y-65288909D01*
X108270736Y-65287342D01*
X108272502Y-65285781D01*
X108287866Y-65275264D01*
X108302529Y-65263845D01*
X108316450Y-65251564D01*
X108329590Y-65238462D01*
X108341909Y-65224576D01*
X108353366Y-65209949D01*
X108363922Y-65194618D01*
X108373536Y-65178625D01*
X108382170Y-65162009D01*
X108386106Y-65153479D01*
X108389782Y-65144809D01*
X108393192Y-65136002D01*
X108396332Y-65127065D01*
X108399197Y-65118002D01*
X108401781Y-65108817D01*
X108404081Y-65099517D01*
X108406089Y-65090106D01*
X108407803Y-65080588D01*
X108409216Y-65070969D01*
X108410324Y-65061255D01*
X108411121Y-65051449D01*
X108411604Y-65041557D01*
X108411765Y-65031583D01*
X108411373Y-65016052D01*
X108410207Y-65000725D01*
X108408288Y-64985621D01*
X108405633Y-64970758D01*
X108402263Y-64956157D01*
X108398196Y-64941836D01*
X108393451Y-64927813D01*
X108388047Y-64914108D01*
X108382002Y-64900740D01*
X108375337Y-64887728D01*
X108368070Y-64875090D01*
X108360219Y-64862845D01*
X108351805Y-64851014D01*
X108342845Y-64839614D01*
X108333359Y-64828664D01*
X108323366Y-64818183D01*
X108312885Y-64808191D01*
X108301935Y-64798707D01*
X108290534Y-64789748D01*
X108278702Y-64781335D01*
X108266457Y-64773486D01*
X108253820Y-64766220D01*
X108240807Y-64759556D01*
X108227440Y-64753513D01*
X108213736Y-64748110D01*
X108199714Y-64743365D01*
X108185394Y-64739299D01*
X108170795Y-64735930D01*
X108155935Y-64733276D01*
X108140833Y-64731357D01*
X108125509Y-64730192D01*
X108109982Y-64729799D01*
X108094454Y-64730192D01*
X108079130Y-64731358D01*
X108064028Y-64733277D01*
X108049168Y-64735931D01*
X108034569Y-64739302D01*
X108020249Y-64743369D01*
X108006227Y-64748114D01*
X107992523Y-64753518D01*
X107979156Y-64759562D01*
X107966144Y-64766228D01*
X107953506Y-64773495D01*
X107941261Y-64781345D01*
X107929429Y-64789760D01*
X107918028Y-64798719D01*
X107907078Y-64808205D01*
X107896597Y-64818198D01*
X107886604Y-64828680D01*
X107877118Y-64839630D01*
X107868158Y-64851031D01*
X107859744Y-64862863D01*
X107851893Y-64875107D01*
X107844626Y-64887745D01*
X107837961Y-64900757D01*
X107831917Y-64914125D01*
X107826512Y-64927829D01*
X107821767Y-64941850D01*
X107817700Y-64956170D01*
X107814330Y-64970770D01*
X107811676Y-64985630D01*
X107809756Y-65000731D01*
X107808591Y-65016055D01*
X107808198Y-65031583D01*
X107808842Y-65051449D01*
X107810747Y-65070971D01*
X107813874Y-65090109D01*
X107818182Y-65108823D01*
X107823631Y-65127073D01*
X107830182Y-65144819D01*
X107837793Y-65162022D01*
X107846427Y-65178640D01*
X107856041Y-65194635D01*
X107866597Y-65209966D01*
X107878055Y-65224594D01*
X107890373Y-65238478D01*
X107903513Y-65251579D01*
X107917434Y-65263857D01*
X107932097Y-65275271D01*
X107947461Y-65285781D01*
X107949214Y-65287342D01*
X107951055Y-65288909D01*
X107952953Y-65290458D01*
X107954873Y-65291963D01*
X107956782Y-65293397D01*
X107958646Y-65294733D01*
X107960432Y-65295948D01*
X107962106Y-65297013D01*
X107985323Y-65311221D01*
X107985839Y-65311557D01*
X107986336Y-65311917D01*
X107986815Y-65312300D01*
X107987274Y-65312705D01*
X107987715Y-65313131D01*
X107988135Y-65313576D01*
X107988536Y-65314040D01*
X107988915Y-65314521D01*
X107989274Y-65315019D01*
X107989612Y-65315532D01*
X107989928Y-65316059D01*
X107990223Y-65316600D01*
X107990494Y-65317152D01*
X107990744Y-65317716D01*
X107990970Y-65318289D01*
X107991172Y-65318871D01*
X107991351Y-65319461D01*
X107991505Y-65320057D01*
X107991635Y-65320659D01*
X107991740Y-65321265D01*
X107991820Y-65321874D01*
X107991874Y-65322486D01*
X107991902Y-65323099D01*
X107991903Y-65323712D01*
X107991878Y-65324323D01*
X107991825Y-65324933D01*
X107991745Y-65325539D01*
X107991637Y-65326142D01*
X107991501Y-65326738D01*
X107991336Y-65327329D01*
X107991142Y-65327911D01*
X107990919Y-65328485D01*
X107799705Y-65790567D01*
X107799458Y-65791125D01*
X107799186Y-65791663D01*
X107798891Y-65792180D01*
X107798573Y-65792674D01*
X107798233Y-65793147D01*
X107797873Y-65793596D01*
X107797493Y-65794023D01*
X107797095Y-65794427D01*
X107796678Y-65794807D01*
X107796245Y-65795163D01*
X107795796Y-65795494D01*
X107795333Y-65795801D01*
X107794855Y-65796083D01*
X107794365Y-65796339D01*
X107793863Y-65796569D01*
X107793350Y-65796773D01*
X107792827Y-65796950D01*
X107792295Y-65797100D01*
X107791755Y-65797223D01*
X107791209Y-65797319D01*
X107790656Y-65797386D01*
X107790099Y-65797424D01*
X107789537Y-65797434D01*
X107788972Y-65797415D01*
X107788406Y-65797366D01*
X107787838Y-65797287D01*
X107787270Y-65797177D01*
X107786703Y-65797037D01*
X107786138Y-65796866D01*
X107785576Y-65796664D01*
X107785018Y-65796429D01*
X107784465Y-65796163D01*
X107691715Y-65746633D01*
X107690613Y-65746057D01*
X107689442Y-65745564D01*
X107688213Y-65745155D01*
X107686935Y-65744829D01*
X107685619Y-65744586D01*
X107684276Y-65744425D01*
X107682914Y-65744347D01*
X107681545Y-65744351D01*
X107680179Y-65744436D01*
X107678826Y-65744603D01*
X107677496Y-65744852D01*
X107676200Y-65745182D01*
X107674947Y-65745592D01*
X107673748Y-65746084D01*
X107672614Y-65746655D01*
X107671554Y-65747307D01*
X107461250Y-65891651D01*
X107460732Y-65891984D01*
X107460199Y-65892291D01*
X107459652Y-65892572D01*
X107459091Y-65892828D01*
X107458519Y-65893057D01*
X107457937Y-65893262D01*
X107456745Y-65893594D01*
X107455524Y-65893826D01*
X107454285Y-65893957D01*
X107453037Y-65893989D01*
X107451789Y-65893923D01*
X107450551Y-65893759D01*
X107449332Y-65893498D01*
X107448142Y-65893141D01*
X107446990Y-65892689D01*
X107445886Y-65892142D01*
X107445355Y-65891834D01*
X107444839Y-65891502D01*
X107444340Y-65891147D01*
X107443858Y-65890769D01*
X107443396Y-65890368D01*
X107442954Y-65889944D01*
X107249954Y-65696984D01*
X107249529Y-65696538D01*
X107249128Y-65696072D01*
X107248750Y-65695587D01*
X107248394Y-65695084D01*
X107248061Y-65694565D01*
X107247752Y-65694030D01*
X107247466Y-65693481D01*
X107247203Y-65692919D01*
X107246964Y-65692345D01*
X107246749Y-65691760D01*
X107246389Y-65690565D01*
X107246126Y-65689341D01*
X107245960Y-65688099D01*
X107245892Y-65686847D01*
X107245923Y-65685597D01*
X107246054Y-65684357D01*
X107246158Y-65683744D01*
X107246287Y-65683137D01*
X107246441Y-65682537D01*
X107246621Y-65681946D01*
X107246827Y-65681365D01*
X107247059Y-65680795D01*
X107247316Y-65680237D01*
X107247600Y-65679692D01*
X107247910Y-65679162D01*
X107248247Y-65678648D01*
X107395170Y-65464574D01*
X107395827Y-65463511D01*
X107396413Y-65462370D01*
X107396928Y-65461160D01*
X107397370Y-65459893D01*
X107397739Y-65458578D01*
X107398033Y-65457226D01*
X107398252Y-65455848D01*
X107398395Y-65454453D01*
X107398460Y-65453053D01*
X107398447Y-65451658D01*
X107398356Y-65450278D01*
X107398184Y-65448924D01*
X107397931Y-65447607D01*
X107397597Y-65446336D01*
X107397179Y-65445122D01*
X107396678Y-65443976D01*
X107315914Y-65242284D01*
X107315714Y-65241697D01*
X107315486Y-65241111D01*
X107314952Y-65239948D01*
X107314318Y-65238801D01*
X107313593Y-65237679D01*
X107312784Y-65236588D01*
X107311899Y-65235535D01*
X107310946Y-65234528D01*
X107309932Y-65233573D01*
X107308865Y-65232677D01*
X107307752Y-65231848D01*
X107306602Y-65231093D01*
X107305422Y-65230419D01*
X107304220Y-65229832D01*
X107303003Y-65229341D01*
X107302391Y-65229133D01*
X107301779Y-65228951D01*
X107301166Y-65228797D01*
X107300555Y-65228671D01*
X107041912Y-65180530D01*
X107041309Y-65180403D01*
X107040714Y-65180247D01*
X107040127Y-65180062D01*
X107039550Y-65179850D01*
X107038982Y-65179610D01*
X107038426Y-65179345D01*
X107037880Y-65179055D01*
X107037347Y-65178741D01*
X107036827Y-65178403D01*
X107036321Y-65178043D01*
X107035829Y-65177662D01*
X107035352Y-65177261D01*
X107034891Y-65176840D01*
X107034447Y-65176401D01*
X107034021Y-65175944D01*
X107033612Y-65175470D01*
X107033223Y-65174980D01*
X107032853Y-65174476D01*
X107032504Y-65173957D01*
X107032176Y-65173426D01*
X107031870Y-65172882D01*
X107031586Y-65172327D01*
X107031326Y-65171762D01*
X107031090Y-65171187D01*
X107030879Y-65170604D01*
X107030694Y-65170014D01*
X107030535Y-65169416D01*
X107030404Y-65168813D01*
X107030300Y-65168205D01*
X107030225Y-65167593D01*
X107030180Y-65166979D01*
X107030164Y-65166362D01*
X107030164Y-64893470D01*
X107030176Y-64892854D01*
X107030218Y-64892239D01*
X107030290Y-64891628D01*
X107030391Y-64891021D01*
X107030520Y-64890418D01*
X107030676Y-64889822D01*
X107030859Y-64889232D01*
X107031067Y-64888650D01*
X107031301Y-64888077D01*
X107031559Y-64887513D01*
X107032146Y-64886417D01*
X107032820Y-64885369D01*
X107033577Y-64884377D01*
X107034411Y-64883448D01*
X107035314Y-64882589D01*
X107036282Y-64881806D01*
X107036788Y-64881446D01*
X107037308Y-64881108D01*
X107037841Y-64880793D01*
X107038386Y-64880502D01*
X107038943Y-64880235D01*
X107039510Y-64879994D01*
X107040088Y-64879779D01*
X107040674Y-64879591D01*
X107041269Y-64879432D01*
X107041872Y-64879302D01*
X107042071Y-64879302D01*
X107307223Y-64830010D01*
X107308441Y-64829731D01*
X107309666Y-64829344D01*
X107310888Y-64828857D01*
X107312100Y-64828276D01*
X107313294Y-64827608D01*
X107314461Y-64826860D01*
X107315593Y-64826040D01*
X107316683Y-64825153D01*
X107317723Y-64824208D01*
X107318703Y-64823210D01*
X107319617Y-64822167D01*
X107320455Y-64821086D01*
X107321211Y-64819973D01*
X107321876Y-64818836D01*
X107322441Y-64817682D01*
X107322900Y-64816516D01*
X107404179Y-64626890D01*
X107404703Y-64625751D01*
X107405144Y-64624546D01*
X107405502Y-64623284D01*
X107405777Y-64621976D01*
X107405972Y-64620631D01*
X107406085Y-64619260D01*
X107406117Y-64617874D01*
X107406069Y-64616482D01*
X107405942Y-64615094D01*
X107405736Y-64613721D01*
X107405452Y-64612374D01*
X107405089Y-64611062D01*
X107404649Y-64609795D01*
X107404132Y-64608584D01*
X107403539Y-64607440D01*
X107402870Y-64606371D01*
X107248366Y-64381184D01*
X107248033Y-64380667D01*
X107247726Y-64380134D01*
X107247444Y-64379587D01*
X107247188Y-64379027D01*
X107246957Y-64378456D01*
X107246752Y-64377874D01*
X107246417Y-64376684D01*
X107246183Y-64375466D01*
X107246049Y-64374228D01*
X107246015Y-64372981D01*
X107246079Y-64371734D01*
X107246242Y-64370495D01*
X107246502Y-64369275D01*
X107246858Y-64368081D01*
X107247311Y-64366925D01*
X107247860Y-64365814D01*
X107248170Y-64365278D01*
X107248503Y-64364758D01*
X107248861Y-64364254D01*
X107249241Y-64363767D01*
X107249645Y-64363298D01*
X107250073Y-64362849D01*
X107443033Y-64169888D01*
X107443479Y-64169464D01*
X107443945Y-64169063D01*
X107444429Y-64168684D01*
X107444931Y-64168328D01*
X107445450Y-64167996D01*
X107445984Y-64167687D01*
X107446531Y-64167400D01*
X107447092Y-64167138D01*
X107447664Y-64166899D01*
X107448247Y-64166683D01*
X107449440Y-64166324D01*
X107450660Y-64166061D01*
X107451899Y-64165894D01*
X107453146Y-64165826D01*
X107454393Y-64165858D01*
X107455629Y-64165989D01*
X107456241Y-64166092D01*
X107456846Y-64166221D01*
X107457445Y-64166376D01*
X107458034Y-64166556D01*
X107458614Y-64166762D01*
X107459184Y-64166993D01*
X107459741Y-64167251D01*
X107460285Y-64167535D01*
X107460815Y-64167845D01*
X107461329Y-64168181D01*
X107690445Y-64325423D01*
X107691508Y-64326087D01*
X107692650Y-64326678D01*
X107693862Y-64327196D01*
X107695131Y-64327640D01*
X107696449Y-64328009D01*
X107697803Y-64328302D01*
X107699184Y-64328518D01*
X107700580Y-64328658D01*
X107701982Y-64328719D01*
X107703378Y-64328701D01*
X107704758Y-64328604D01*
X107706111Y-64328426D01*
X107707427Y-64328166D01*
X107708694Y-64327825D01*
X107709903Y-64327400D01*
X107711043Y-64326892D01*
X107894836Y-64251644D01*
X107895419Y-64251437D01*
X107896001Y-64251201D01*
X107896581Y-64250939D01*
X107897157Y-64250650D01*
X107898296Y-64250000D01*
X107899412Y-64249259D01*
X107900496Y-64248434D01*
X107901542Y-64247533D01*
X107902543Y-64246565D01*
X107903493Y-64245537D01*
X107904383Y-64244458D01*
X107905207Y-64243335D01*
X107905958Y-64242176D01*
X107906629Y-64240990D01*
X107907212Y-64239784D01*
X107907701Y-64238566D01*
X107907909Y-64237955D01*
X107908089Y-64237344D01*
X107908243Y-64236734D01*
X107908369Y-64236126D01*
X107959407Y-63961886D01*
X107959534Y-63961283D01*
X107959690Y-63960688D01*
X107959875Y-63960101D01*
X107960088Y-63959524D01*
X107960327Y-63958956D01*
X107960592Y-63958400D01*
X107960882Y-63957854D01*
X107961196Y-63957321D01*
X107961533Y-63956801D01*
X107961893Y-63956295D01*
X107962273Y-63955803D01*
X107962674Y-63955326D01*
X107963095Y-63954865D01*
X107963533Y-63954421D01*
X107963990Y-63953995D01*
X107964462Y-63953586D01*
X107964951Y-63953197D01*
X107965454Y-63952827D01*
X107965972Y-63952478D01*
X107966502Y-63952150D01*
X107967044Y-63951843D01*
X107967597Y-63951560D01*
X107968161Y-63951300D01*
X107968733Y-63951064D01*
X107969314Y-63950853D01*
X107969903Y-63950668D01*
X107970497Y-63950509D01*
X107971098Y-63950378D01*
X107971703Y-63950274D01*
X107972311Y-63950199D01*
X107972923Y-63950154D01*
X107973536Y-63950138D01*
X108246467Y-63950138D01*
X108247080Y-63950154D01*
G37*
%TD.AperFunction*%
%TA.AperFunction,NonConductor*%
G36*
X106803582Y-72674140D02*
G01*
X107546820Y-72985673D01*
X106824102Y-72989223D01*
X103857289Y-73629138D01*
X106359841Y-72739190D01*
X104994078Y-71509185D01*
X104462360Y-72883192D01*
X103547861Y-73521302D01*
X102113979Y-73907875D01*
X100497522Y-73500000D01*
X99548843Y-72868088D01*
X98049308Y-72403226D01*
X99723655Y-72448057D01*
X100805866Y-73041877D01*
X102354685Y-73422854D01*
X103627294Y-73091944D01*
X104324016Y-72429162D01*
X104949670Y-71260959D01*
X106803582Y-72674140D01*
G37*
%TD.AperFunction*%
%TA.AperFunction,NonConductor*%
G36*
X107520622Y-66291542D02*
G01*
X107520694Y-66295188D01*
X107520906Y-66298736D01*
X107521256Y-66302185D01*
X107521742Y-66305533D01*
X107522358Y-66308779D01*
X107523104Y-66311923D01*
X107523976Y-66314963D01*
X107524970Y-66317898D01*
X107526084Y-66320726D01*
X107527314Y-66323448D01*
X107528659Y-66326060D01*
X107530114Y-66328563D01*
X107531676Y-66330956D01*
X107533343Y-66333236D01*
X107535112Y-66335403D01*
X107536979Y-66337456D01*
X107538941Y-66339393D01*
X107540996Y-66341214D01*
X107543140Y-66342917D01*
X107545371Y-66344501D01*
X107547685Y-66345965D01*
X107550079Y-66347307D01*
X107552551Y-66348528D01*
X107555096Y-66349624D01*
X107557713Y-66350596D01*
X107560399Y-66351443D01*
X107563149Y-66352162D01*
X107565962Y-66352753D01*
X107568833Y-66353214D01*
X107571761Y-66353546D01*
X107574742Y-66353745D01*
X107577772Y-66353812D01*
X107580804Y-66353745D01*
X107583789Y-66353546D01*
X107586724Y-66353214D01*
X107589605Y-66352753D01*
X107592429Y-66352162D01*
X107595193Y-66351443D01*
X107597894Y-66350596D01*
X107600529Y-66349624D01*
X107603093Y-66348528D01*
X107605585Y-66347307D01*
X107608001Y-66345965D01*
X107610337Y-66344501D01*
X107612591Y-66342917D01*
X107614759Y-66341214D01*
X107616837Y-66339393D01*
X107618824Y-66337456D01*
X107620715Y-66335403D01*
X107622508Y-66333236D01*
X107624198Y-66330956D01*
X107625784Y-66328563D01*
X107627261Y-66326060D01*
X107628626Y-66323448D01*
X107629877Y-66320726D01*
X107631010Y-66317898D01*
X107632022Y-66314963D01*
X107632909Y-66311923D01*
X107633668Y-66308779D01*
X107634297Y-66305533D01*
X107634791Y-66302185D01*
X107635149Y-66298736D01*
X107635365Y-66295188D01*
X107635438Y-66291542D01*
X107635438Y-66119021D01*
X107693699Y-66119021D01*
X107693699Y-66311545D01*
X107693660Y-66311544D01*
X107693511Y-66317612D01*
X107693071Y-66323498D01*
X107692351Y-66329201D01*
X107691361Y-66334722D01*
X107690111Y-66340059D01*
X107688612Y-66345212D01*
X107686875Y-66350180D01*
X107684909Y-66354962D01*
X107682727Y-66359557D01*
X107680336Y-66363965D01*
X107677750Y-66368185D01*
X107674977Y-66372217D01*
X107672028Y-66376059D01*
X107668914Y-66379710D01*
X107665645Y-66383171D01*
X107662232Y-66386440D01*
X107658686Y-66389516D01*
X107655015Y-66392400D01*
X107651232Y-66395089D01*
X107647347Y-66397584D01*
X107643370Y-66399883D01*
X107639311Y-66401987D01*
X107635181Y-66403893D01*
X107630990Y-66405602D01*
X107626750Y-66407113D01*
X107622470Y-66408424D01*
X107613833Y-66410447D01*
X107605163Y-66411666D01*
X107600842Y-66411971D01*
X107596545Y-66412073D01*
X107590921Y-66411939D01*
X107585396Y-66411537D01*
X107579975Y-66410867D01*
X107574664Y-66409930D01*
X107569470Y-66408724D01*
X107564398Y-66407251D01*
X107559454Y-66405510D01*
X107554645Y-66403500D01*
X107549976Y-66401223D01*
X107545453Y-66398678D01*
X107541083Y-66395865D01*
X107536872Y-66392785D01*
X107532825Y-66389436D01*
X107528949Y-66385819D01*
X107525250Y-66381935D01*
X107521734Y-66377783D01*
X107520623Y-66377783D01*
X107520623Y-66408660D01*
X107462361Y-66408660D01*
X107462361Y-66119021D01*
X107520622Y-66119021D01*
X107520622Y-66291542D01*
G37*
%TD.AperFunction*%
%TA.AperFunction,NonConductor*%
G36*
X102542526Y-68666125D02*
G01*
X102687130Y-69721889D01*
X102080221Y-69919177D01*
X102199001Y-69726906D01*
X102209984Y-69496317D01*
X102315992Y-69644012D01*
X102467569Y-69694839D01*
X102588681Y-69617512D01*
X102459693Y-68756239D01*
X102196121Y-68772607D01*
X101942839Y-69197963D01*
X102134590Y-68647019D01*
X102542526Y-68666125D01*
G37*
%TD.AperFunction*%
%TA.AperFunction,NonConductor*%
G36*
X109499095Y-66274897D02*
G01*
X109498767Y-66285379D01*
X109498214Y-66295067D01*
X109497429Y-66304019D01*
X109496406Y-66312291D01*
X109495141Y-66319942D01*
X109493626Y-66327029D01*
X109491856Y-66333611D01*
X109489825Y-66339744D01*
X109487527Y-66345486D01*
X109484957Y-66350895D01*
X109482108Y-66356029D01*
X109478975Y-66360945D01*
X109475551Y-66365702D01*
X109471832Y-66370356D01*
X109467810Y-66374965D01*
X109464682Y-66378299D01*
X109461288Y-66381641D01*
X109457618Y-66384962D01*
X109453660Y-66388230D01*
X109449405Y-66391415D01*
X109444840Y-66394485D01*
X109439956Y-66397409D01*
X109434741Y-66400157D01*
X109432006Y-66401455D01*
X109429184Y-66402697D01*
X109426275Y-66403879D01*
X109423276Y-66404999D01*
X109420186Y-66406051D01*
X109417004Y-66407031D01*
X109413729Y-66407937D01*
X109410359Y-66408764D01*
X109406893Y-66409508D01*
X109403329Y-66410165D01*
X109399666Y-66410732D01*
X109395903Y-66411204D01*
X109392039Y-66411578D01*
X109388072Y-66411850D01*
X109384000Y-66412016D01*
X109379823Y-66412073D01*
X109371575Y-66411850D01*
X109363744Y-66411204D01*
X109356321Y-66410165D01*
X109349293Y-66408764D01*
X109342650Y-66407031D01*
X109336381Y-66404999D01*
X109330475Y-66402697D01*
X109324920Y-66400156D01*
X109319707Y-66397409D01*
X109314823Y-66394485D01*
X109310259Y-66391415D01*
X109306002Y-66388230D01*
X109302043Y-66384962D01*
X109298369Y-66381641D01*
X109294970Y-66378299D01*
X109291836Y-66374965D01*
X109287814Y-66370356D01*
X109284093Y-66365702D01*
X109280667Y-66360945D01*
X109277532Y-66356029D01*
X109274680Y-66350895D01*
X109272106Y-66345486D01*
X109269805Y-66339744D01*
X109267770Y-66333611D01*
X109265997Y-66327029D01*
X109264478Y-66319942D01*
X109263209Y-66312291D01*
X109262184Y-66304019D01*
X109261396Y-66295067D01*
X109260841Y-66285379D01*
X109260512Y-66274897D01*
X109260408Y-66264118D01*
X109318704Y-66264118D01*
X109318872Y-66278405D01*
X109319091Y-66284609D01*
X109319407Y-66290253D01*
X109319828Y-66295388D01*
X109320358Y-66300064D01*
X109321003Y-66304331D01*
X109321770Y-66308240D01*
X109322665Y-66311842D01*
X109323692Y-66315185D01*
X109324859Y-66318322D01*
X109326172Y-66321301D01*
X109327635Y-66324174D01*
X109329256Y-66326991D01*
X109331039Y-66329803D01*
X109332992Y-66332658D01*
X109333824Y-66333773D01*
X109334711Y-66334871D01*
X109336646Y-66337008D01*
X109338786Y-66339061D01*
X109341118Y-66341020D01*
X109343631Y-66342875D01*
X109346313Y-66344618D01*
X109349152Y-66346240D01*
X109352136Y-66347730D01*
X109355254Y-66349079D01*
X109358493Y-66350279D01*
X109361842Y-66351320D01*
X109365289Y-66352192D01*
X109368823Y-66352887D01*
X109372431Y-66353394D01*
X109376101Y-66353706D01*
X109379823Y-66353812D01*
X109383545Y-66353706D01*
X109387215Y-66353396D01*
X109390823Y-66352890D01*
X109394357Y-66352198D01*
X109397804Y-66351328D01*
X109401153Y-66350289D01*
X109404392Y-66349092D01*
X109407510Y-66347745D01*
X109410494Y-66346256D01*
X109413333Y-66344636D01*
X109416015Y-66342893D01*
X109418528Y-66341037D01*
X109420860Y-66339076D01*
X109423000Y-66337020D01*
X109424935Y-66334878D01*
X109426654Y-66332658D01*
X109428607Y-66329802D01*
X109430390Y-66326990D01*
X109432011Y-66324171D01*
X109433474Y-66321293D01*
X109434787Y-66318305D01*
X109435954Y-66315156D01*
X109436981Y-66311795D01*
X109437876Y-66308171D01*
X109438643Y-66304232D01*
X109439288Y-66299928D01*
X109439818Y-66295208D01*
X109440239Y-66290019D01*
X109440555Y-66284311D01*
X109440774Y-66278033D01*
X109440901Y-66271134D01*
X109440942Y-66263562D01*
X109440772Y-66249114D01*
X109440552Y-66242861D01*
X109440233Y-66237187D01*
X109439810Y-66232038D01*
X109439278Y-66227362D01*
X109438630Y-66223105D01*
X109437861Y-66219217D01*
X109436965Y-66215643D01*
X109435936Y-66212331D01*
X109434769Y-66209229D01*
X109433458Y-66206284D01*
X109431996Y-66203443D01*
X109430379Y-66200655D01*
X109428600Y-66197865D01*
X109426654Y-66195022D01*
X109425822Y-66193907D01*
X109424935Y-66192809D01*
X109423001Y-66190672D01*
X109420863Y-66188619D01*
X109418533Y-66186660D01*
X109416023Y-66184805D01*
X109413343Y-66183062D01*
X109410507Y-66181441D01*
X109407525Y-66179951D01*
X109404409Y-66178601D01*
X109401171Y-66177401D01*
X109397822Y-66176361D01*
X109394373Y-66175488D01*
X109390838Y-66174794D01*
X109387227Y-66174286D01*
X109383551Y-66173974D01*
X109379823Y-66173868D01*
X109376095Y-66173974D01*
X109372419Y-66174284D01*
X109368808Y-66174790D01*
X109365273Y-66175483D01*
X109361824Y-66176353D01*
X109358475Y-66177391D01*
X109355237Y-66178588D01*
X109352121Y-66179936D01*
X109349139Y-66181424D01*
X109346303Y-66183044D01*
X109343623Y-66184787D01*
X109341113Y-66186644D01*
X109338783Y-66188604D01*
X109336645Y-66190660D01*
X109334711Y-66192803D01*
X109332992Y-66195022D01*
X109331039Y-66197871D01*
X109329256Y-66200678D01*
X109327635Y-66203495D01*
X109326172Y-66206371D01*
X109324859Y-66209358D01*
X109323692Y-66212507D01*
X109322665Y-66215869D01*
X109321770Y-66219494D01*
X109321003Y-66223435D01*
X109320358Y-66227741D01*
X109319828Y-66232465D01*
X109319407Y-66237656D01*
X109319091Y-66243365D01*
X109318872Y-66249645D01*
X109318745Y-66256546D01*
X109318704Y-66264118D01*
X109260408Y-66264118D01*
X109260403Y-66263562D01*
X109260511Y-66252234D01*
X109260839Y-66241769D01*
X109261393Y-66232109D01*
X109262178Y-66223193D01*
X109263201Y-66214963D01*
X109264468Y-66207360D01*
X109265984Y-66200324D01*
X109267755Y-66193796D01*
X109269788Y-66187717D01*
X109272089Y-66182028D01*
X109274662Y-66176669D01*
X109277515Y-66171581D01*
X109280653Y-66166705D01*
X109284081Y-66161981D01*
X109287807Y-66157351D01*
X109291836Y-66152755D01*
X109294964Y-66149420D01*
X109298358Y-66146076D01*
X109302028Y-66142754D01*
X109305986Y-66139483D01*
X109310241Y-66136295D01*
X109314806Y-66133222D01*
X109319690Y-66130295D01*
X109324905Y-66127543D01*
X109327640Y-66126243D01*
X109330462Y-66124999D01*
X109333371Y-66123815D01*
X109336370Y-66122694D01*
X109339460Y-66121640D01*
X109342642Y-66120658D01*
X109345917Y-66119751D01*
X109349287Y-66118922D01*
X109352753Y-66118177D01*
X109356317Y-66117519D01*
X109359980Y-66116951D01*
X109363743Y-66116477D01*
X109367607Y-66116103D01*
X109371574Y-66115830D01*
X109375646Y-66115664D01*
X109379823Y-66115607D01*
X109388072Y-66115830D01*
X109395903Y-66116477D01*
X109403329Y-66117519D01*
X109410359Y-66118922D01*
X109417004Y-66120658D01*
X109423276Y-66122694D01*
X109429184Y-66124999D01*
X109434741Y-66127543D01*
X109439956Y-66130295D01*
X109444840Y-66133222D01*
X109449405Y-66136296D01*
X109453660Y-66139483D01*
X109457618Y-66142754D01*
X109461288Y-66146076D01*
X109464682Y-66149420D01*
X109467810Y-66152755D01*
X109471832Y-66157363D01*
X109475551Y-66162015D01*
X109478975Y-66166767D01*
X109482108Y-66171676D01*
X109484957Y-66176798D01*
X109487527Y-66182192D01*
X109489825Y-66187913D01*
X109491856Y-66194020D01*
X109493626Y-66200568D01*
X109495141Y-66207615D01*
X109496406Y-66215218D01*
X109497429Y-66223433D01*
X109498214Y-66232318D01*
X109498767Y-66241930D01*
X109499095Y-66252326D01*
X109499203Y-66263562D01*
X109499095Y-66274897D01*
G37*
%TD.AperFunction*%
%TA.AperFunction,NonConductor*%
G36*
X108522427Y-66115701D02*
G01*
X108528044Y-66116103D01*
X108533545Y-66116773D01*
X108538924Y-66117711D01*
X108544176Y-66118916D01*
X108549296Y-66120390D01*
X108554279Y-66122131D01*
X108559120Y-66124140D01*
X108563814Y-66126417D01*
X108568355Y-66128962D01*
X108572738Y-66131775D01*
X108576958Y-66134856D01*
X108581010Y-66138204D01*
X108584889Y-66141821D01*
X108588589Y-66145705D01*
X108592106Y-66149858D01*
X108593256Y-66149858D01*
X108593256Y-66119020D01*
X108651518Y-66119020D01*
X108651518Y-66408620D01*
X108593296Y-66408620D01*
X108593296Y-66236138D01*
X108593225Y-66232489D01*
X108593012Y-66228938D01*
X108592662Y-66225487D01*
X108592176Y-66222136D01*
X108591558Y-66218888D01*
X108590811Y-66215742D01*
X108589937Y-66212701D01*
X108588940Y-66209766D01*
X108587822Y-66206937D01*
X108586587Y-66204215D01*
X108585237Y-66201602D01*
X108583776Y-66199099D01*
X108582205Y-66196708D01*
X108580529Y-66194428D01*
X108578750Y-66192262D01*
X108576870Y-66190210D01*
X108574894Y-66188273D01*
X108572824Y-66186454D01*
X108570662Y-66184752D01*
X108568412Y-66183169D01*
X108566077Y-66181707D01*
X108563659Y-66180365D01*
X108561161Y-66179146D01*
X108558588Y-66178051D01*
X108555940Y-66177080D01*
X108553222Y-66176234D01*
X108550436Y-66175516D01*
X108547585Y-66174926D01*
X108544672Y-66174465D01*
X108541700Y-66174134D01*
X108538672Y-66173935D01*
X108535591Y-66173868D01*
X108532511Y-66173935D01*
X108529488Y-66174134D01*
X108526523Y-66174465D01*
X108523620Y-66174926D01*
X108520782Y-66175516D01*
X108518011Y-66176234D01*
X108515309Y-66177080D01*
X108512680Y-66178051D01*
X108510127Y-66179146D01*
X108507651Y-66180365D01*
X108505256Y-66181707D01*
X108502945Y-66183169D01*
X108500720Y-66184752D01*
X108498583Y-66186454D01*
X108496539Y-66188273D01*
X108494588Y-66190210D01*
X108492735Y-66192262D01*
X108490982Y-66194428D01*
X108489331Y-66196708D01*
X108487785Y-66199099D01*
X108486348Y-66201602D01*
X108485021Y-66204215D01*
X108483807Y-66206937D01*
X108482710Y-66209766D01*
X108481732Y-66212701D01*
X108480875Y-66215742D01*
X108480142Y-66218888D01*
X108479537Y-66222136D01*
X108479061Y-66225487D01*
X108478718Y-66228938D01*
X108478510Y-66232489D01*
X108478440Y-66236138D01*
X108478440Y-66408620D01*
X108420179Y-66408620D01*
X108420179Y-66216136D01*
X108420328Y-66210065D01*
X108420768Y-66204176D01*
X108421487Y-66198469D01*
X108422476Y-66192945D01*
X108423724Y-66187605D01*
X108425220Y-66182450D01*
X108426954Y-66177479D01*
X108428915Y-66172695D01*
X108431093Y-66168098D01*
X108433477Y-66163688D01*
X108436056Y-66159466D01*
X108438821Y-66155433D01*
X108441760Y-66151590D01*
X108444862Y-66147937D01*
X108448119Y-66144476D01*
X108451518Y-66141206D01*
X108455049Y-66138128D01*
X108458701Y-66135244D01*
X108462465Y-66132554D01*
X108466330Y-66130059D01*
X108470284Y-66127759D01*
X108474318Y-66125655D01*
X108478420Y-66123748D01*
X108482581Y-66122039D01*
X108491035Y-66119216D01*
X108499596Y-66117193D01*
X108508179Y-66115975D01*
X108512452Y-66115669D01*
X108516699Y-66115567D01*
X108522427Y-66115701D01*
G37*
%TD.AperFunction*%
%TA.AperFunction,NonConductor*%
G36*
X107269414Y-66115701D02*
G01*
X107275030Y-66116103D01*
X107280531Y-66116773D01*
X107285910Y-66117711D01*
X107291162Y-66118916D01*
X107296282Y-66120390D01*
X107301266Y-66122131D01*
X107306107Y-66124140D01*
X107310800Y-66126417D01*
X107315341Y-66128962D01*
X107319724Y-66131775D01*
X107323944Y-66134856D01*
X107327996Y-66138204D01*
X107331875Y-66141821D01*
X107335575Y-66145705D01*
X107339092Y-66149858D01*
X107340203Y-66149858D01*
X107340203Y-66119020D01*
X107398464Y-66119020D01*
X107398464Y-66408620D01*
X107340203Y-66408620D01*
X107340203Y-66234392D01*
X107340122Y-66230499D01*
X107339882Y-66226746D01*
X107339488Y-66223132D01*
X107338945Y-66219654D01*
X107338258Y-66216313D01*
X107337433Y-66213107D01*
X107336473Y-66210036D01*
X107335385Y-66207097D01*
X107334173Y-66204291D01*
X107332842Y-66201616D01*
X107331397Y-66199071D01*
X107329843Y-66196655D01*
X107328186Y-66194367D01*
X107326430Y-66192206D01*
X107324580Y-66190170D01*
X107322641Y-66188260D01*
X107320619Y-66186474D01*
X107318518Y-66184810D01*
X107316343Y-66183268D01*
X107314100Y-66181847D01*
X107311793Y-66180545D01*
X107309427Y-66179362D01*
X107307008Y-66178297D01*
X107304540Y-66177348D01*
X107299479Y-66175796D01*
X107294283Y-66174697D01*
X107288993Y-66174044D01*
X107283648Y-66173829D01*
X107280916Y-66173876D01*
X107278293Y-66174021D01*
X107275764Y-66174266D01*
X107273317Y-66174616D01*
X107270938Y-66175072D01*
X107268613Y-66175639D01*
X107266329Y-66176320D01*
X107264072Y-66177118D01*
X107261830Y-66178036D01*
X107259588Y-66179078D01*
X107257333Y-66180248D01*
X107255051Y-66181547D01*
X107252729Y-66182981D01*
X107250354Y-66184551D01*
X107247912Y-66186262D01*
X107245390Y-66188116D01*
X107203122Y-66137832D01*
X107206468Y-66135326D01*
X107209856Y-66132944D01*
X107213289Y-66130693D01*
X107216771Y-66128577D01*
X107220306Y-66126601D01*
X107223896Y-66124770D01*
X107227547Y-66123090D01*
X107231261Y-66121565D01*
X107235042Y-66120201D01*
X107238893Y-66119002D01*
X107242819Y-66117974D01*
X107246822Y-66117121D01*
X107250907Y-66116449D01*
X107255077Y-66115963D01*
X107259335Y-66115667D01*
X107263685Y-66115567D01*
X107269414Y-66115701D01*
G37*
%TD.AperFunction*%
%TA.AperFunction,NonConductor*%
G36*
X101024299Y-70373081D02*
G01*
X101032214Y-71102981D01*
X100854819Y-71342820D01*
X100684189Y-71216922D01*
X100696134Y-71209873D01*
X100709295Y-71201504D01*
X100725675Y-71190297D01*
X100744094Y-71176548D01*
X100763370Y-71160550D01*
X100782324Y-71142598D01*
X100791311Y-71132981D01*
X100799775Y-71122986D01*
X100807568Y-71112650D01*
X100814543Y-71102010D01*
X100820552Y-71091101D01*
X100825447Y-71079962D01*
X100829082Y-71068629D01*
X100831308Y-71057138D01*
X100831978Y-71045527D01*
X100830945Y-71033833D01*
X100828060Y-71022091D01*
X100823177Y-71010340D01*
X100816147Y-70998615D01*
X100806824Y-70986954D01*
X100795060Y-70975393D01*
X100780706Y-70963969D01*
X100763617Y-70952720D01*
X100743643Y-70941681D01*
X100722646Y-70931910D01*
X100702574Y-70924357D01*
X100683409Y-70918896D01*
X100665134Y-70915403D01*
X100647734Y-70913753D01*
X100631190Y-70913820D01*
X100615486Y-70915479D01*
X100600605Y-70918605D01*
X100586530Y-70923074D01*
X100573244Y-70928759D01*
X100560730Y-70935536D01*
X100548972Y-70943280D01*
X100537952Y-70951866D01*
X100527653Y-70961168D01*
X100518060Y-70971062D01*
X100509153Y-70981422D01*
X100500918Y-70992123D01*
X100493336Y-71003041D01*
X100480067Y-71025024D01*
X100469211Y-71046371D01*
X100460631Y-71066081D01*
X100454194Y-71083153D01*
X100449763Y-71096586D01*
X100446381Y-71108534D01*
X100161937Y-70818241D01*
X100382576Y-70501522D01*
X100389809Y-70507655D01*
X100410288Y-70522522D01*
X100424925Y-70531574D01*
X100442187Y-70540821D01*
X100461848Y-70549602D01*
X100483677Y-70557253D01*
X100507447Y-70563112D01*
X100519989Y-70565162D01*
X100532930Y-70566516D01*
X100546242Y-70567090D01*
X100559896Y-70566803D01*
X100573864Y-70565570D01*
X100588117Y-70563310D01*
X100602627Y-70559939D01*
X100617365Y-70555374D01*
X100632303Y-70549533D01*
X100647412Y-70542334D01*
X100662663Y-70533692D01*
X100678028Y-70523526D01*
X100693478Y-70511752D01*
X100708985Y-70498287D01*
X100723169Y-70484164D01*
X100734765Y-70470468D01*
X100743911Y-70457202D01*
X100750748Y-70444366D01*
X100755417Y-70431962D01*
X100758057Y-70419992D01*
X100758810Y-70408456D01*
X100757815Y-70397356D01*
X100755213Y-70386694D01*
X100751143Y-70376470D01*
X100745747Y-70366686D01*
X100739164Y-70357343D01*
X100731535Y-70348443D01*
X100723000Y-70339987D01*
X100713699Y-70331977D01*
X100703773Y-70324413D01*
X100682605Y-70310631D01*
X100660618Y-70298651D01*
X100638935Y-70288485D01*
X100618678Y-70280144D01*
X100586931Y-70268977D01*
X100574353Y-70265235D01*
X100720144Y-70118189D01*
X101024299Y-70373081D01*
G37*
%TD.AperFunction*%
%TA.AperFunction,NonConductor*%
G36*
X99900295Y-69499760D02*
G01*
X99888880Y-69515751D01*
X99874159Y-69537781D01*
X99856861Y-69565645D01*
X99837713Y-69599138D01*
X99817444Y-69638053D01*
X99796780Y-69682184D01*
X99786528Y-69706142D01*
X99776450Y-69731327D01*
X99766638Y-69757713D01*
X99757181Y-69785274D01*
X99748173Y-69813986D01*
X99739702Y-69843821D01*
X99731860Y-69874755D01*
X99724739Y-69906762D01*
X99718429Y-69939815D01*
X99713021Y-69973890D01*
X99708605Y-70008961D01*
X99705274Y-70045001D01*
X99703118Y-70081985D01*
X99702228Y-70119888D01*
X99702695Y-70158683D01*
X99704609Y-70198345D01*
X99708021Y-70237817D01*
X99712851Y-70276057D01*
X99719001Y-70313065D01*
X99726369Y-70348838D01*
X99734855Y-70383375D01*
X99744360Y-70416675D01*
X99766024Y-70479557D01*
X99790560Y-70537474D01*
X99817166Y-70590414D01*
X99845040Y-70638365D01*
X99873383Y-70681317D01*
X99901391Y-70719258D01*
X99928265Y-70752176D01*
X99953203Y-70780061D01*
X99975404Y-70802902D01*
X100008387Y-70833404D01*
X100020807Y-70843591D01*
X100012793Y-70856783D01*
X99991839Y-70894606D01*
X99977957Y-70921932D01*
X99962577Y-70954429D01*
X99946278Y-70991768D01*
X99929639Y-71033620D01*
X99913240Y-71079658D01*
X99897658Y-71129551D01*
X99890355Y-71155840D01*
X99883474Y-71182971D01*
X99877086Y-71210900D01*
X99871265Y-71239589D01*
X99866083Y-71268994D01*
X99861612Y-71299076D01*
X99857924Y-71329793D01*
X99855093Y-71361104D01*
X99853189Y-71392967D01*
X99852286Y-71425343D01*
X99852457Y-71458189D01*
X99853772Y-71491465D01*
X99856378Y-71524589D01*
X99860310Y-71556993D01*
X99865475Y-71588656D01*
X99871781Y-71619556D01*
X99887447Y-71678978D01*
X99906568Y-71735086D01*
X99928405Y-71787705D01*
X99952221Y-71836662D01*
X99977275Y-71881782D01*
X100002829Y-71922892D01*
X100028144Y-71959817D01*
X100052481Y-71992383D01*
X100095265Y-72043744D01*
X100136586Y-72086504D01*
X100119617Y-72075258D01*
X100074678Y-72042662D01*
X100044516Y-72018892D01*
X100010718Y-71990428D01*
X99974403Y-71957482D01*
X99936689Y-71920268D01*
X99898696Y-71879002D01*
X99879944Y-71856915D01*
X99861541Y-71833896D01*
X99843628Y-71809970D01*
X99826345Y-71785165D01*
X99809830Y-71759507D01*
X99794224Y-71733023D01*
X99779668Y-71705739D01*
X99766300Y-71677684D01*
X99754260Y-71648882D01*
X99743689Y-71619361D01*
X99734727Y-71589149D01*
X99727512Y-71558270D01*
X99722185Y-71526753D01*
X99718887Y-71494624D01*
X99716383Y-71430687D01*
X99717506Y-71368771D01*
X99721778Y-71309169D01*
X99728720Y-71252168D01*
X99737854Y-71198061D01*
X99748703Y-71147137D01*
X99760788Y-71099686D01*
X99773631Y-71055997D01*
X99786753Y-71016362D01*
X99799677Y-70981071D01*
X99823018Y-70924678D01*
X99846280Y-70876779D01*
X99834293Y-70861893D01*
X99802812Y-70819406D01*
X99781863Y-70788830D01*
X99758562Y-70752577D01*
X99733750Y-70711053D01*
X99708266Y-70664665D01*
X99682951Y-70613821D01*
X99670620Y-70586856D01*
X99658647Y-70558929D01*
X99647135Y-70530091D01*
X99636192Y-70500395D01*
X99625921Y-70469889D01*
X99616428Y-70438627D01*
X99607817Y-70406657D01*
X99600194Y-70374032D01*
X99593664Y-70340802D01*
X99588332Y-70307017D01*
X99584303Y-70272730D01*
X99581682Y-70237991D01*
X99580574Y-70202851D01*
X99581083Y-70167360D01*
X99583299Y-70131952D01*
X99587161Y-70097052D01*
X99592558Y-70062701D01*
X99599376Y-70028939D01*
X99616828Y-69963344D01*
X99638617Y-69900590D01*
X99663840Y-69841001D01*
X99691597Y-69784898D01*
X99720987Y-69732605D01*
X99751108Y-69684445D01*
X99781061Y-69640742D01*
X99809943Y-69601817D01*
X99860892Y-69539598D01*
X99910297Y-69486726D01*
X99900295Y-69499760D01*
G37*
%TD.AperFunction*%
%TA.AperFunction,NonConductor*%
G36*
X108147143Y-66115962D02*
G01*
X108158044Y-66117023D01*
X108168516Y-66118789D01*
X108178510Y-66121258D01*
X108187978Y-66124425D01*
X108192500Y-66126271D01*
X108196873Y-66128290D01*
X108201091Y-66130483D01*
X108205147Y-66132849D01*
X108209036Y-66135388D01*
X108212753Y-66138100D01*
X108216290Y-66140984D01*
X108219642Y-66144040D01*
X108222803Y-66147268D01*
X108225767Y-66150667D01*
X108228529Y-66154237D01*
X108231081Y-66157978D01*
X108233419Y-66161889D01*
X108235536Y-66165970D01*
X108237426Y-66170222D01*
X108239083Y-66174642D01*
X108240502Y-66179232D01*
X108241676Y-66183990D01*
X108242600Y-66188917D01*
X108243267Y-66194012D01*
X108243672Y-66199275D01*
X108243808Y-66204706D01*
X108243705Y-66209302D01*
X108243399Y-66213774D01*
X108242893Y-66218121D01*
X108242193Y-66222342D01*
X108241302Y-66226438D01*
X108240225Y-66230406D01*
X108238965Y-66234247D01*
X108237527Y-66237959D01*
X108235915Y-66241543D01*
X108234133Y-66244998D01*
X108232186Y-66248322D01*
X108230077Y-66251516D01*
X108227810Y-66254578D01*
X108225391Y-66257509D01*
X108222823Y-66260307D01*
X108220110Y-66262972D01*
X108217256Y-66265503D01*
X108214266Y-66267899D01*
X108211144Y-66270161D01*
X108207894Y-66272286D01*
X108204520Y-66274276D01*
X108201026Y-66276128D01*
X108197416Y-66277843D01*
X108193696Y-66279419D01*
X108189868Y-66280857D01*
X108185937Y-66282155D01*
X108181908Y-66283312D01*
X108177784Y-66284330D01*
X108169268Y-66285939D01*
X108160425Y-66286978D01*
X108108990Y-66291542D01*
X108105296Y-66291918D01*
X108101726Y-66292416D01*
X108098295Y-66293051D01*
X108095020Y-66293836D01*
X108091916Y-66294785D01*
X108088998Y-66295912D01*
X108086284Y-66297233D01*
X108085008Y-66297970D01*
X108083788Y-66298760D01*
X108082627Y-66299605D01*
X108081527Y-66300508D01*
X108080489Y-66301469D01*
X108079516Y-66302491D01*
X108078609Y-66303575D01*
X108077770Y-66304723D01*
X108077002Y-66305937D01*
X108076307Y-66307219D01*
X108075686Y-66308570D01*
X108075141Y-66309992D01*
X108074675Y-66311487D01*
X108074289Y-66313057D01*
X108073986Y-66314703D01*
X108073766Y-66316427D01*
X108073633Y-66318231D01*
X108073588Y-66320117D01*
X108073658Y-66322385D01*
X108073866Y-66324582D01*
X108074209Y-66326709D01*
X108074685Y-66328765D01*
X108075290Y-66330750D01*
X108076023Y-66332664D01*
X108076880Y-66334507D01*
X108077858Y-66336279D01*
X108078955Y-66337980D01*
X108080169Y-66339609D01*
X108081496Y-66341167D01*
X108082933Y-66342654D01*
X108084479Y-66344069D01*
X108086130Y-66345412D01*
X108087883Y-66346684D01*
X108089736Y-66347883D01*
X108091687Y-66349011D01*
X108093731Y-66350066D01*
X108095868Y-66351050D01*
X108098093Y-66351961D01*
X108100404Y-66352800D01*
X108102799Y-66353566D01*
X108105275Y-66354260D01*
X108107828Y-66354881D01*
X108110457Y-66355430D01*
X108113159Y-66355905D01*
X108115930Y-66356308D01*
X108118768Y-66356638D01*
X108121671Y-66356894D01*
X108124635Y-66357078D01*
X108127659Y-66357188D01*
X108130738Y-66357225D01*
X108137892Y-66357078D01*
X108144791Y-66356638D01*
X108151448Y-66355905D01*
X108157878Y-66354881D01*
X108164094Y-66353566D01*
X108170109Y-66351961D01*
X108175935Y-66350066D01*
X108181588Y-66347883D01*
X108187080Y-66345412D01*
X108192424Y-66342654D01*
X108197634Y-66339609D01*
X108202723Y-66336279D01*
X108207705Y-66332664D01*
X108212592Y-66328765D01*
X108217399Y-66324582D01*
X108222139Y-66320117D01*
X108262699Y-66360082D01*
X108262660Y-66360082D01*
X108255622Y-66366408D01*
X108248441Y-66372321D01*
X108241122Y-66377820D01*
X108233668Y-66382906D01*
X108226084Y-66387581D01*
X108218374Y-66391845D01*
X108210542Y-66395700D01*
X108202593Y-66399145D01*
X108194530Y-66402181D01*
X108186357Y-66404810D01*
X108178080Y-66407033D01*
X108169702Y-66408849D01*
X108161227Y-66410261D01*
X108152659Y-66411268D01*
X108144003Y-66411872D01*
X108135263Y-66412073D01*
X108122810Y-66411693D01*
X108110759Y-66410564D01*
X108099167Y-66408697D01*
X108088087Y-66406104D01*
X108077575Y-66402799D01*
X108067687Y-66398793D01*
X108058478Y-66394100D01*
X108054146Y-66391499D01*
X108050004Y-66388731D01*
X108046059Y-66385798D01*
X108042319Y-66382700D01*
X108038790Y-66379440D01*
X108035480Y-66376019D01*
X108032394Y-66372438D01*
X108029540Y-66368699D01*
X108026926Y-66364805D01*
X108024557Y-66360755D01*
X108022441Y-66356552D01*
X108020584Y-66352198D01*
X108018995Y-66347693D01*
X108017679Y-66343040D01*
X108016643Y-66338240D01*
X108015894Y-66333295D01*
X108015440Y-66328206D01*
X108015287Y-66322974D01*
X108015571Y-66314424D01*
X108016435Y-66306133D01*
X108017895Y-66298135D01*
X108018855Y-66294256D01*
X108019970Y-66290464D01*
X108021244Y-66286761D01*
X108022678Y-66283153D01*
X108024275Y-66279644D01*
X108026036Y-66276237D01*
X108027965Y-66272937D01*
X108030062Y-66269748D01*
X108032331Y-66266675D01*
X108034774Y-66263721D01*
X108037392Y-66260890D01*
X108040189Y-66258188D01*
X108043165Y-66255618D01*
X108046324Y-66253184D01*
X108049668Y-66250890D01*
X108053198Y-66248742D01*
X108056918Y-66246742D01*
X108060829Y-66244895D01*
X108064933Y-66243206D01*
X108069233Y-66241678D01*
X108073731Y-66240316D01*
X108078429Y-66239124D01*
X108083329Y-66238106D01*
X108088434Y-66237266D01*
X108093746Y-66236608D01*
X108099266Y-66236138D01*
X108147248Y-66232725D01*
X108152478Y-66232175D01*
X108157256Y-66231400D01*
X108161596Y-66230414D01*
X108165516Y-66229232D01*
X108169030Y-66227870D01*
X108170640Y-66227126D01*
X108172155Y-66226343D01*
X108173577Y-66225522D01*
X108174907Y-66224665D01*
X108176148Y-66223775D01*
X108177302Y-66222853D01*
X108178370Y-66221900D01*
X108179355Y-66220920D01*
X108181083Y-66218882D01*
X108182501Y-66216755D01*
X108183626Y-66214553D01*
X108184473Y-66212291D01*
X108185058Y-66209985D01*
X108185397Y-66207650D01*
X108185507Y-66205301D01*
X108185470Y-66203444D01*
X108185357Y-66201620D01*
X108185166Y-66199828D01*
X108184894Y-66198072D01*
X108184540Y-66196353D01*
X108184101Y-66194672D01*
X108183576Y-66193032D01*
X108182962Y-66191434D01*
X108182256Y-66189881D01*
X108181457Y-66188373D01*
X108180562Y-66186913D01*
X108179570Y-66185503D01*
X108178477Y-66184144D01*
X108177283Y-66182838D01*
X108175984Y-66181586D01*
X108174578Y-66180392D01*
X108173064Y-66179256D01*
X108171439Y-66178180D01*
X108169701Y-66177167D01*
X108167847Y-66176217D01*
X108165876Y-66175333D01*
X108163786Y-66174516D01*
X108161573Y-66173769D01*
X108159237Y-66173093D01*
X108156774Y-66172489D01*
X108154183Y-66171960D01*
X108151462Y-66171508D01*
X108148607Y-66171134D01*
X108145618Y-66170840D01*
X108142492Y-66170627D01*
X108139226Y-66170498D01*
X108135818Y-66170455D01*
X108130016Y-66170581D01*
X108124391Y-66170954D01*
X108118931Y-66171564D01*
X108113625Y-66172404D01*
X108108463Y-66173464D01*
X108103435Y-66174737D01*
X108098529Y-66176214D01*
X108093735Y-66177887D01*
X108089041Y-66179746D01*
X108084438Y-66181784D01*
X108079914Y-66183992D01*
X108075459Y-66186361D01*
X108071062Y-66188884D01*
X108066712Y-66191551D01*
X108062398Y-66194354D01*
X108058110Y-66197284D01*
X108022153Y-66155056D01*
X108027580Y-66150657D01*
X108033157Y-66146468D01*
X108038898Y-66142500D01*
X108044820Y-66138763D01*
X108050940Y-66135267D01*
X108057272Y-66132023D01*
X108063834Y-66129039D01*
X108070642Y-66126328D01*
X108077710Y-66123897D01*
X108085057Y-66121758D01*
X108092696Y-66119920D01*
X108100645Y-66118394D01*
X108108920Y-66117190D01*
X108117536Y-66116317D01*
X108126510Y-66115786D01*
X108135858Y-66115607D01*
X108147143Y-66115962D01*
G37*
%TD.AperFunction*%
%TA.AperFunction,NonConductor*%
G36*
X107091112Y-66116108D02*
G01*
X107097308Y-66116740D01*
X107103456Y-66117631D01*
X107109545Y-66118786D01*
X107115564Y-66120208D01*
X107121501Y-66121902D01*
X107127344Y-66123872D01*
X107133083Y-66126121D01*
X107138706Y-66128653D01*
X107144202Y-66131473D01*
X107149558Y-66134584D01*
X107154765Y-66137990D01*
X107159809Y-66141696D01*
X107164681Y-66145705D01*
X107169368Y-66150022D01*
X107173860Y-66154649D01*
X107178144Y-66159592D01*
X107182210Y-66164854D01*
X107186046Y-66170439D01*
X107189640Y-66176352D01*
X107192982Y-66182595D01*
X107196059Y-66189174D01*
X107198861Y-66196092D01*
X107201376Y-66203353D01*
X107203593Y-66210961D01*
X107205499Y-66218919D01*
X107207085Y-66227233D01*
X107208338Y-66235906D01*
X107209247Y-66244942D01*
X107209801Y-66254344D01*
X107209988Y-66264118D01*
X107209801Y-66273890D01*
X107209247Y-66283288D01*
X107208338Y-66292316D01*
X107207085Y-66300979D01*
X107205499Y-66309280D01*
X107203593Y-66317224D01*
X107201376Y-66324815D01*
X107198861Y-66332057D01*
X107196059Y-66338955D01*
X107192982Y-66345512D01*
X107189640Y-66351732D01*
X107186046Y-66357621D01*
X107182210Y-66363181D01*
X107178144Y-66368418D01*
X107173860Y-66373335D01*
X107169368Y-66377937D01*
X107164681Y-66382227D01*
X107159809Y-66386210D01*
X107154764Y-66389891D01*
X107149558Y-66393273D01*
X107144201Y-66396360D01*
X107138706Y-66399156D01*
X107133083Y-66401667D01*
X107127344Y-66403896D01*
X107115564Y-66407523D01*
X107103456Y-66410073D01*
X107091112Y-66411579D01*
X107078623Y-66412073D01*
X107070484Y-66411828D01*
X107062560Y-66411107D01*
X107054851Y-66409929D01*
X107047358Y-66408313D01*
X107040082Y-66406279D01*
X107033024Y-66403846D01*
X107026186Y-66401033D01*
X107019568Y-66397860D01*
X107013171Y-66394346D01*
X107006997Y-66390510D01*
X107001046Y-66386373D01*
X106995320Y-66381952D01*
X106989820Y-66377268D01*
X106984545Y-66372340D01*
X106979499Y-66367187D01*
X106974681Y-66361829D01*
X107017504Y-66323570D01*
X107017504Y-66323530D01*
X107020256Y-66326787D01*
X107023150Y-66329913D01*
X107026183Y-66332898D01*
X107029351Y-66335729D01*
X107032649Y-66338397D01*
X107036072Y-66340890D01*
X107039618Y-66343198D01*
X107043281Y-66345309D01*
X107047058Y-66347212D01*
X107050944Y-66348898D01*
X107054935Y-66350354D01*
X107059027Y-66351569D01*
X107063216Y-66352534D01*
X107067497Y-66353237D01*
X107069671Y-66353486D01*
X107071867Y-66353666D01*
X107074084Y-66353775D01*
X107076321Y-66353812D01*
X107080707Y-66353733D01*
X107084977Y-66353495D01*
X107089131Y-66353096D01*
X107093166Y-66352534D01*
X107097082Y-66351809D01*
X107100876Y-66350918D01*
X107104548Y-66349859D01*
X107108095Y-66348631D01*
X107111515Y-66347233D01*
X107114808Y-66345662D01*
X107117972Y-66343916D01*
X107121004Y-66341995D01*
X107123904Y-66339897D01*
X107126671Y-66337619D01*
X107129301Y-66335160D01*
X107131794Y-66332519D01*
X107134149Y-66329694D01*
X107136362Y-66326683D01*
X107138434Y-66323484D01*
X107140363Y-66320097D01*
X107142146Y-66316518D01*
X107143782Y-66312747D01*
X107145271Y-66308781D01*
X107146609Y-66304620D01*
X107147796Y-66300261D01*
X107148829Y-66295703D01*
X107149708Y-66290945D01*
X107150431Y-66285983D01*
X107150996Y-66280817D01*
X107151401Y-66275446D01*
X107151645Y-66269867D01*
X107151727Y-66264078D01*
X107151401Y-66252705D01*
X107150431Y-66242153D01*
X107149708Y-66237181D01*
X107148829Y-66232409D01*
X107147796Y-66227837D01*
X107146609Y-66223462D01*
X107145271Y-66219283D01*
X107143782Y-66215299D01*
X107142146Y-66211508D01*
X107140363Y-66207909D01*
X107138434Y-66204500D01*
X107136362Y-66201280D01*
X107134149Y-66198247D01*
X107131794Y-66195399D01*
X107129301Y-66192736D01*
X107126671Y-66190255D01*
X107123904Y-66187956D01*
X107121004Y-66185836D01*
X107117972Y-66183894D01*
X107114808Y-66182129D01*
X107111515Y-66180540D01*
X107108095Y-66179124D01*
X107104548Y-66177880D01*
X107100876Y-66176807D01*
X107097082Y-66175903D01*
X107093166Y-66175166D01*
X107084977Y-66174191D01*
X107076321Y-66173869D01*
X107071867Y-66174014D01*
X107067496Y-66174444D01*
X107063213Y-66175146D01*
X107059022Y-66176111D01*
X107054927Y-66177327D01*
X107050933Y-66178783D01*
X107047045Y-66180468D01*
X107043266Y-66182372D01*
X107039601Y-66184483D01*
X107036055Y-66186790D01*
X107032631Y-66189284D01*
X107029334Y-66191951D01*
X107026169Y-66194783D01*
X107023139Y-66197767D01*
X107020249Y-66200893D01*
X107017504Y-66204150D01*
X106974681Y-66165892D01*
X106979506Y-66160526D01*
X106984557Y-66155367D01*
X106989834Y-66150434D01*
X106995337Y-66145745D01*
X107001064Y-66141321D01*
X107007015Y-66137180D01*
X107013188Y-66133342D01*
X107019583Y-66129826D01*
X107026199Y-66126651D01*
X107033035Y-66123837D01*
X107040090Y-66121403D01*
X107047363Y-66119368D01*
X107054854Y-66117752D01*
X107062562Y-66116573D01*
X107066496Y-66116154D01*
X107070485Y-66115852D01*
X107074527Y-66115669D01*
X107078623Y-66115608D01*
X107091112Y-66116108D01*
G37*
%TD.AperFunction*%
%TA.AperFunction,NonConductor*%
G36*
X107341565Y-66573179D02*
G01*
X107347181Y-66573581D01*
X107352679Y-66574251D01*
X107358056Y-66575188D01*
X107363306Y-66576394D01*
X107368424Y-66577867D01*
X107373405Y-66579608D01*
X107378243Y-66581618D01*
X107382935Y-66583895D01*
X107387475Y-66586440D01*
X107391858Y-66589253D01*
X107396079Y-66592333D01*
X107400133Y-66595682D01*
X107404015Y-66599298D01*
X107407720Y-66603183D01*
X107411244Y-66607335D01*
X107412394Y-66607335D01*
X107412394Y-66576498D01*
X107470656Y-66576498D01*
X107470656Y-66866098D01*
X107470616Y-66866098D01*
X107412355Y-66866098D01*
X107412355Y-66691870D01*
X107412274Y-66687981D01*
X107412034Y-66684230D01*
X107411640Y-66680618D01*
X107411097Y-66677143D01*
X107410410Y-66673804D01*
X107409585Y-66670600D01*
X107408625Y-66667529D01*
X107407537Y-66664592D01*
X107406325Y-66661786D01*
X107404994Y-66659111D01*
X107403549Y-66656566D01*
X107401995Y-66654150D01*
X107400338Y-66651861D01*
X107398582Y-66649700D01*
X107396732Y-66647664D01*
X107394793Y-66645753D01*
X107392771Y-66643965D01*
X107390670Y-66642300D01*
X107388495Y-66640757D01*
X107386252Y-66639335D01*
X107383945Y-66638032D01*
X107381579Y-66636848D01*
X107379160Y-66635781D01*
X107376692Y-66634831D01*
X107371630Y-66633277D01*
X107366435Y-66632177D01*
X107361145Y-66631523D01*
X107355800Y-66631306D01*
X107353069Y-66631354D01*
X107350445Y-66631499D01*
X107347916Y-66631744D01*
X107345469Y-66632093D01*
X107343090Y-66632550D01*
X107340765Y-66633117D01*
X107338481Y-66633798D01*
X107336224Y-66634596D01*
X107333982Y-66635514D01*
X107331740Y-66636556D01*
X107329485Y-66637725D01*
X107327203Y-66639025D01*
X107324881Y-66640458D01*
X107322506Y-66642029D01*
X107320064Y-66643739D01*
X107317541Y-66645594D01*
X107275274Y-66595310D01*
X107278614Y-66592803D01*
X107281998Y-66590422D01*
X107285430Y-66588171D01*
X107288912Y-66586055D01*
X107292448Y-66584079D01*
X107296041Y-66582248D01*
X107299695Y-66580568D01*
X107303413Y-66579043D01*
X107307197Y-66577678D01*
X107311052Y-66576480D01*
X107314980Y-66575451D01*
X107318985Y-66574598D01*
X107323070Y-66573926D01*
X107327238Y-66573440D01*
X107331493Y-66573145D01*
X107335837Y-66573045D01*
X107341565Y-66573179D01*
G37*
%TD.AperFunction*%
%TA.AperFunction,NonConductor*%
G36*
X108939320Y-66244457D02*
G01*
X108939862Y-66254346D01*
X108940046Y-66264673D01*
X108939846Y-66275547D01*
X108939255Y-66285903D01*
X108938289Y-66295754D01*
X108936961Y-66305110D01*
X108935286Y-66313982D01*
X108933278Y-66322382D01*
X108930951Y-66330321D01*
X108928321Y-66337811D01*
X108925402Y-66344862D01*
X108922207Y-66351486D01*
X108918752Y-66357695D01*
X108915050Y-66363499D01*
X108911117Y-66368910D01*
X108906967Y-66373940D01*
X108902613Y-66378598D01*
X108898071Y-66382898D01*
X108893355Y-66386849D01*
X108888480Y-66390463D01*
X108883459Y-66393753D01*
X108878307Y-66396728D01*
X108873039Y-66399400D01*
X108867669Y-66401781D01*
X108856682Y-66405712D01*
X108845459Y-66408613D01*
X108834117Y-66410573D01*
X108822772Y-66411683D01*
X108811538Y-66412033D01*
X108804275Y-66411871D01*
X108797063Y-66411380D01*
X108789911Y-66410551D01*
X108782831Y-66409376D01*
X108775831Y-66407846D01*
X108768921Y-66405953D01*
X108762113Y-66403689D01*
X108755415Y-66401045D01*
X108748837Y-66398012D01*
X108742390Y-66394583D01*
X108736083Y-66390748D01*
X108729926Y-66386500D01*
X108723929Y-66381830D01*
X108718103Y-66376729D01*
X108712457Y-66371189D01*
X108707001Y-66365202D01*
X108749268Y-66329245D01*
X108752561Y-66332477D01*
X108756001Y-66335531D01*
X108759576Y-66338404D01*
X108763273Y-66341091D01*
X108767081Y-66343587D01*
X108770986Y-66345889D01*
X108774976Y-66347992D01*
X108779039Y-66349892D01*
X108783161Y-66351585D01*
X108787331Y-66353066D01*
X108791536Y-66354331D01*
X108795764Y-66355376D01*
X108800001Y-66356195D01*
X108804236Y-66356786D01*
X108808456Y-66357144D01*
X108812649Y-66357264D01*
X108816367Y-66357194D01*
X108820018Y-66356983D01*
X108823599Y-66356632D01*
X108827105Y-66356140D01*
X108830535Y-66355508D01*
X108833885Y-66354736D01*
X108837150Y-66353824D01*
X108840329Y-66352772D01*
X108843416Y-66351580D01*
X108846411Y-66350248D01*
X108849308Y-66348777D01*
X108852104Y-66347166D01*
X108854797Y-66345416D01*
X108857382Y-66343527D01*
X108859857Y-66341498D01*
X108862219Y-66339331D01*
X108864463Y-66337024D01*
X108866586Y-66334579D01*
X108868586Y-66331995D01*
X108870458Y-66329272D01*
X108872200Y-66326411D01*
X108873807Y-66323411D01*
X108875278Y-66320273D01*
X108876608Y-66316997D01*
X108877794Y-66313583D01*
X108878833Y-66310031D01*
X108879721Y-66306341D01*
X108880455Y-66302513D01*
X108881032Y-66298548D01*
X108881448Y-66294445D01*
X108881700Y-66290205D01*
X108881785Y-66285827D01*
X108701286Y-66285827D01*
X108701286Y-66237884D01*
X108759547Y-66237884D01*
X108881785Y-66237884D01*
X108881605Y-66233819D01*
X108881285Y-66229874D01*
X108880826Y-66226051D01*
X108880233Y-66222350D01*
X108879507Y-66218773D01*
X108878652Y-66215318D01*
X108877670Y-66211987D01*
X108876566Y-66208780D01*
X108875340Y-66205699D01*
X108873998Y-66202742D01*
X108872540Y-66199912D01*
X108870971Y-66197208D01*
X108869294Y-66194630D01*
X108867510Y-66192180D01*
X108865624Y-66189858D01*
X108863637Y-66187665D01*
X108861554Y-66185600D01*
X108859377Y-66183665D01*
X108857109Y-66181860D01*
X108854752Y-66180185D01*
X108852310Y-66178642D01*
X108849786Y-66177229D01*
X108847183Y-66175949D01*
X108844503Y-66174802D01*
X108841750Y-66173787D01*
X108838926Y-66172906D01*
X108836035Y-66172160D01*
X108833078Y-66171548D01*
X108830061Y-66171070D01*
X108826984Y-66170729D01*
X108823851Y-66170524D01*
X108820666Y-66170455D01*
X108817482Y-66170524D01*
X108814354Y-66170729D01*
X108811284Y-66171070D01*
X108808276Y-66171548D01*
X108805331Y-66172160D01*
X108802453Y-66172906D01*
X108799644Y-66173787D01*
X108796907Y-66174802D01*
X108794244Y-66175949D01*
X108791657Y-66177229D01*
X108789151Y-66178642D01*
X108786726Y-66180185D01*
X108784386Y-66181860D01*
X108782134Y-66183665D01*
X108779972Y-66185600D01*
X108777903Y-66187665D01*
X108775928Y-66189859D01*
X108774052Y-66192180D01*
X108772277Y-66194630D01*
X108770605Y-66197208D01*
X108769038Y-66199912D01*
X108767580Y-66202742D01*
X108766233Y-66205699D01*
X108765000Y-66208781D01*
X108763884Y-66211987D01*
X108762886Y-66215318D01*
X108762010Y-66218773D01*
X108761258Y-66222350D01*
X108760634Y-66226051D01*
X108760138Y-66229874D01*
X108759775Y-66233819D01*
X108759547Y-66237884D01*
X108701286Y-66237884D01*
X108701286Y-66237845D01*
X108701447Y-66230908D01*
X108701924Y-66224136D01*
X108702708Y-66217532D01*
X108703791Y-66211100D01*
X108705165Y-66204843D01*
X108706821Y-66198765D01*
X108708749Y-66192870D01*
X108710942Y-66187161D01*
X108713392Y-66181642D01*
X108716088Y-66176317D01*
X108719024Y-66171189D01*
X108722190Y-66166262D01*
X108725577Y-66161540D01*
X108729178Y-66157026D01*
X108732983Y-66152724D01*
X108736985Y-66148637D01*
X108741174Y-66144770D01*
X108745541Y-66141126D01*
X108750079Y-66137708D01*
X108754779Y-66134521D01*
X108759631Y-66131567D01*
X108764629Y-66128852D01*
X108769762Y-66126377D01*
X108775023Y-66124147D01*
X108780402Y-66122166D01*
X108785892Y-66120438D01*
X108791484Y-66118965D01*
X108797168Y-66117752D01*
X108802937Y-66116802D01*
X108808782Y-66116118D01*
X108814695Y-66115706D01*
X108820666Y-66115567D01*
X108831235Y-66116006D01*
X108841873Y-66117360D01*
X108847186Y-66118398D01*
X108852477Y-66119686D01*
X108857734Y-66121232D01*
X108862944Y-66123043D01*
X108868093Y-66125126D01*
X108873168Y-66127488D01*
X108878157Y-66130137D01*
X108883047Y-66133079D01*
X108887825Y-66136322D01*
X108892478Y-66139873D01*
X108896992Y-66143739D01*
X108901355Y-66147928D01*
X108905555Y-66152446D01*
X108909577Y-66157301D01*
X108913409Y-66162500D01*
X108917039Y-66168051D01*
X108920452Y-66173960D01*
X108923637Y-66180234D01*
X108926580Y-66186881D01*
X108929268Y-66193909D01*
X108931688Y-66201323D01*
X108933828Y-66209132D01*
X108935674Y-66217343D01*
X108937213Y-66225963D01*
X108938433Y-66234998D01*
X108938704Y-66237884D01*
X108939320Y-66244457D01*
G37*
%TD.AperFunction*%
%TA.AperFunction,NonConductor*%
G36*
X108938577Y-66780968D02*
G01*
X108938467Y-66785646D01*
X108938138Y-66790249D01*
X108937592Y-66794772D01*
X108936831Y-66799210D01*
X108935857Y-66803558D01*
X108934673Y-66807812D01*
X108933279Y-66811966D01*
X108931678Y-66816017D01*
X108929872Y-66819958D01*
X108927863Y-66823786D01*
X108925654Y-66827495D01*
X108923245Y-66831081D01*
X108920639Y-66834539D01*
X108917838Y-66837864D01*
X108914844Y-66841052D01*
X108911659Y-66844096D01*
X108908285Y-66846994D01*
X108904724Y-66849739D01*
X108900978Y-66852328D01*
X108897049Y-66854754D01*
X108892939Y-66857014D01*
X108888649Y-66859103D01*
X108884183Y-66861016D01*
X108879541Y-66862748D01*
X108874726Y-66864294D01*
X108869740Y-66865649D01*
X108864585Y-66866809D01*
X108859263Y-66867769D01*
X108853776Y-66868524D01*
X108848125Y-66869069D01*
X108842313Y-66869400D01*
X108836342Y-66869511D01*
X108829178Y-66869404D01*
X108822451Y-66869080D01*
X108816146Y-66868537D01*
X108810246Y-66867773D01*
X108804734Y-66866784D01*
X108799593Y-66865568D01*
X108794807Y-66864124D01*
X108790360Y-66862447D01*
X108786233Y-66860536D01*
X108782411Y-66858388D01*
X108778877Y-66856001D01*
X108775615Y-66853371D01*
X108772607Y-66850497D01*
X108769837Y-66847375D01*
X108767289Y-66844004D01*
X108764945Y-66840381D01*
X108763794Y-66840381D01*
X108763794Y-66866098D01*
X108763754Y-66866098D01*
X108705493Y-66866098D01*
X108705493Y-66743265D01*
X108763754Y-66743265D01*
X108763754Y-66764418D01*
X108763803Y-66768536D01*
X108763952Y-66772426D01*
X108764203Y-66776094D01*
X108764560Y-66779546D01*
X108765025Y-66782789D01*
X108765601Y-66785830D01*
X108766292Y-66788674D01*
X108767099Y-66791329D01*
X108768026Y-66793800D01*
X108769075Y-66796094D01*
X108770249Y-66798217D01*
X108771552Y-66800176D01*
X108772986Y-66801977D01*
X108774553Y-66803627D01*
X108776257Y-66805131D01*
X108778101Y-66806497D01*
X108780087Y-66807730D01*
X108782218Y-66808838D01*
X108784497Y-66809826D01*
X108786927Y-66810701D01*
X108789511Y-66811469D01*
X108792251Y-66812137D01*
X108795150Y-66812710D01*
X108798211Y-66813197D01*
X108804832Y-66813932D01*
X108812136Y-66814394D01*
X108820144Y-66814634D01*
X108828881Y-66814702D01*
X108835992Y-66814505D01*
X108842553Y-66813928D01*
X108848577Y-66812992D01*
X108854077Y-66811720D01*
X108856634Y-66810965D01*
X108859065Y-66810134D01*
X108861371Y-66809229D01*
X108863554Y-66808254D01*
X108865615Y-66807211D01*
X108867556Y-66806104D01*
X108869379Y-66804934D01*
X108871084Y-66803704D01*
X108872674Y-66802417D01*
X108874150Y-66801077D01*
X108875513Y-66799685D01*
X108876766Y-66798244D01*
X108877910Y-66796757D01*
X108878946Y-66795227D01*
X108879876Y-66793657D01*
X108880701Y-66792049D01*
X108882045Y-66788730D01*
X108882989Y-66785293D01*
X108883546Y-66781759D01*
X108883729Y-66778150D01*
X108883682Y-66776189D01*
X108883541Y-66774272D01*
X108883306Y-66772402D01*
X108882975Y-66770578D01*
X108882549Y-66768802D01*
X108882027Y-66767076D01*
X108881409Y-66765400D01*
X108880694Y-66763775D01*
X108879883Y-66762204D01*
X108878973Y-66760686D01*
X108877966Y-66759223D01*
X108876860Y-66757816D01*
X108875656Y-66756467D01*
X108874352Y-66755176D01*
X108872949Y-66753945D01*
X108871446Y-66752775D01*
X108869842Y-66751667D01*
X108868138Y-66750622D01*
X108866332Y-66749641D01*
X108864424Y-66748725D01*
X108862415Y-66747876D01*
X108860302Y-66747095D01*
X108858087Y-66746383D01*
X108855768Y-66745741D01*
X108853346Y-66745170D01*
X108850819Y-66744672D01*
X108848187Y-66744247D01*
X108845451Y-66743896D01*
X108842609Y-66743622D01*
X108839661Y-66743424D01*
X108836606Y-66743305D01*
X108833445Y-66743265D01*
X108763754Y-66743265D01*
X108705493Y-66743265D01*
X108705493Y-66668454D01*
X108705636Y-66661899D01*
X108706062Y-66655617D01*
X108706766Y-66649604D01*
X108707743Y-66643855D01*
X108708989Y-66638368D01*
X108710498Y-66633137D01*
X108712265Y-66628157D01*
X108714285Y-66623426D01*
X108716555Y-66618937D01*
X108719067Y-66614688D01*
X108721819Y-66610674D01*
X108724804Y-66606890D01*
X108728018Y-66603333D01*
X108731456Y-66599997D01*
X108735113Y-66596880D01*
X108738984Y-66593976D01*
X108743064Y-66591280D01*
X108747349Y-66588790D01*
X108751833Y-66586501D01*
X108756511Y-66584408D01*
X108761379Y-66582507D01*
X108766431Y-66580793D01*
X108771663Y-66579263D01*
X108777070Y-66577913D01*
X108782646Y-66576737D01*
X108788388Y-66575732D01*
X108800346Y-66574216D01*
X108812904Y-66573332D01*
X108826024Y-66573045D01*
X108834031Y-66573181D01*
X108841773Y-66573595D01*
X108849252Y-66574300D01*
X108856471Y-66575307D01*
X108863432Y-66576629D01*
X108870137Y-66578278D01*
X108876590Y-66580264D01*
X108882792Y-66582600D01*
X108888746Y-66585298D01*
X108894455Y-66588370D01*
X108899921Y-66591827D01*
X108905146Y-66595682D01*
X108910134Y-66599946D01*
X108914886Y-66604631D01*
X108919406Y-66609750D01*
X108923695Y-66615313D01*
X108878014Y-66650158D01*
X108877039Y-66648638D01*
X108876037Y-66647181D01*
X108875008Y-66645784D01*
X108873948Y-66644448D01*
X108872857Y-66643172D01*
X108871731Y-66641954D01*
X108870568Y-66640795D01*
X108869366Y-66639691D01*
X108868124Y-66638644D01*
X108866838Y-66637652D01*
X108865506Y-66636714D01*
X108864127Y-66635828D01*
X108862698Y-66634995D01*
X108861218Y-66634214D01*
X108859683Y-66633482D01*
X108858091Y-66632800D01*
X108856441Y-66632167D01*
X108854730Y-66631581D01*
X108852957Y-66631041D01*
X108851118Y-66630548D01*
X108849211Y-66630099D01*
X108847235Y-66629694D01*
X108845187Y-66629332D01*
X108843066Y-66629012D01*
X108838592Y-66628494D01*
X108833795Y-66628134D01*
X108828659Y-66627923D01*
X108823166Y-66627854D01*
X108815625Y-66627970D01*
X108808638Y-66628325D01*
X108802194Y-66628932D01*
X108796286Y-66629802D01*
X108790903Y-66630946D01*
X108786038Y-66632377D01*
X108781679Y-66634105D01*
X108779687Y-66635085D01*
X108777818Y-66636144D01*
X108776072Y-66637283D01*
X108774446Y-66638504D01*
X108772941Y-66639808D01*
X108771554Y-66641196D01*
X108770285Y-66642671D01*
X108769132Y-66644234D01*
X108768095Y-66645886D01*
X108767171Y-66647628D01*
X108766361Y-66649462D01*
X108765662Y-66651390D01*
X108765074Y-66653413D01*
X108764596Y-66655532D01*
X108764226Y-66657749D01*
X108763963Y-66660065D01*
X108763754Y-66665002D01*
X108763754Y-66695283D01*
X108844320Y-66695283D01*
X108850069Y-66695398D01*
X108855640Y-66695737D01*
X108861033Y-66696296D01*
X108866248Y-66697068D01*
X108871284Y-66698048D01*
X108876141Y-66699228D01*
X108880819Y-66700604D01*
X108885317Y-66702169D01*
X108889636Y-66703918D01*
X108893774Y-66705844D01*
X108897731Y-66707941D01*
X108901508Y-66710203D01*
X108905103Y-66712625D01*
X108908517Y-66715200D01*
X108911750Y-66717923D01*
X108914800Y-66720787D01*
X108917667Y-66723787D01*
X108920352Y-66726916D01*
X108922854Y-66730168D01*
X108925172Y-66733538D01*
X108927307Y-66737020D01*
X108929258Y-66740607D01*
X108931024Y-66744294D01*
X108932606Y-66748074D01*
X108934003Y-66751942D01*
X108935215Y-66755892D01*
X108936241Y-66759917D01*
X108937081Y-66764012D01*
X108937735Y-66768170D01*
X108938203Y-66772387D01*
X108938484Y-66776655D01*
X108938516Y-66778150D01*
X108938577Y-66780968D01*
G37*
%TD.AperFunction*%
%TA.AperFunction,NonConductor*%
G36*
X106328584Y-67292819D02*
G01*
X107041267Y-67172751D01*
X106362237Y-67606772D01*
X104777242Y-69316117D01*
X103961067Y-68272086D01*
X103161285Y-67738186D01*
X101850837Y-67629733D01*
X100389962Y-68269909D01*
X99425214Y-69040017D01*
X97783187Y-69370460D01*
X99181161Y-68656058D01*
X100007831Y-67871251D01*
X101530750Y-67193008D01*
X103009612Y-67328730D01*
X104019747Y-67801087D01*
X104778557Y-69063951D01*
X105913908Y-67618547D01*
X103296045Y-67169578D01*
X106328584Y-67292819D01*
G37*
%TD.AperFunction*%
%TA.AperFunction,NonConductor*%
G36*
X108512426Y-66573179D02*
G01*
X108518043Y-66573581D01*
X108523543Y-66574251D01*
X108528922Y-66575188D01*
X108534175Y-66576394D01*
X108539295Y-66577867D01*
X108544278Y-66579608D01*
X108549119Y-66581618D01*
X108553813Y-66583895D01*
X108558353Y-66586440D01*
X108562737Y-66589253D01*
X108566957Y-66592333D01*
X108571009Y-66595682D01*
X108574887Y-66599298D01*
X108578588Y-66603183D01*
X108582104Y-66607335D01*
X108583255Y-66607335D01*
X108583255Y-66576498D01*
X108641516Y-66576498D01*
X108641516Y-66866098D01*
X108641477Y-66866098D01*
X108583216Y-66866098D01*
X108583216Y-66691870D01*
X108583134Y-66687981D01*
X108582894Y-66684230D01*
X108582499Y-66680618D01*
X108581956Y-66677143D01*
X108581268Y-66673804D01*
X108580442Y-66670600D01*
X108579481Y-66667529D01*
X108578392Y-66664592D01*
X108577178Y-66661786D01*
X108575846Y-66659111D01*
X108574400Y-66656566D01*
X108572845Y-66654150D01*
X108571187Y-66651861D01*
X108569430Y-66649700D01*
X108567579Y-66647664D01*
X108565639Y-66645753D01*
X108563616Y-66643965D01*
X108561514Y-66642300D01*
X108559339Y-66640757D01*
X108557095Y-66639335D01*
X108554788Y-66638032D01*
X108552422Y-66636848D01*
X108550003Y-66635781D01*
X108547536Y-66634831D01*
X108542476Y-66633277D01*
X108537284Y-66632177D01*
X108531999Y-66631523D01*
X108526661Y-66631306D01*
X108523936Y-66631354D01*
X108521317Y-66631499D01*
X108518792Y-66631744D01*
X108516347Y-66632093D01*
X108513968Y-66632550D01*
X108511643Y-66633117D01*
X108509358Y-66633798D01*
X108507100Y-66634596D01*
X108504855Y-66635514D01*
X108502611Y-66636556D01*
X108500353Y-66637725D01*
X108498069Y-66639025D01*
X108495745Y-66640458D01*
X108493368Y-66642029D01*
X108490925Y-66643739D01*
X108488402Y-66645594D01*
X108446135Y-66595310D01*
X108449474Y-66592803D01*
X108452857Y-66590422D01*
X108456287Y-66588171D01*
X108459767Y-66586055D01*
X108463301Y-66584079D01*
X108466892Y-66582248D01*
X108470543Y-66580568D01*
X108474258Y-66579043D01*
X108478041Y-66577678D01*
X108481895Y-66576480D01*
X108485823Y-66575451D01*
X108489829Y-66574598D01*
X108493916Y-66573926D01*
X108498087Y-66573440D01*
X108502347Y-66573145D01*
X108506698Y-66573045D01*
X108512426Y-66573179D01*
G37*
%TD.AperFunction*%
%TA.AperFunction,NonConductor*%
G36*
X107889319Y-66779262D02*
G01*
X107890510Y-66779262D01*
X107956193Y-66576498D01*
X107998460Y-66576498D01*
X108064143Y-66779262D01*
X108065294Y-66779262D01*
X108120697Y-66576498D01*
X108182372Y-66576498D01*
X108089860Y-66866098D01*
X108038425Y-66866098D01*
X107977902Y-66663295D01*
X107976751Y-66663295D01*
X107916188Y-66866098D01*
X107864753Y-66866098D01*
X107772241Y-66576498D01*
X107833955Y-66576498D01*
X107889319Y-66779262D01*
G37*
%TD.AperFunction*%
%TA.AperFunction,NonConductor*%
G36*
X109210913Y-66866058D02*
G01*
X109152652Y-66866058D01*
X109152652Y-66693536D01*
X109152579Y-66689887D01*
X109152362Y-66686336D01*
X109152005Y-66682885D01*
X109151510Y-66679535D01*
X109150882Y-66676286D01*
X109150122Y-66673141D01*
X109149235Y-66670100D01*
X109148224Y-66667164D01*
X109147091Y-66664335D01*
X109145840Y-66661613D01*
X109144474Y-66659001D01*
X109142997Y-66656498D01*
X109141412Y-66654106D01*
X109139721Y-66651826D01*
X109137929Y-66649660D01*
X109136038Y-66647608D01*
X109134051Y-66645672D01*
X109131972Y-66643852D01*
X109129804Y-66642150D01*
X109127551Y-66640568D01*
X109125214Y-66639105D01*
X109122799Y-66637764D01*
X109120307Y-66636544D01*
X109117742Y-66635449D01*
X109115108Y-66634478D01*
X109112407Y-66633633D01*
X109109643Y-66632915D01*
X109106819Y-66632324D01*
X109103938Y-66631863D01*
X109101003Y-66631533D01*
X109098018Y-66631334D01*
X109094986Y-66631267D01*
X109091955Y-66631334D01*
X109088974Y-66631533D01*
X109086047Y-66631863D01*
X109083175Y-66632324D01*
X109080363Y-66632915D01*
X109077612Y-66633633D01*
X109074927Y-66634478D01*
X109072310Y-66635449D01*
X109069764Y-66636544D01*
X109067293Y-66637764D01*
X109064898Y-66639105D01*
X109062584Y-66640568D01*
X109060354Y-66642150D01*
X109058209Y-66643852D01*
X109056155Y-66645672D01*
X109054192Y-66647608D01*
X109052325Y-66649660D01*
X109050557Y-66651826D01*
X109048890Y-66654106D01*
X109047327Y-66656498D01*
X109045872Y-66659001D01*
X109044528Y-66661613D01*
X109043297Y-66664335D01*
X109042184Y-66667164D01*
X109041189Y-66670100D01*
X109040318Y-66673141D01*
X109039572Y-66676286D01*
X109038955Y-66679535D01*
X109038470Y-66682885D01*
X109038120Y-66686336D01*
X109037907Y-66689887D01*
X109037836Y-66693536D01*
X109037836Y-66866058D01*
X108979575Y-66866058D01*
X108979575Y-66673534D01*
X108979723Y-66667467D01*
X108980163Y-66661581D01*
X108980882Y-66655877D01*
X108981871Y-66650356D01*
X108983119Y-66645019D01*
X108984615Y-66639866D01*
X108986349Y-66634899D01*
X108988310Y-66630117D01*
X108990488Y-66625521D01*
X108992872Y-66621113D01*
X108995452Y-66616893D01*
X108998216Y-66612862D01*
X109001155Y-66609020D01*
X109004258Y-66605368D01*
X109007514Y-66601908D01*
X109010913Y-66598639D01*
X109014444Y-66595562D01*
X109018097Y-66592679D01*
X109021861Y-66589990D01*
X109025725Y-66587495D01*
X109029679Y-66585195D01*
X109033713Y-66583092D01*
X109037816Y-66581186D01*
X109041976Y-66579477D01*
X109046185Y-66577966D01*
X109050431Y-66576654D01*
X109054703Y-66575543D01*
X109058992Y-66574631D01*
X109063285Y-66573921D01*
X109067574Y-66573413D01*
X109071848Y-66573108D01*
X109076095Y-66573006D01*
X109081823Y-66573140D01*
X109087440Y-66573543D01*
X109092944Y-66574215D01*
X109098331Y-66575154D01*
X109103597Y-66576362D01*
X109108740Y-66577838D01*
X109113755Y-66579582D01*
X109118640Y-66581593D01*
X109123390Y-66583872D01*
X109128004Y-66586418D01*
X109132477Y-66589231D01*
X109136805Y-66592311D01*
X109140987Y-66595657D01*
X109145017Y-66599270D01*
X109148893Y-66603150D01*
X109152612Y-66607296D01*
X109152414Y-66377783D01*
X109148322Y-66381562D01*
X109144184Y-66385170D01*
X109139992Y-66388596D01*
X109135740Y-66391830D01*
X109131421Y-66394863D01*
X109127028Y-66397684D01*
X109122555Y-66400284D01*
X109117995Y-66402652D01*
X109113340Y-66404779D01*
X109108585Y-66406654D01*
X109103723Y-66408269D01*
X109098746Y-66409612D01*
X109093649Y-66410674D01*
X109088423Y-66411444D01*
X109083064Y-66411914D01*
X109077563Y-66412073D01*
X109074272Y-66412026D01*
X109071038Y-66411888D01*
X109067860Y-66411660D01*
X109064739Y-66411343D01*
X109061673Y-66410941D01*
X109058664Y-66410454D01*
X109055711Y-66409884D01*
X109052814Y-66409235D01*
X109049972Y-66408506D01*
X109047186Y-66407701D01*
X109044456Y-66406821D01*
X109041782Y-66405867D01*
X109039163Y-66404843D01*
X109036600Y-66403750D01*
X109031640Y-66401362D01*
X109026900Y-66398720D01*
X109022381Y-66395839D01*
X109018081Y-66392734D01*
X109014000Y-66389419D01*
X109010138Y-66385910D01*
X109006493Y-66382223D01*
X109003066Y-66378371D01*
X108999855Y-66374370D01*
X108996988Y-66370535D01*
X108994379Y-66366671D01*
X108992018Y-66362698D01*
X108989895Y-66358533D01*
X108988000Y-66354096D01*
X108986322Y-66349306D01*
X108984851Y-66344082D01*
X108983578Y-66338343D01*
X108982492Y-66332008D01*
X108981584Y-66324995D01*
X108980843Y-66317224D01*
X108980260Y-66308614D01*
X108979524Y-66288551D01*
X108979297Y-66264158D01*
X108979297Y-66264118D01*
X109037598Y-66264118D01*
X109037643Y-66272463D01*
X109037828Y-66280757D01*
X109038223Y-66288931D01*
X109038901Y-66296918D01*
X109039934Y-66304653D01*
X109040606Y-66308404D01*
X109041394Y-66312066D01*
X109042307Y-66315632D01*
X109043353Y-66319092D01*
X109044542Y-66322439D01*
X109045882Y-66325663D01*
X109047384Y-66328757D01*
X109049055Y-66331713D01*
X109050904Y-66334521D01*
X109052942Y-66337173D01*
X109055176Y-66339662D01*
X109057615Y-66341978D01*
X109060270Y-66344113D01*
X109063148Y-66346059D01*
X109066258Y-66347808D01*
X109069611Y-66349350D01*
X109073214Y-66350679D01*
X109077076Y-66351784D01*
X109081208Y-66352659D01*
X109085617Y-66353294D01*
X109090312Y-66353681D01*
X109095303Y-66353812D01*
X109100244Y-66353674D01*
X109104892Y-66353269D01*
X109109257Y-66352605D01*
X109113347Y-66351691D01*
X109117171Y-66350539D01*
X109120738Y-66349156D01*
X109124058Y-66347554D01*
X109127138Y-66345741D01*
X109129988Y-66343727D01*
X109132616Y-66341522D01*
X109135032Y-66339135D01*
X109137245Y-66336577D01*
X109139263Y-66333856D01*
X109141095Y-66330982D01*
X109142751Y-66327965D01*
X109144238Y-66324815D01*
X109145566Y-66321541D01*
X109146745Y-66318153D01*
X109148686Y-66311072D01*
X109150134Y-66303650D01*
X109151159Y-66295964D01*
X109151832Y-66288091D01*
X109152225Y-66280107D01*
X109152453Y-66264118D01*
X109152414Y-66256139D01*
X109152247Y-66248105D01*
X109151879Y-66240094D01*
X109151237Y-66232185D01*
X109150246Y-66224457D01*
X109149596Y-66220685D01*
X109148833Y-66216988D01*
X109147945Y-66213376D01*
X109146924Y-66209857D01*
X109145761Y-66206443D01*
X109144446Y-66203143D01*
X109142971Y-66199967D01*
X109141326Y-66196924D01*
X109139502Y-66194025D01*
X109137489Y-66191280D01*
X109135279Y-66188697D01*
X109132862Y-66186287D01*
X109130230Y-66184061D01*
X109127372Y-66182026D01*
X109124280Y-66180195D01*
X109120945Y-66178575D01*
X109117356Y-66177178D01*
X109113506Y-66176013D01*
X109109385Y-66175090D01*
X109104984Y-66174418D01*
X109100293Y-66174008D01*
X109095303Y-66173869D01*
X109090312Y-66174001D01*
X109085617Y-66174393D01*
X109081208Y-66175036D01*
X109077076Y-66175920D01*
X109073214Y-66177038D01*
X109069611Y-66178382D01*
X109066258Y-66179941D01*
X109063148Y-66181708D01*
X109060270Y-66183675D01*
X109057615Y-66185832D01*
X109055176Y-66188171D01*
X109052942Y-66190683D01*
X109050904Y-66193360D01*
X109049055Y-66196194D01*
X109047384Y-66199175D01*
X109045882Y-66202295D01*
X109044542Y-66205545D01*
X109043353Y-66208918D01*
X109041394Y-66215994D01*
X109039934Y-66223455D01*
X109038901Y-66231231D01*
X109038223Y-66239254D01*
X109037828Y-66247455D01*
X109037598Y-66264118D01*
X108979297Y-66264118D01*
X108979352Y-66251373D01*
X108979524Y-66239741D01*
X108979823Y-66229181D01*
X108980260Y-66219614D01*
X108980843Y-66210961D01*
X108981584Y-66203142D01*
X108982492Y-66196078D01*
X108983578Y-66189689D01*
X108984851Y-66183896D01*
X108985561Y-66181198D01*
X108986322Y-66178619D01*
X108987134Y-66176149D01*
X108988000Y-66173779D01*
X108988920Y-66171498D01*
X108989895Y-66169296D01*
X108992018Y-66165092D01*
X108994379Y-66161085D01*
X108996988Y-66157198D01*
X108999855Y-66153350D01*
X109003072Y-66149349D01*
X109006505Y-66145497D01*
X109010153Y-66141809D01*
X109014017Y-66138301D01*
X109018099Y-66134986D01*
X109022398Y-66131881D01*
X109026917Y-66128999D01*
X109031655Y-66126358D01*
X109036613Y-66123970D01*
X109041793Y-66121852D01*
X109047194Y-66120019D01*
X109052819Y-66118485D01*
X109058668Y-66117266D01*
X109064740Y-66116377D01*
X109071039Y-66115832D01*
X109077563Y-66115647D01*
X109083101Y-66115806D01*
X109088563Y-66116274D01*
X109093941Y-66117042D01*
X109099226Y-66118099D01*
X109104410Y-66119433D01*
X109109485Y-66121034D01*
X109114443Y-66122891D01*
X109119275Y-66124993D01*
X109123972Y-66127330D01*
X109128528Y-66129890D01*
X109132933Y-66132663D01*
X109137180Y-66135638D01*
X109141259Y-66138804D01*
X109145164Y-66142151D01*
X109148885Y-66145667D01*
X109152414Y-66149342D01*
X109152414Y-66119060D01*
X109210913Y-66119060D01*
X109210913Y-66264118D01*
X109210913Y-66866058D01*
G37*
%TD.AperFunction*%
%TA.AperFunction,NonConductor*%
G36*
X102954446Y-71541099D02*
G01*
X103048586Y-72571623D01*
X102655305Y-72681652D01*
X102344975Y-72187684D01*
X102687130Y-72545470D01*
X102947667Y-72502361D01*
X102881889Y-71664880D01*
X102731856Y-71603063D01*
X102568661Y-71682855D01*
X102498444Y-71850548D01*
X102436071Y-71628285D01*
X102277228Y-71467519D01*
X102954446Y-71541099D01*
G37*
%TD.AperFunction*%
%TA.AperFunction,NonConductor*%
G36*
X107767796Y-66780968D02*
G01*
X107767686Y-66785646D01*
X107767357Y-66790249D01*
X107766811Y-66794772D01*
X107766050Y-66799210D01*
X107765076Y-66803558D01*
X107763891Y-66807812D01*
X107762497Y-66811966D01*
X107760896Y-66816017D01*
X107759090Y-66819958D01*
X107757081Y-66823786D01*
X107754871Y-66827495D01*
X107752461Y-66831081D01*
X107749855Y-66834539D01*
X107747054Y-66837864D01*
X107744059Y-66841052D01*
X107740873Y-66844096D01*
X107737498Y-66846994D01*
X107733936Y-66849739D01*
X107730189Y-66852328D01*
X107726258Y-66854754D01*
X107722146Y-66857014D01*
X107717855Y-66859103D01*
X107713387Y-66861016D01*
X107708743Y-66862748D01*
X107703926Y-66864294D01*
X107698938Y-66865649D01*
X107693780Y-66866809D01*
X107688455Y-66867769D01*
X107682965Y-66868524D01*
X107677311Y-66869069D01*
X107671496Y-66869400D01*
X107665522Y-66869511D01*
X107658357Y-66869404D01*
X107651630Y-66869080D01*
X107645325Y-66868537D01*
X107639425Y-66867773D01*
X107633912Y-66866784D01*
X107628770Y-66865568D01*
X107623983Y-66864124D01*
X107619534Y-66862447D01*
X107615405Y-66860536D01*
X107611581Y-66858388D01*
X107608044Y-66856001D01*
X107604777Y-66853371D01*
X107601765Y-66850497D01*
X107598990Y-66847375D01*
X107596435Y-66844004D01*
X107594084Y-66840381D01*
X107592973Y-66840381D01*
X107592973Y-66866098D01*
X107592933Y-66866098D01*
X107534672Y-66866098D01*
X107534672Y-66743265D01*
X107592933Y-66743265D01*
X107592933Y-66764418D01*
X107592982Y-66768536D01*
X107593131Y-66772426D01*
X107593382Y-66776094D01*
X107593739Y-66779546D01*
X107594204Y-66782789D01*
X107594781Y-66785830D01*
X107595471Y-66788674D01*
X107596278Y-66791329D01*
X107597205Y-66793800D01*
X107598254Y-66796094D01*
X107599429Y-66798217D01*
X107600731Y-66800176D01*
X107602165Y-66801977D01*
X107603732Y-66803627D01*
X107605436Y-66805131D01*
X107607280Y-66806497D01*
X107609266Y-66807730D01*
X107611397Y-66808838D01*
X107613676Y-66809826D01*
X107616106Y-66810701D01*
X107618690Y-66811469D01*
X107621430Y-66812137D01*
X107624329Y-66812710D01*
X107627391Y-66813197D01*
X107634011Y-66813932D01*
X107641315Y-66814394D01*
X107649324Y-66814634D01*
X107658060Y-66814702D01*
X107665171Y-66814505D01*
X107671732Y-66813928D01*
X107677756Y-66812992D01*
X107683256Y-66811720D01*
X107685814Y-66810965D01*
X107688244Y-66810134D01*
X107690550Y-66809229D01*
X107692733Y-66808254D01*
X107694794Y-66807211D01*
X107696735Y-66806104D01*
X107698558Y-66804934D01*
X107700263Y-66803704D01*
X107701853Y-66802417D01*
X107703329Y-66801077D01*
X107704692Y-66799685D01*
X107705945Y-66798244D01*
X107707089Y-66796757D01*
X107708125Y-66795227D01*
X107709055Y-66793657D01*
X107709880Y-66792049D01*
X107711224Y-66788730D01*
X107712168Y-66785293D01*
X107712725Y-66781759D01*
X107712908Y-66778150D01*
X107712862Y-66776189D01*
X107712720Y-66774272D01*
X107712485Y-66772402D01*
X107712154Y-66770578D01*
X107711728Y-66768802D01*
X107711206Y-66767076D01*
X107710588Y-66765400D01*
X107709874Y-66763775D01*
X107709062Y-66762204D01*
X107708152Y-66760686D01*
X107707145Y-66759223D01*
X107706040Y-66757816D01*
X107704835Y-66756467D01*
X107703532Y-66755176D01*
X107702128Y-66753945D01*
X107700625Y-66752775D01*
X107699021Y-66751667D01*
X107697317Y-66750622D01*
X107695511Y-66749641D01*
X107693603Y-66748725D01*
X107691594Y-66747876D01*
X107689481Y-66747095D01*
X107687266Y-66746383D01*
X107684947Y-66745741D01*
X107682525Y-66745170D01*
X107679998Y-66744672D01*
X107677367Y-66744247D01*
X107674630Y-66743896D01*
X107671788Y-66743622D01*
X107668840Y-66743424D01*
X107665786Y-66743305D01*
X107662624Y-66743265D01*
X107592933Y-66743265D01*
X107534672Y-66743265D01*
X107534672Y-66668454D01*
X107534815Y-66661899D01*
X107535241Y-66655617D01*
X107535945Y-66649604D01*
X107536922Y-66643855D01*
X107538168Y-66638368D01*
X107539677Y-66633137D01*
X107541444Y-66628157D01*
X107543464Y-66623426D01*
X107545734Y-66618937D01*
X107548246Y-66614688D01*
X107550998Y-66610674D01*
X107553983Y-66606890D01*
X107557197Y-66603333D01*
X107560635Y-66599997D01*
X107564292Y-66596880D01*
X107568163Y-66593976D01*
X107572243Y-66591280D01*
X107576528Y-66588790D01*
X107581012Y-66586501D01*
X107585690Y-66584408D01*
X107590558Y-66582507D01*
X107595610Y-66580793D01*
X107600842Y-66579263D01*
X107606249Y-66577913D01*
X107611825Y-66576737D01*
X107617567Y-66575732D01*
X107629525Y-66574216D01*
X107642083Y-66573332D01*
X107655203Y-66573045D01*
X107663210Y-66573181D01*
X107670952Y-66573595D01*
X107678431Y-66574300D01*
X107685651Y-66575307D01*
X107692612Y-66576629D01*
X107699318Y-66578278D01*
X107705772Y-66580264D01*
X107711976Y-66582600D01*
X107717932Y-66585298D01*
X107723644Y-66588370D01*
X107729113Y-66591827D01*
X107734342Y-66595682D01*
X107739334Y-66599946D01*
X107744092Y-66604631D01*
X107748617Y-66609750D01*
X107752913Y-66615313D01*
X107707193Y-66650158D01*
X107706218Y-66648638D01*
X107705217Y-66647181D01*
X107704188Y-66645784D01*
X107703129Y-66644448D01*
X107702038Y-66643172D01*
X107700913Y-66641954D01*
X107699752Y-66640795D01*
X107698551Y-66639691D01*
X107697310Y-66638644D01*
X107696026Y-66637652D01*
X107694696Y-66636714D01*
X107693319Y-66635828D01*
X107691892Y-66634995D01*
X107690413Y-66634214D01*
X107688880Y-66633482D01*
X107687290Y-66632800D01*
X107685642Y-66632167D01*
X107683933Y-66631581D01*
X107682161Y-66631041D01*
X107680324Y-66630548D01*
X107678419Y-66630099D01*
X107676445Y-66629694D01*
X107674399Y-66629332D01*
X107672278Y-66629012D01*
X107667807Y-66628494D01*
X107663013Y-66628134D01*
X107657878Y-66627923D01*
X107652385Y-66627854D01*
X107644844Y-66627970D01*
X107637856Y-66628325D01*
X107631413Y-66628932D01*
X107625505Y-66629802D01*
X107620122Y-66630946D01*
X107615256Y-66632377D01*
X107610898Y-66634105D01*
X107608906Y-66635085D01*
X107607037Y-66636144D01*
X107605291Y-66637283D01*
X107603665Y-66638504D01*
X107602160Y-66639808D01*
X107600773Y-66641196D01*
X107599504Y-66642671D01*
X107598351Y-66644234D01*
X107597314Y-66645886D01*
X107596390Y-66647628D01*
X107595580Y-66649462D01*
X107594881Y-66651390D01*
X107594293Y-66653413D01*
X107593815Y-66655532D01*
X107593445Y-66657749D01*
X107593182Y-66660065D01*
X107592973Y-66665002D01*
X107592973Y-66695283D01*
X107673538Y-66695283D01*
X107679284Y-66695398D01*
X107684852Y-66695737D01*
X107690243Y-66696296D01*
X107695455Y-66697068D01*
X107700490Y-66698048D01*
X107705345Y-66699228D01*
X107710022Y-66700604D01*
X107714519Y-66702169D01*
X107718837Y-66703918D01*
X107722975Y-66705844D01*
X107726932Y-66707941D01*
X107730709Y-66710203D01*
X107734305Y-66712625D01*
X107737720Y-66715200D01*
X107740953Y-66717923D01*
X107744004Y-66720787D01*
X107746872Y-66723787D01*
X107749558Y-66726916D01*
X107752061Y-66730168D01*
X107754381Y-66733538D01*
X107756517Y-66737020D01*
X107758469Y-66740607D01*
X107760236Y-66744294D01*
X107761819Y-66748074D01*
X107763218Y-66751942D01*
X107764430Y-66755892D01*
X107765457Y-66759917D01*
X107766298Y-66764012D01*
X107766953Y-66768170D01*
X107767421Y-66772387D01*
X107767702Y-66776655D01*
X107767735Y-66778150D01*
X107767796Y-66780968D01*
G37*
%TD.AperFunction*%
%TA.AperFunction,NonConductor*%
G36*
X107273438Y-66701896D02*
G01*
X107273980Y-66711785D01*
X107274163Y-66722112D01*
X107273963Y-66732989D01*
X107273373Y-66743349D01*
X107272406Y-66753202D01*
X107271078Y-66762561D01*
X107269403Y-66771436D01*
X107267395Y-66779839D01*
X107265068Y-66787780D01*
X107262438Y-66795272D01*
X107259518Y-66802325D01*
X107256323Y-66808952D01*
X107252868Y-66815162D01*
X107249166Y-66820968D01*
X107245232Y-66826380D01*
X107241081Y-66831411D01*
X107236727Y-66836070D01*
X107232184Y-66840371D01*
X107227467Y-66844323D01*
X107222590Y-66847938D01*
X107217568Y-66851228D01*
X107212415Y-66854204D01*
X107207146Y-66856877D01*
X107201774Y-66859258D01*
X107190782Y-66863190D01*
X107179555Y-66866091D01*
X107168208Y-66868051D01*
X107156856Y-66869161D01*
X107145615Y-66869511D01*
X107138352Y-66869349D01*
X107131140Y-66868858D01*
X107123989Y-66868029D01*
X107116908Y-66866854D01*
X107109908Y-66865324D01*
X107102999Y-66863431D01*
X107096190Y-66861167D01*
X107089492Y-66858523D01*
X107082915Y-66855490D01*
X107076467Y-66852061D01*
X107070160Y-66848226D01*
X107064004Y-66843978D01*
X107058007Y-66839308D01*
X107052181Y-66834207D01*
X107046535Y-66828667D01*
X107041078Y-66822680D01*
X107083346Y-66786684D01*
X107086639Y-66789922D01*
X107090080Y-66792981D01*
X107093657Y-66795857D01*
X107097357Y-66798546D01*
X107101167Y-66801043D01*
X107105074Y-66803345D01*
X107109067Y-66805447D01*
X107113131Y-66807346D01*
X107117255Y-66809036D01*
X107121426Y-66810515D01*
X107125632Y-66811777D01*
X107129858Y-66812820D01*
X107134094Y-66813637D01*
X107138325Y-66814227D01*
X107142541Y-66814583D01*
X107146727Y-66814703D01*
X107150445Y-66814633D01*
X107154095Y-66814422D01*
X107157675Y-66814070D01*
X107161181Y-66813579D01*
X107164610Y-66812947D01*
X107167958Y-66812175D01*
X107171223Y-66811263D01*
X107174400Y-66810211D01*
X107177486Y-66809019D01*
X107180479Y-66807688D01*
X107183374Y-66806217D01*
X107186169Y-66804607D01*
X107188860Y-66802857D01*
X107191444Y-66800969D01*
X107193917Y-66798941D01*
X107196276Y-66796774D01*
X107198518Y-66794469D01*
X107200640Y-66792024D01*
X107202638Y-66789441D01*
X107204508Y-66786720D01*
X107206248Y-66783860D01*
X107207854Y-66780862D01*
X107209323Y-66777726D01*
X107210652Y-66774452D01*
X107211837Y-66771040D01*
X107212874Y-66767491D01*
X107213761Y-66763803D01*
X107214494Y-66759978D01*
X107215070Y-66756016D01*
X107215486Y-66751916D01*
X107215738Y-66747679D01*
X107215822Y-66743305D01*
X107035443Y-66743305D01*
X107035443Y-66695283D01*
X107093664Y-66695283D01*
X107215902Y-66695283D01*
X107215726Y-66691220D01*
X107215409Y-66687279D01*
X107214954Y-66683459D01*
X107214363Y-66679760D01*
X107213640Y-66676184D01*
X107212787Y-66672731D01*
X107211808Y-66669401D01*
X107210705Y-66666196D01*
X107209482Y-66663114D01*
X107208140Y-66660158D01*
X107206684Y-66657328D01*
X107205116Y-66654623D01*
X107203439Y-66652046D01*
X107201657Y-66649595D01*
X107199771Y-66647273D01*
X107197784Y-66645078D01*
X107195701Y-66643012D01*
X107193523Y-66641076D01*
X107191255Y-66639270D01*
X107188897Y-66637594D01*
X107186454Y-66636049D01*
X107183929Y-66634636D01*
X107181324Y-66633354D01*
X107178643Y-66632206D01*
X107175887Y-66631190D01*
X107173061Y-66630308D01*
X107170167Y-66629560D01*
X107167209Y-66628948D01*
X107164188Y-66628470D01*
X107161108Y-66628128D01*
X107157972Y-66627922D01*
X107154783Y-66627854D01*
X107151596Y-66627922D01*
X107148465Y-66628128D01*
X107145392Y-66628470D01*
X107142382Y-66628948D01*
X107139435Y-66629560D01*
X107136556Y-66630308D01*
X107133745Y-66631190D01*
X107131007Y-66632206D01*
X107128343Y-66633354D01*
X107125757Y-66634636D01*
X107123250Y-66636049D01*
X107120826Y-66637594D01*
X107118486Y-66639270D01*
X107116235Y-66641076D01*
X107114073Y-66643012D01*
X107112005Y-66645078D01*
X107110032Y-66647273D01*
X107108157Y-66649595D01*
X107106382Y-66652046D01*
X107104711Y-66654623D01*
X107103146Y-66657328D01*
X107101689Y-66660158D01*
X107100344Y-66663114D01*
X107099112Y-66666196D01*
X107097996Y-66669401D01*
X107097000Y-66672731D01*
X107096125Y-66676184D01*
X107095374Y-66679760D01*
X107094750Y-66683459D01*
X107094255Y-66687279D01*
X107093892Y-66691220D01*
X107093664Y-66695283D01*
X107035443Y-66695283D01*
X107035604Y-66688350D01*
X107036081Y-66681582D01*
X107036865Y-66674981D01*
X107037948Y-66668552D01*
X107039322Y-66662298D01*
X107040977Y-66656222D01*
X107042906Y-66650329D01*
X107045099Y-66644623D01*
X107047548Y-66639106D01*
X107050244Y-66633782D01*
X107053179Y-66628656D01*
X107056345Y-66623731D01*
X107059732Y-66619010D01*
X107063332Y-66614497D01*
X107067136Y-66610196D01*
X107071137Y-66606110D01*
X107075325Y-66602244D01*
X107079691Y-66598601D01*
X107084228Y-66595184D01*
X107088926Y-66591997D01*
X107093777Y-66589044D01*
X107098773Y-66586329D01*
X107103904Y-66583854D01*
X107109163Y-66581625D01*
X107114540Y-66579644D01*
X107120028Y-66577916D01*
X107125617Y-66576443D01*
X107131299Y-66575230D01*
X107137065Y-66574280D01*
X107142907Y-66573597D01*
X107148816Y-66573184D01*
X107154783Y-66573046D01*
X107165352Y-66573484D01*
X107175991Y-66574836D01*
X107181304Y-66575873D01*
X107186595Y-66577161D01*
X107191852Y-66578705D01*
X107197061Y-66580515D01*
X107202210Y-66582597D01*
X107207285Y-66584957D01*
X107212275Y-66587604D01*
X107217165Y-66590544D01*
X107221943Y-66593786D01*
X107226595Y-66597335D01*
X107231110Y-66601199D01*
X107235473Y-66605386D01*
X107239672Y-66609903D01*
X107243694Y-66614756D01*
X107247527Y-66619953D01*
X107251156Y-66625502D01*
X107254569Y-66631409D01*
X107257754Y-66637682D01*
X107260697Y-66644328D01*
X107263385Y-66651353D01*
X107265805Y-66658767D01*
X107267945Y-66666575D01*
X107269791Y-66674784D01*
X107271330Y-66683403D01*
X107272550Y-66692438D01*
X107272817Y-66695283D01*
X107273438Y-66701896D01*
G37*
%TD.AperFunction*%
%TA.AperFunction,NonConductor*%
G36*
X106959113Y-66244457D02*
G01*
X106959655Y-66254346D01*
X106959838Y-66264673D01*
X106959638Y-66275547D01*
X106959048Y-66285903D01*
X106958081Y-66295754D01*
X106956753Y-66305110D01*
X106955078Y-66313982D01*
X106953070Y-66322382D01*
X106950743Y-66330321D01*
X106948113Y-66337811D01*
X106945193Y-66344862D01*
X106941998Y-66351486D01*
X106938543Y-66357695D01*
X106934841Y-66363499D01*
X106930907Y-66368910D01*
X106926756Y-66373940D01*
X106922402Y-66378598D01*
X106917859Y-66382898D01*
X106913142Y-66386849D01*
X106908265Y-66390463D01*
X106903243Y-66393753D01*
X106898090Y-66396728D01*
X106892821Y-66399400D01*
X106887449Y-66401781D01*
X106876457Y-66405712D01*
X106865230Y-66408613D01*
X106853883Y-66410573D01*
X106842531Y-66411683D01*
X106831290Y-66412033D01*
X106824027Y-66411871D01*
X106816814Y-66411380D01*
X106809660Y-66410551D01*
X106802578Y-66409376D01*
X106795575Y-66407846D01*
X106788664Y-66405953D01*
X106781853Y-66403689D01*
X106775152Y-66401045D01*
X106768573Y-66398012D01*
X106762125Y-66394583D01*
X106755818Y-66390748D01*
X106749662Y-66386500D01*
X106743667Y-66381830D01*
X106737844Y-66376729D01*
X106732203Y-66371189D01*
X106726753Y-66365202D01*
X106769021Y-66329245D01*
X106772313Y-66332477D01*
X106775753Y-66335531D01*
X106779329Y-66338404D01*
X106783026Y-66341091D01*
X106786834Y-66343587D01*
X106790739Y-66345889D01*
X106794729Y-66347992D01*
X106798791Y-66349892D01*
X106802914Y-66351585D01*
X106807084Y-66353066D01*
X106811289Y-66354331D01*
X106815516Y-66355376D01*
X106819754Y-66356195D01*
X106823989Y-66356786D01*
X106828209Y-66357144D01*
X106832402Y-66357264D01*
X106836120Y-66357194D01*
X106839770Y-66356983D01*
X106843350Y-66356632D01*
X106846856Y-66356140D01*
X106850285Y-66355508D01*
X106853633Y-66354736D01*
X106856898Y-66353824D01*
X106860075Y-66352772D01*
X106863161Y-66351580D01*
X106866154Y-66350248D01*
X106869049Y-66348777D01*
X106871844Y-66347166D01*
X106874535Y-66345416D01*
X106877119Y-66343527D01*
X106879592Y-66341498D01*
X106881951Y-66339331D01*
X106884193Y-66337024D01*
X106886315Y-66334579D01*
X106888313Y-66331995D01*
X106890183Y-66329272D01*
X106891923Y-66326411D01*
X106893529Y-66323411D01*
X106894998Y-66320273D01*
X106896327Y-66316997D01*
X106897512Y-66313583D01*
X106898549Y-66310031D01*
X106899436Y-66306341D01*
X106900169Y-66302513D01*
X106900745Y-66298548D01*
X106901161Y-66294445D01*
X106901413Y-66290205D01*
X106901497Y-66285827D01*
X106721078Y-66285827D01*
X106721078Y-66237884D01*
X106779339Y-66237884D01*
X106901577Y-66237884D01*
X106901401Y-66233819D01*
X106901084Y-66229874D01*
X106900629Y-66226051D01*
X106900038Y-66222350D01*
X106899315Y-66218773D01*
X106898462Y-66215318D01*
X106897483Y-66211987D01*
X106896380Y-66208780D01*
X106895157Y-66205699D01*
X106893815Y-66202742D01*
X106892359Y-66199912D01*
X106890791Y-66197208D01*
X106889114Y-66194630D01*
X106887331Y-66192180D01*
X106885445Y-66189858D01*
X106883459Y-66187665D01*
X106881376Y-66185600D01*
X106879198Y-66183665D01*
X106876929Y-66181860D01*
X106874572Y-66180185D01*
X106872129Y-66178642D01*
X106869604Y-66177229D01*
X106866999Y-66175949D01*
X106864318Y-66174802D01*
X106861562Y-66173787D01*
X106858736Y-66172906D01*
X106855842Y-66172160D01*
X106852884Y-66171548D01*
X106849863Y-66171070D01*
X106846783Y-66170729D01*
X106843647Y-66170524D01*
X106840458Y-66170455D01*
X106837271Y-66170524D01*
X106834140Y-66170729D01*
X106831068Y-66171070D01*
X106828058Y-66171548D01*
X106825113Y-66172160D01*
X106822234Y-66172906D01*
X106819425Y-66173787D01*
X106816688Y-66174802D01*
X106814025Y-66175949D01*
X106811440Y-66177229D01*
X106808934Y-66178642D01*
X106806511Y-66180185D01*
X106804173Y-66181860D01*
X106801923Y-66183665D01*
X106799762Y-66185600D01*
X106797695Y-66187665D01*
X106795722Y-66189859D01*
X106793848Y-66192180D01*
X106792074Y-66194630D01*
X106790404Y-66197208D01*
X106788839Y-66199912D01*
X106787382Y-66202742D01*
X106786036Y-66205699D01*
X106784804Y-66208781D01*
X106783687Y-66211987D01*
X106782689Y-66215318D01*
X106781813Y-66218773D01*
X106781060Y-66222350D01*
X106780434Y-66226051D01*
X106779936Y-66229874D01*
X106779571Y-66233819D01*
X106779339Y-66237884D01*
X106721078Y-66237884D01*
X106721078Y-66237845D01*
X106721239Y-66230908D01*
X106721716Y-66224136D01*
X106722501Y-66217532D01*
X106723585Y-66211100D01*
X106724960Y-66204843D01*
X106726616Y-66198765D01*
X106728546Y-66192870D01*
X106730740Y-66187161D01*
X106733191Y-66181642D01*
X106735888Y-66176317D01*
X106738825Y-66171189D01*
X106741992Y-66166262D01*
X106745381Y-66161540D01*
X106748983Y-66157026D01*
X106752790Y-66152724D01*
X106756792Y-66148637D01*
X106760982Y-66144770D01*
X106765350Y-66141126D01*
X106769888Y-66137708D01*
X106774588Y-66134521D01*
X106779441Y-66131567D01*
X106784439Y-66128852D01*
X106789572Y-66126377D01*
X106794832Y-66124147D01*
X106800210Y-66122166D01*
X106805699Y-66120438D01*
X106811289Y-66118965D01*
X106816972Y-66117752D01*
X106822739Y-66116802D01*
X106828581Y-66116118D01*
X106834491Y-66115706D01*
X106840458Y-66115567D01*
X106851027Y-66116006D01*
X106861666Y-66117360D01*
X106866978Y-66118398D01*
X106872270Y-66119686D01*
X106877527Y-66121232D01*
X106882736Y-66123043D01*
X106887885Y-66125126D01*
X106892960Y-66127488D01*
X106897950Y-66130137D01*
X106902840Y-66133079D01*
X106907617Y-66136322D01*
X106912270Y-66139873D01*
X106916785Y-66143739D01*
X106921148Y-66147928D01*
X106925347Y-66152446D01*
X106929369Y-66157301D01*
X106933202Y-66162500D01*
X106936831Y-66168051D01*
X106940244Y-66173960D01*
X106943429Y-66180234D01*
X106946372Y-66186881D01*
X106949060Y-66193909D01*
X106951480Y-66201323D01*
X106953620Y-66209132D01*
X106955466Y-66217343D01*
X106957005Y-66225963D01*
X106958225Y-66234998D01*
X106958496Y-66237884D01*
X106959113Y-66244457D01*
G37*
%TD.AperFunction*%
D11*
%TO.P,PR1,1,Pin_1*%
%TO.N,Net-(D1-K)*%
X96750000Y-70500000D03*
%TD*%
%TO.P,PC2,1,Pin_1*%
%TO.N,Net-(PC1-Pin_1)*%
X110000000Y-73250000D03*
%TD*%
D12*
%TO.P,SW1,1,1*%
%TO.N,Net-(PC1-Pin_1)*%
X111290000Y-59920000D03*
%TO.P,SW1,2,2*%
%TO.N,Net-(D1-A)*%
X97440000Y-62460000D03*
%TD*%
D11*
%TO.P,PC1,1,Pin_1*%
%TO.N,Net-(PC1-Pin_1)*%
X110000000Y-56750000D03*
%TD*%
%TO.P,PR2,1,Pin_1*%
%TO.N,Net-(D1-K)*%
X113250000Y-70500000D03*
%TD*%
D13*
%TO.P,D1,1,K*%
%TO.N,Net-(D1-K)*%
X97500000Y-67800000D03*
%TO.P,D1,2,A*%
%TO.N,Net-(D1-A)*%
X97500000Y-64500000D03*
%TD*%
D14*
%TO.N,Net-(D1-A)*%
X97500000Y-62520000D02*
X97440000Y-62460000D01*
X97500000Y-64500000D02*
X97500000Y-62520000D01*
%TO.N,Net-(D1-K)*%
X96750000Y-70500000D02*
X96750000Y-69350000D01*
X96750000Y-69350000D02*
X97500000Y-68600000D01*
X97500000Y-68600000D02*
X97500000Y-67800000D01*
%TO.N,Net-(PC1-Pin_1)*%
X111556900Y-60186900D02*
X111556900Y-71693100D01*
X111290000Y-59920000D02*
X111290000Y-58040000D01*
X111290000Y-59920000D02*
X111556900Y-60186900D01*
X111556900Y-71693100D02*
X110000000Y-73250000D01*
X111290000Y-58040000D02*
X110000000Y-56750000D01*
%TD*%
M02*
