%TF.GenerationSoftware,KiCad,Pcbnew,9.0.5*%
%TF.CreationDate,2025-10-08T11:55:14+08:00*%
%TF.ProjectId,snowshoe-choc,736e6f77-7368-46f6-952d-63686f632e6b,rev?*%
%TF.SameCoordinates,Original*%
%TF.FileFunction,Soldermask,Bot*%
%TF.FilePolarity,Negative*%
%FSLAX46Y46*%
G04 Gerber Fmt 4.6, Leading zero omitted, Abs format (unit mm)*
G04 Created by KiCad (PCBNEW 9.0.5) date 2025-10-08 11:55:14*
%MOMM*%
%LPD*%
G01*
G04 APERTURE LIST*
G04 Aperture macros list*
%AMRoundRect*
0 Rectangle with rounded corners*
0 $1 Rounding radius*
0 $2 $3 $4 $5 $6 $7 $8 $9 X,Y pos of 4 corners*
0 Add a 4 corners polygon primitive as box body*
4,1,4,$2,$3,$4,$5,$6,$7,$8,$9,$2,$3,0*
0 Add four circle primitives for the rounded corners*
1,1,$1+$1,$2,$3*
1,1,$1+$1,$4,$5*
1,1,$1+$1,$6,$7*
1,1,$1+$1,$8,$9*
0 Add four rect primitives between the rounded corners*
20,1,$1+$1,$2,$3,$4,$5,0*
20,1,$1+$1,$4,$5,$6,$7,0*
20,1,$1+$1,$6,$7,$8,$9,0*
20,1,$1+$1,$8,$9,$2,$3,0*%
G04 Aperture macros list end*
%ADD10C,0.000000*%
%ADD11C,1.400000*%
%ADD12C,1.701800*%
%ADD13C,3.000000*%
%ADD14C,3.429000*%
%ADD15C,0.990600*%
%ADD16R,2.500000X2.600000*%
%ADD17RoundRect,0.225000X0.375000X-0.225000X0.375000X0.225000X-0.375000X0.225000X-0.375000X-0.225000X0*%
G04 APERTURE END LIST*
D10*
G36*
X111048724Y-69187433D02*
G01*
X110990463Y-69187433D01*
X110990463Y-69014911D01*
X110990390Y-69011262D01*
X110990173Y-69007711D01*
X110989816Y-69004260D01*
X110989321Y-69000910D01*
X110988693Y-68997661D01*
X110987933Y-68994516D01*
X110987046Y-68991475D01*
X110986035Y-68988539D01*
X110984902Y-68985710D01*
X110983651Y-68982988D01*
X110982285Y-68980376D01*
X110980808Y-68977873D01*
X110979223Y-68975481D01*
X110977532Y-68973201D01*
X110975740Y-68971035D01*
X110973849Y-68968983D01*
X110971862Y-68967047D01*
X110969783Y-68965227D01*
X110967615Y-68963525D01*
X110965362Y-68961943D01*
X110963025Y-68960480D01*
X110960610Y-68959139D01*
X110958118Y-68957919D01*
X110955553Y-68956824D01*
X110952919Y-68955853D01*
X110950218Y-68955008D01*
X110947454Y-68954290D01*
X110944630Y-68953699D01*
X110941749Y-68953238D01*
X110938814Y-68952908D01*
X110935829Y-68952709D01*
X110932797Y-68952642D01*
X110929766Y-68952709D01*
X110926785Y-68952908D01*
X110923858Y-68953238D01*
X110920986Y-68953699D01*
X110918174Y-68954290D01*
X110915423Y-68955008D01*
X110912738Y-68955853D01*
X110910121Y-68956824D01*
X110907575Y-68957919D01*
X110905104Y-68959139D01*
X110902709Y-68960480D01*
X110900395Y-68961943D01*
X110898165Y-68963525D01*
X110896020Y-68965227D01*
X110893966Y-68967047D01*
X110892003Y-68968983D01*
X110890136Y-68971035D01*
X110888368Y-68973201D01*
X110886701Y-68975481D01*
X110885138Y-68977873D01*
X110883683Y-68980376D01*
X110882339Y-68982988D01*
X110881108Y-68985710D01*
X110879995Y-68988539D01*
X110879000Y-68991475D01*
X110878129Y-68994516D01*
X110877383Y-68997661D01*
X110876766Y-69000910D01*
X110876281Y-69004260D01*
X110875931Y-69007711D01*
X110875718Y-69011262D01*
X110875647Y-69014911D01*
X110875647Y-69187433D01*
X110817386Y-69187433D01*
X110817386Y-68994909D01*
X110817534Y-68988842D01*
X110817974Y-68982956D01*
X110818693Y-68977252D01*
X110819682Y-68971731D01*
X110820930Y-68966394D01*
X110822426Y-68961241D01*
X110824160Y-68956274D01*
X110826121Y-68951492D01*
X110828299Y-68946896D01*
X110830683Y-68942488D01*
X110833263Y-68938268D01*
X110836027Y-68934237D01*
X110838966Y-68930395D01*
X110842069Y-68926743D01*
X110845325Y-68923283D01*
X110848724Y-68920014D01*
X110852255Y-68916937D01*
X110855908Y-68914054D01*
X110859672Y-68911365D01*
X110863536Y-68908870D01*
X110867490Y-68906570D01*
X110871524Y-68904467D01*
X110875627Y-68902561D01*
X110879787Y-68900852D01*
X110883996Y-68899341D01*
X110888242Y-68898029D01*
X110892514Y-68896918D01*
X110896803Y-68896006D01*
X110901096Y-68895296D01*
X110905385Y-68894788D01*
X110909659Y-68894483D01*
X110913906Y-68894381D01*
X110919634Y-68894515D01*
X110925251Y-68894918D01*
X110930755Y-68895590D01*
X110936142Y-68896529D01*
X110941408Y-68897737D01*
X110946551Y-68899213D01*
X110951566Y-68900957D01*
X110956451Y-68902968D01*
X110961201Y-68905247D01*
X110965815Y-68907793D01*
X110970288Y-68910606D01*
X110974616Y-68913686D01*
X110978798Y-68917032D01*
X110982828Y-68920645D01*
X110986704Y-68924525D01*
X110990423Y-68928671D01*
X110990225Y-68699158D01*
X110986133Y-68702937D01*
X110981995Y-68706545D01*
X110977803Y-68709971D01*
X110973551Y-68713205D01*
X110969232Y-68716238D01*
X110964839Y-68719059D01*
X110960366Y-68721659D01*
X110955806Y-68724027D01*
X110951151Y-68726154D01*
X110946396Y-68728029D01*
X110941534Y-68729644D01*
X110936557Y-68730987D01*
X110931460Y-68732049D01*
X110926234Y-68732819D01*
X110920875Y-68733289D01*
X110915374Y-68733448D01*
X110912083Y-68733401D01*
X110908849Y-68733263D01*
X110905671Y-68733035D01*
X110902550Y-68732718D01*
X110899484Y-68732316D01*
X110896475Y-68731829D01*
X110893522Y-68731259D01*
X110890625Y-68730610D01*
X110887783Y-68729881D01*
X110884997Y-68729076D01*
X110882267Y-68728196D01*
X110879593Y-68727242D01*
X110876974Y-68726218D01*
X110874411Y-68725125D01*
X110869451Y-68722737D01*
X110864711Y-68720095D01*
X110860192Y-68717214D01*
X110855892Y-68714109D01*
X110851811Y-68710794D01*
X110847949Y-68707285D01*
X110844304Y-68703598D01*
X110840877Y-68699746D01*
X110837666Y-68695745D01*
X110834799Y-68691910D01*
X110832190Y-68688046D01*
X110829829Y-68684073D01*
X110827706Y-68679908D01*
X110825811Y-68675471D01*
X110824133Y-68670681D01*
X110822662Y-68665457D01*
X110821389Y-68659718D01*
X110820303Y-68653383D01*
X110819395Y-68646370D01*
X110818654Y-68638599D01*
X110818071Y-68629989D01*
X110817335Y-68609926D01*
X110817108Y-68585533D01*
X110817108Y-68585493D01*
X110875409Y-68585493D01*
X110875454Y-68593838D01*
X110875639Y-68602132D01*
X110876034Y-68610306D01*
X110876712Y-68618293D01*
X110877745Y-68626028D01*
X110878417Y-68629779D01*
X110879205Y-68633441D01*
X110880118Y-68637007D01*
X110881164Y-68640467D01*
X110882353Y-68643814D01*
X110883693Y-68647038D01*
X110885195Y-68650132D01*
X110886866Y-68653088D01*
X110888715Y-68655896D01*
X110890753Y-68658548D01*
X110892987Y-68661037D01*
X110895426Y-68663353D01*
X110898081Y-68665488D01*
X110900959Y-68667434D01*
X110904069Y-68669183D01*
X110907422Y-68670725D01*
X110911025Y-68672054D01*
X110914887Y-68673159D01*
X110919019Y-68674034D01*
X110923428Y-68674669D01*
X110928123Y-68675056D01*
X110933114Y-68675187D01*
X110938055Y-68675049D01*
X110942703Y-68674644D01*
X110947068Y-68673980D01*
X110951158Y-68673066D01*
X110954982Y-68671914D01*
X110958549Y-68670531D01*
X110961869Y-68668929D01*
X110964949Y-68667116D01*
X110967799Y-68665102D01*
X110970427Y-68662897D01*
X110972843Y-68660510D01*
X110975056Y-68657952D01*
X110977074Y-68655231D01*
X110978906Y-68652357D01*
X110980562Y-68649340D01*
X110982049Y-68646190D01*
X110983377Y-68642916D01*
X110984556Y-68639528D01*
X110986497Y-68632447D01*
X110987945Y-68625025D01*
X110988970Y-68617339D01*
X110989643Y-68609466D01*
X110990036Y-68601482D01*
X110990264Y-68585493D01*
X110990225Y-68577514D01*
X110990058Y-68569480D01*
X110989690Y-68561469D01*
X110989048Y-68553560D01*
X110988057Y-68545832D01*
X110987407Y-68542060D01*
X110986644Y-68538363D01*
X110985756Y-68534751D01*
X110984735Y-68531232D01*
X110983572Y-68527818D01*
X110982257Y-68524518D01*
X110980782Y-68521342D01*
X110979137Y-68518299D01*
X110977313Y-68515400D01*
X110975300Y-68512655D01*
X110973090Y-68510072D01*
X110970673Y-68507662D01*
X110968041Y-68505436D01*
X110965183Y-68503401D01*
X110962091Y-68501570D01*
X110958756Y-68499950D01*
X110955167Y-68498553D01*
X110951317Y-68497388D01*
X110947196Y-68496465D01*
X110942795Y-68495793D01*
X110938104Y-68495383D01*
X110933114Y-68495244D01*
X110928123Y-68495376D01*
X110923428Y-68495768D01*
X110919019Y-68496411D01*
X110914887Y-68497295D01*
X110911025Y-68498413D01*
X110907422Y-68499757D01*
X110904069Y-68501316D01*
X110900959Y-68503083D01*
X110898081Y-68505050D01*
X110895426Y-68507207D01*
X110892987Y-68509546D01*
X110890753Y-68512058D01*
X110888715Y-68514735D01*
X110886866Y-68517569D01*
X110885195Y-68520550D01*
X110883693Y-68523670D01*
X110882353Y-68526920D01*
X110881164Y-68530293D01*
X110879205Y-68537369D01*
X110877745Y-68544830D01*
X110876712Y-68552606D01*
X110876034Y-68560629D01*
X110875639Y-68568830D01*
X110875409Y-68585493D01*
X110817108Y-68585493D01*
X110817163Y-68572748D01*
X110817335Y-68561116D01*
X110817634Y-68550556D01*
X110818071Y-68540989D01*
X110818654Y-68532336D01*
X110819395Y-68524517D01*
X110820303Y-68517453D01*
X110821389Y-68511064D01*
X110822662Y-68505271D01*
X110823372Y-68502573D01*
X110824133Y-68499994D01*
X110824945Y-68497524D01*
X110825811Y-68495154D01*
X110826731Y-68492873D01*
X110827706Y-68490671D01*
X110829829Y-68486467D01*
X110832190Y-68482460D01*
X110834799Y-68478573D01*
X110837666Y-68474725D01*
X110840883Y-68470724D01*
X110844316Y-68466872D01*
X110847964Y-68463184D01*
X110851828Y-68459676D01*
X110855910Y-68456361D01*
X110860209Y-68453256D01*
X110864728Y-68450374D01*
X110869466Y-68447733D01*
X110874424Y-68445345D01*
X110879604Y-68443227D01*
X110885005Y-68441394D01*
X110890630Y-68439860D01*
X110896479Y-68438641D01*
X110902551Y-68437752D01*
X110908850Y-68437207D01*
X110915374Y-68437022D01*
X110920912Y-68437181D01*
X110926374Y-68437649D01*
X110931752Y-68438417D01*
X110937037Y-68439474D01*
X110942221Y-68440808D01*
X110947296Y-68442409D01*
X110952254Y-68444266D01*
X110957086Y-68446368D01*
X110961783Y-68448705D01*
X110966339Y-68451265D01*
X110970744Y-68454038D01*
X110974991Y-68457013D01*
X110979070Y-68460179D01*
X110982975Y-68463526D01*
X110986696Y-68467042D01*
X110990225Y-68470717D01*
X110990225Y-68440435D01*
X111048724Y-68440435D01*
X111048724Y-68585493D01*
X111048724Y-69187433D01*
G37*
G36*
X109605607Y-69102343D02*
G01*
X109605497Y-69107021D01*
X109605168Y-69111624D01*
X109604622Y-69116147D01*
X109603861Y-69120585D01*
X109602887Y-69124933D01*
X109601702Y-69129187D01*
X109600308Y-69133341D01*
X109598707Y-69137392D01*
X109596901Y-69141333D01*
X109594892Y-69145161D01*
X109592682Y-69148870D01*
X109590272Y-69152456D01*
X109587666Y-69155914D01*
X109584865Y-69159239D01*
X109581870Y-69162427D01*
X109578684Y-69165471D01*
X109575309Y-69168369D01*
X109571747Y-69171114D01*
X109568000Y-69173703D01*
X109564069Y-69176129D01*
X109559957Y-69178389D01*
X109555666Y-69180478D01*
X109551198Y-69182391D01*
X109546554Y-69184123D01*
X109541737Y-69185669D01*
X109536749Y-69187024D01*
X109531591Y-69188184D01*
X109526266Y-69189144D01*
X109520776Y-69189899D01*
X109515122Y-69190444D01*
X109509307Y-69190775D01*
X109503333Y-69190886D01*
X109496168Y-69190779D01*
X109489441Y-69190455D01*
X109483136Y-69189912D01*
X109477236Y-69189148D01*
X109471723Y-69188159D01*
X109466581Y-69186943D01*
X109461794Y-69185499D01*
X109457345Y-69183822D01*
X109453216Y-69181911D01*
X109449392Y-69179763D01*
X109445855Y-69177376D01*
X109442588Y-69174746D01*
X109439576Y-69171872D01*
X109436801Y-69168750D01*
X109434246Y-69165379D01*
X109431895Y-69161756D01*
X109430784Y-69161756D01*
X109430784Y-69187473D01*
X109430744Y-69187473D01*
X109372483Y-69187473D01*
X109372483Y-69064640D01*
X109430744Y-69064640D01*
X109430744Y-69085793D01*
X109430793Y-69089911D01*
X109430942Y-69093801D01*
X109431193Y-69097469D01*
X109431550Y-69100921D01*
X109432015Y-69104164D01*
X109432592Y-69107205D01*
X109433282Y-69110049D01*
X109434089Y-69112704D01*
X109435016Y-69115175D01*
X109436065Y-69117469D01*
X109437240Y-69119592D01*
X109438542Y-69121551D01*
X109439976Y-69123352D01*
X109441543Y-69125002D01*
X109443247Y-69126506D01*
X109445091Y-69127872D01*
X109447077Y-69129105D01*
X109449208Y-69130213D01*
X109451487Y-69131201D01*
X109453917Y-69132076D01*
X109456501Y-69132844D01*
X109459241Y-69133512D01*
X109462140Y-69134085D01*
X109465202Y-69134572D01*
X109471822Y-69135307D01*
X109479126Y-69135769D01*
X109487135Y-69136009D01*
X109495871Y-69136077D01*
X109502982Y-69135880D01*
X109509543Y-69135303D01*
X109515567Y-69134367D01*
X109521067Y-69133095D01*
X109523625Y-69132340D01*
X109526055Y-69131509D01*
X109528361Y-69130604D01*
X109530544Y-69129629D01*
X109532605Y-69128586D01*
X109534546Y-69127479D01*
X109536369Y-69126309D01*
X109538074Y-69125079D01*
X109539664Y-69123792D01*
X109541140Y-69122452D01*
X109542503Y-69121060D01*
X109543756Y-69119619D01*
X109544900Y-69118132D01*
X109545936Y-69116602D01*
X109546866Y-69115032D01*
X109547691Y-69113424D01*
X109549035Y-69110105D01*
X109549979Y-69106668D01*
X109550536Y-69103134D01*
X109550719Y-69099525D01*
X109550673Y-69097564D01*
X109550531Y-69095647D01*
X109550296Y-69093777D01*
X109549965Y-69091953D01*
X109549539Y-69090177D01*
X109549017Y-69088451D01*
X109548399Y-69086775D01*
X109547685Y-69085150D01*
X109546873Y-69083579D01*
X109545963Y-69082061D01*
X109544956Y-69080598D01*
X109543851Y-69079191D01*
X109542646Y-69077842D01*
X109541343Y-69076551D01*
X109539939Y-69075320D01*
X109538436Y-69074150D01*
X109536832Y-69073042D01*
X109535128Y-69071997D01*
X109533322Y-69071016D01*
X109531414Y-69070100D01*
X109529405Y-69069251D01*
X109527292Y-69068470D01*
X109525077Y-69067758D01*
X109522758Y-69067116D01*
X109520336Y-69066545D01*
X109517809Y-69066047D01*
X109515178Y-69065622D01*
X109512441Y-69065271D01*
X109509599Y-69064997D01*
X109506651Y-69064799D01*
X109503597Y-69064680D01*
X109500435Y-69064640D01*
X109430744Y-69064640D01*
X109372483Y-69064640D01*
X109372483Y-68989829D01*
X109372626Y-68983274D01*
X109373052Y-68976992D01*
X109373756Y-68970979D01*
X109374733Y-68965230D01*
X109375979Y-68959743D01*
X109377488Y-68954512D01*
X109379255Y-68949532D01*
X109381275Y-68944801D01*
X109383545Y-68940312D01*
X109386057Y-68936063D01*
X109388809Y-68932049D01*
X109391794Y-68928265D01*
X109395008Y-68924708D01*
X109398446Y-68921372D01*
X109402103Y-68918255D01*
X109405974Y-68915351D01*
X109410054Y-68912655D01*
X109414339Y-68910165D01*
X109418823Y-68907876D01*
X109423501Y-68905783D01*
X109428369Y-68903882D01*
X109433421Y-68902168D01*
X109438653Y-68900638D01*
X109444060Y-68899288D01*
X109449636Y-68898112D01*
X109455378Y-68897107D01*
X109467336Y-68895591D01*
X109479894Y-68894707D01*
X109493014Y-68894420D01*
X109501021Y-68894556D01*
X109508763Y-68894970D01*
X109516242Y-68895675D01*
X109523462Y-68896682D01*
X109530423Y-68898004D01*
X109537129Y-68899653D01*
X109543583Y-68901639D01*
X109549787Y-68903975D01*
X109555743Y-68906673D01*
X109561455Y-68909745D01*
X109566924Y-68913202D01*
X109572153Y-68917057D01*
X109577145Y-68921321D01*
X109581903Y-68926006D01*
X109586428Y-68931125D01*
X109590724Y-68936688D01*
X109545004Y-68971533D01*
X109544029Y-68970013D01*
X109543028Y-68968556D01*
X109541999Y-68967159D01*
X109540940Y-68965823D01*
X109539849Y-68964547D01*
X109538724Y-68963329D01*
X109537563Y-68962170D01*
X109536362Y-68961066D01*
X109535121Y-68960019D01*
X109533837Y-68959027D01*
X109532507Y-68958089D01*
X109531130Y-68957203D01*
X109529703Y-68956370D01*
X109528224Y-68955589D01*
X109526691Y-68954857D01*
X109525101Y-68954175D01*
X109523453Y-68953542D01*
X109521744Y-68952956D01*
X109519972Y-68952416D01*
X109518135Y-68951923D01*
X109516230Y-68951474D01*
X109514256Y-68951069D01*
X109512210Y-68950707D01*
X109510089Y-68950387D01*
X109505618Y-68949869D01*
X109500824Y-68949509D01*
X109495689Y-68949298D01*
X109490196Y-68949229D01*
X109482655Y-68949345D01*
X109475667Y-68949700D01*
X109469224Y-68950307D01*
X109463316Y-68951177D01*
X109457933Y-68952321D01*
X109453067Y-68953752D01*
X109448709Y-68955480D01*
X109446717Y-68956460D01*
X109444848Y-68957519D01*
X109443102Y-68958658D01*
X109441476Y-68959879D01*
X109439971Y-68961183D01*
X109438584Y-68962571D01*
X109437315Y-68964046D01*
X109436162Y-68965609D01*
X109435125Y-68967261D01*
X109434201Y-68969003D01*
X109433391Y-68970837D01*
X109432692Y-68972765D01*
X109432104Y-68974788D01*
X109431626Y-68976907D01*
X109431256Y-68979124D01*
X109430993Y-68981440D01*
X109430784Y-68986377D01*
X109430784Y-69016658D01*
X109511349Y-69016658D01*
X109517095Y-69016773D01*
X109522663Y-69017112D01*
X109528054Y-69017671D01*
X109533266Y-69018443D01*
X109538301Y-69019423D01*
X109543156Y-69020603D01*
X109547833Y-69021979D01*
X109552330Y-69023544D01*
X109556648Y-69025293D01*
X109560786Y-69027219D01*
X109564743Y-69029316D01*
X109568520Y-69031578D01*
X109572116Y-69034000D01*
X109575531Y-69036575D01*
X109578764Y-69039298D01*
X109581815Y-69042162D01*
X109584683Y-69045162D01*
X109587369Y-69048291D01*
X109589872Y-69051543D01*
X109592192Y-69054913D01*
X109594328Y-69058395D01*
X109596280Y-69061982D01*
X109598047Y-69065669D01*
X109599630Y-69069449D01*
X109601029Y-69073317D01*
X109602241Y-69077267D01*
X109603268Y-69081292D01*
X109604109Y-69085387D01*
X109604764Y-69089545D01*
X109605232Y-69093762D01*
X109605513Y-69098030D01*
X109605546Y-69099525D01*
X109605607Y-69102343D01*
G37*
G36*
X109727130Y-69100637D02*
G01*
X109728321Y-69100637D01*
X109794004Y-68897873D01*
X109836271Y-68897873D01*
X109901954Y-69100637D01*
X109903105Y-69100637D01*
X109958508Y-68897873D01*
X110020183Y-68897873D01*
X109927671Y-69187473D01*
X109876236Y-69187473D01*
X109815713Y-68984670D01*
X109814562Y-68984670D01*
X109753999Y-69187473D01*
X109702564Y-69187473D01*
X109610052Y-68897873D01*
X109671766Y-68897873D01*
X109727130Y-69100637D01*
G37*
G36*
X111336906Y-68596272D02*
G01*
X111336578Y-68606754D01*
X111336025Y-68616442D01*
X111335240Y-68625394D01*
X111334217Y-68633666D01*
X111332952Y-68641317D01*
X111331437Y-68648404D01*
X111329667Y-68654986D01*
X111327636Y-68661119D01*
X111325338Y-68666861D01*
X111322768Y-68672270D01*
X111319919Y-68677404D01*
X111316786Y-68682320D01*
X111313362Y-68687077D01*
X111309643Y-68691731D01*
X111305621Y-68696340D01*
X111302493Y-68699674D01*
X111299099Y-68703016D01*
X111295429Y-68706337D01*
X111291471Y-68709605D01*
X111287216Y-68712790D01*
X111282651Y-68715860D01*
X111277767Y-68718784D01*
X111272552Y-68721532D01*
X111269817Y-68722830D01*
X111266995Y-68724072D01*
X111264086Y-68725254D01*
X111261087Y-68726374D01*
X111257997Y-68727426D01*
X111254815Y-68728406D01*
X111251540Y-68729312D01*
X111248170Y-68730139D01*
X111244704Y-68730883D01*
X111241140Y-68731540D01*
X111237477Y-68732107D01*
X111233714Y-68732579D01*
X111229850Y-68732953D01*
X111225883Y-68733225D01*
X111221811Y-68733391D01*
X111217634Y-68733448D01*
X111209386Y-68733225D01*
X111201555Y-68732579D01*
X111194132Y-68731540D01*
X111187104Y-68730139D01*
X111180461Y-68728406D01*
X111174192Y-68726374D01*
X111168286Y-68724072D01*
X111162731Y-68721531D01*
X111157518Y-68718784D01*
X111152634Y-68715860D01*
X111148070Y-68712790D01*
X111143813Y-68709605D01*
X111139854Y-68706337D01*
X111136180Y-68703016D01*
X111132781Y-68699674D01*
X111129647Y-68696340D01*
X111125625Y-68691731D01*
X111121904Y-68687077D01*
X111118478Y-68682320D01*
X111115343Y-68677404D01*
X111112491Y-68672270D01*
X111109917Y-68666861D01*
X111107616Y-68661119D01*
X111105581Y-68654986D01*
X111103808Y-68648404D01*
X111102289Y-68641317D01*
X111101020Y-68633666D01*
X111099995Y-68625394D01*
X111099207Y-68616442D01*
X111098652Y-68606754D01*
X111098323Y-68596272D01*
X111098219Y-68585493D01*
X111156515Y-68585493D01*
X111156683Y-68599780D01*
X111156902Y-68605984D01*
X111157218Y-68611628D01*
X111157639Y-68616763D01*
X111158169Y-68621439D01*
X111158814Y-68625706D01*
X111159581Y-68629615D01*
X111160476Y-68633217D01*
X111161503Y-68636560D01*
X111162670Y-68639697D01*
X111163983Y-68642676D01*
X111165446Y-68645549D01*
X111167067Y-68648366D01*
X111168850Y-68651178D01*
X111170803Y-68654033D01*
X111171635Y-68655148D01*
X111172522Y-68656246D01*
X111174457Y-68658383D01*
X111176597Y-68660436D01*
X111178929Y-68662395D01*
X111181442Y-68664250D01*
X111184124Y-68665993D01*
X111186963Y-68667615D01*
X111189947Y-68669105D01*
X111193065Y-68670454D01*
X111196304Y-68671654D01*
X111199653Y-68672695D01*
X111203100Y-68673567D01*
X111206634Y-68674262D01*
X111210242Y-68674769D01*
X111213912Y-68675081D01*
X111217634Y-68675187D01*
X111221356Y-68675081D01*
X111225026Y-68674771D01*
X111228634Y-68674265D01*
X111232168Y-68673573D01*
X111235615Y-68672703D01*
X111238964Y-68671664D01*
X111242203Y-68670467D01*
X111245321Y-68669120D01*
X111248305Y-68667631D01*
X111251144Y-68666011D01*
X111253826Y-68664268D01*
X111256339Y-68662412D01*
X111258671Y-68660451D01*
X111260811Y-68658395D01*
X111262746Y-68656253D01*
X111264465Y-68654033D01*
X111266418Y-68651177D01*
X111268201Y-68648365D01*
X111269822Y-68645546D01*
X111271285Y-68642668D01*
X111272598Y-68639680D01*
X111273765Y-68636531D01*
X111274792Y-68633170D01*
X111275687Y-68629546D01*
X111276454Y-68625607D01*
X111277099Y-68621303D01*
X111277629Y-68616583D01*
X111278050Y-68611394D01*
X111278366Y-68605686D01*
X111278585Y-68599408D01*
X111278712Y-68592509D01*
X111278753Y-68584937D01*
X111278583Y-68570489D01*
X111278363Y-68564236D01*
X111278044Y-68558562D01*
X111277621Y-68553413D01*
X111277089Y-68548737D01*
X111276441Y-68544480D01*
X111275672Y-68540592D01*
X111274776Y-68537018D01*
X111273747Y-68533706D01*
X111272580Y-68530604D01*
X111271269Y-68527659D01*
X111269807Y-68524818D01*
X111268190Y-68522030D01*
X111266411Y-68519240D01*
X111264465Y-68516397D01*
X111263633Y-68515282D01*
X111262746Y-68514184D01*
X111260812Y-68512047D01*
X111258674Y-68509994D01*
X111256344Y-68508035D01*
X111253834Y-68506180D01*
X111251154Y-68504437D01*
X111248318Y-68502816D01*
X111245336Y-68501326D01*
X111242220Y-68499976D01*
X111238982Y-68498776D01*
X111235633Y-68497736D01*
X111232184Y-68496863D01*
X111228649Y-68496169D01*
X111225038Y-68495661D01*
X111221362Y-68495349D01*
X111217634Y-68495243D01*
X111213906Y-68495349D01*
X111210230Y-68495659D01*
X111206619Y-68496165D01*
X111203084Y-68496858D01*
X111199635Y-68497728D01*
X111196286Y-68498766D01*
X111193048Y-68499963D01*
X111189932Y-68501311D01*
X111186950Y-68502799D01*
X111184114Y-68504419D01*
X111181434Y-68506162D01*
X111178924Y-68508019D01*
X111176594Y-68509979D01*
X111174456Y-68512035D01*
X111172522Y-68514178D01*
X111170803Y-68516397D01*
X111168850Y-68519246D01*
X111167067Y-68522053D01*
X111165446Y-68524870D01*
X111163983Y-68527746D01*
X111162670Y-68530733D01*
X111161503Y-68533882D01*
X111160476Y-68537244D01*
X111159581Y-68540869D01*
X111158814Y-68544810D01*
X111158169Y-68549116D01*
X111157639Y-68553840D01*
X111157218Y-68559031D01*
X111156902Y-68564740D01*
X111156683Y-68571020D01*
X111156556Y-68577921D01*
X111156515Y-68585493D01*
X111098219Y-68585493D01*
X111098214Y-68584937D01*
X111098322Y-68573609D01*
X111098650Y-68563144D01*
X111099204Y-68553484D01*
X111099989Y-68544568D01*
X111101012Y-68536338D01*
X111102279Y-68528735D01*
X111103795Y-68521699D01*
X111105566Y-68515171D01*
X111107599Y-68509092D01*
X111109900Y-68503403D01*
X111112473Y-68498044D01*
X111115326Y-68492956D01*
X111118464Y-68488080D01*
X111121892Y-68483356D01*
X111125618Y-68478726D01*
X111129647Y-68474130D01*
X111132775Y-68470795D01*
X111136169Y-68467451D01*
X111139839Y-68464129D01*
X111143797Y-68460858D01*
X111148052Y-68457670D01*
X111152617Y-68454597D01*
X111157501Y-68451670D01*
X111162716Y-68448918D01*
X111165451Y-68447618D01*
X111168273Y-68446374D01*
X111171182Y-68445190D01*
X111174181Y-68444069D01*
X111177271Y-68443015D01*
X111180453Y-68442033D01*
X111183728Y-68441126D01*
X111187098Y-68440297D01*
X111190564Y-68439552D01*
X111194128Y-68438894D01*
X111197791Y-68438326D01*
X111201554Y-68437852D01*
X111205418Y-68437478D01*
X111209385Y-68437205D01*
X111213457Y-68437039D01*
X111217634Y-68436982D01*
X111225883Y-68437205D01*
X111233714Y-68437852D01*
X111241140Y-68438894D01*
X111248170Y-68440297D01*
X111254815Y-68442033D01*
X111261087Y-68444069D01*
X111266995Y-68446374D01*
X111272552Y-68448918D01*
X111277767Y-68451670D01*
X111282651Y-68454597D01*
X111287216Y-68457671D01*
X111291471Y-68460858D01*
X111295429Y-68464129D01*
X111299099Y-68467451D01*
X111302493Y-68470795D01*
X111305621Y-68474130D01*
X111309643Y-68478738D01*
X111313362Y-68483390D01*
X111316786Y-68488142D01*
X111319919Y-68493051D01*
X111322768Y-68498173D01*
X111325338Y-68503567D01*
X111327636Y-68509288D01*
X111329667Y-68515395D01*
X111331437Y-68521943D01*
X111332952Y-68528990D01*
X111334217Y-68536593D01*
X111335240Y-68544808D01*
X111336025Y-68553693D01*
X111336578Y-68563305D01*
X111336906Y-68573701D01*
X111337014Y-68584937D01*
X111336906Y-68596272D01*
G37*
G36*
X110777131Y-68565832D02*
G01*
X110777673Y-68575721D01*
X110777857Y-68586048D01*
X110777657Y-68596922D01*
X110777066Y-68607278D01*
X110776100Y-68617129D01*
X110774772Y-68626485D01*
X110773097Y-68635357D01*
X110771089Y-68643757D01*
X110768762Y-68651696D01*
X110766132Y-68659186D01*
X110763213Y-68666237D01*
X110760018Y-68672861D01*
X110756563Y-68679070D01*
X110752861Y-68684874D01*
X110748928Y-68690285D01*
X110744778Y-68695315D01*
X110740424Y-68699973D01*
X110735882Y-68704273D01*
X110731166Y-68708224D01*
X110726291Y-68711838D01*
X110721270Y-68715128D01*
X110716118Y-68718103D01*
X110710850Y-68720775D01*
X110705480Y-68723156D01*
X110694493Y-68727087D01*
X110683270Y-68729988D01*
X110671928Y-68731948D01*
X110660583Y-68733058D01*
X110649349Y-68733408D01*
X110642086Y-68733246D01*
X110634874Y-68732755D01*
X110627722Y-68731926D01*
X110620642Y-68730751D01*
X110613642Y-68729221D01*
X110606732Y-68727328D01*
X110599924Y-68725064D01*
X110593226Y-68722420D01*
X110586648Y-68719387D01*
X110580201Y-68715958D01*
X110573894Y-68712123D01*
X110567737Y-68707875D01*
X110561740Y-68703205D01*
X110555914Y-68698104D01*
X110550268Y-68692564D01*
X110544812Y-68686577D01*
X110587079Y-68650620D01*
X110590372Y-68653852D01*
X110593812Y-68656906D01*
X110597387Y-68659779D01*
X110601084Y-68662466D01*
X110604892Y-68664962D01*
X110608797Y-68667264D01*
X110612787Y-68669367D01*
X110616850Y-68671267D01*
X110620972Y-68672960D01*
X110625142Y-68674441D01*
X110629347Y-68675706D01*
X110633575Y-68676751D01*
X110637812Y-68677570D01*
X110642047Y-68678161D01*
X110646267Y-68678519D01*
X110650460Y-68678639D01*
X110654178Y-68678569D01*
X110657829Y-68678358D01*
X110661410Y-68678007D01*
X110664916Y-68677515D01*
X110668346Y-68676883D01*
X110671696Y-68676111D01*
X110674961Y-68675199D01*
X110678140Y-68674147D01*
X110681227Y-68672955D01*
X110684222Y-68671623D01*
X110687119Y-68670152D01*
X110689915Y-68668541D01*
X110692608Y-68666791D01*
X110695193Y-68664902D01*
X110697668Y-68662873D01*
X110700030Y-68660706D01*
X110702274Y-68658399D01*
X110704397Y-68655954D01*
X110706397Y-68653370D01*
X110708269Y-68650647D01*
X110710011Y-68647786D01*
X110711618Y-68644786D01*
X110713089Y-68641648D01*
X110714419Y-68638372D01*
X110715605Y-68634958D01*
X110716644Y-68631406D01*
X110717532Y-68627716D01*
X110718266Y-68623888D01*
X110718843Y-68619923D01*
X110719259Y-68615820D01*
X110719511Y-68611580D01*
X110719596Y-68607202D01*
X110539097Y-68607202D01*
X110539097Y-68559259D01*
X110597358Y-68559259D01*
X110719596Y-68559259D01*
X110719416Y-68555194D01*
X110719096Y-68551249D01*
X110718637Y-68547426D01*
X110718044Y-68543725D01*
X110717318Y-68540148D01*
X110716463Y-68536693D01*
X110715481Y-68533362D01*
X110714377Y-68530155D01*
X110713151Y-68527074D01*
X110711809Y-68524117D01*
X110710351Y-68521287D01*
X110708782Y-68518583D01*
X110707105Y-68516005D01*
X110705321Y-68513555D01*
X110703435Y-68511233D01*
X110701448Y-68509040D01*
X110699365Y-68506975D01*
X110697188Y-68505040D01*
X110694920Y-68503235D01*
X110692563Y-68501560D01*
X110690121Y-68500017D01*
X110687597Y-68498604D01*
X110684994Y-68497324D01*
X110682314Y-68496177D01*
X110679561Y-68495162D01*
X110676737Y-68494281D01*
X110673846Y-68493535D01*
X110670889Y-68492923D01*
X110667872Y-68492445D01*
X110664795Y-68492104D01*
X110661662Y-68491899D01*
X110658477Y-68491830D01*
X110655293Y-68491899D01*
X110652165Y-68492104D01*
X110649095Y-68492445D01*
X110646087Y-68492923D01*
X110643142Y-68493535D01*
X110640264Y-68494281D01*
X110637455Y-68495162D01*
X110634718Y-68496177D01*
X110632055Y-68497324D01*
X110629468Y-68498604D01*
X110626962Y-68500017D01*
X110624537Y-68501560D01*
X110622197Y-68503235D01*
X110619945Y-68505040D01*
X110617783Y-68506975D01*
X110615714Y-68509040D01*
X110613739Y-68511234D01*
X110611863Y-68513555D01*
X110610088Y-68516005D01*
X110608416Y-68518583D01*
X110606849Y-68521287D01*
X110605391Y-68524117D01*
X110604044Y-68527074D01*
X110602811Y-68530156D01*
X110601695Y-68533362D01*
X110600697Y-68536693D01*
X110599821Y-68540148D01*
X110599069Y-68543725D01*
X110598445Y-68547426D01*
X110597949Y-68551249D01*
X110597586Y-68555194D01*
X110597358Y-68559259D01*
X110539097Y-68559259D01*
X110539097Y-68559220D01*
X110539258Y-68552283D01*
X110539735Y-68545511D01*
X110540519Y-68538907D01*
X110541602Y-68532475D01*
X110542976Y-68526218D01*
X110544632Y-68520140D01*
X110546560Y-68514245D01*
X110548753Y-68508536D01*
X110551203Y-68503017D01*
X110553899Y-68497692D01*
X110556835Y-68492564D01*
X110560001Y-68487637D01*
X110563388Y-68482915D01*
X110566989Y-68478401D01*
X110570794Y-68474099D01*
X110574796Y-68470012D01*
X110578985Y-68466145D01*
X110583352Y-68462501D01*
X110587890Y-68459083D01*
X110592590Y-68455896D01*
X110597442Y-68452942D01*
X110602440Y-68450227D01*
X110607573Y-68447752D01*
X110612834Y-68445522D01*
X110618213Y-68443541D01*
X110623703Y-68441813D01*
X110629295Y-68440340D01*
X110634979Y-68439127D01*
X110640748Y-68438177D01*
X110646593Y-68437493D01*
X110652506Y-68437081D01*
X110658477Y-68436942D01*
X110669046Y-68437381D01*
X110679684Y-68438735D01*
X110684997Y-68439773D01*
X110690288Y-68441061D01*
X110695545Y-68442607D01*
X110700755Y-68444418D01*
X110705904Y-68446501D01*
X110710979Y-68448863D01*
X110715968Y-68451512D01*
X110720858Y-68454454D01*
X110725636Y-68457697D01*
X110730289Y-68461248D01*
X110734803Y-68465114D01*
X110739166Y-68469303D01*
X110743366Y-68473821D01*
X110747388Y-68478676D01*
X110751220Y-68483875D01*
X110754850Y-68489426D01*
X110758263Y-68495335D01*
X110761448Y-68501609D01*
X110764391Y-68508256D01*
X110767079Y-68515284D01*
X110769499Y-68522698D01*
X110771639Y-68530507D01*
X110773485Y-68538718D01*
X110775024Y-68547338D01*
X110776244Y-68556373D01*
X110776515Y-68559259D01*
X110777131Y-68565832D01*
G37*
G36*
X109179376Y-68894554D02*
G01*
X109184992Y-68894956D01*
X109190490Y-68895626D01*
X109195867Y-68896563D01*
X109201117Y-68897769D01*
X109206235Y-68899242D01*
X109211216Y-68900983D01*
X109216054Y-68902993D01*
X109220746Y-68905270D01*
X109225286Y-68907815D01*
X109229669Y-68910628D01*
X109233890Y-68913708D01*
X109237944Y-68917057D01*
X109241826Y-68920673D01*
X109245531Y-68924558D01*
X109249055Y-68928710D01*
X109250205Y-68928710D01*
X109250205Y-68897873D01*
X109308467Y-68897873D01*
X109308467Y-69187473D01*
X109308427Y-69187473D01*
X109250166Y-69187473D01*
X109250166Y-69013245D01*
X109250085Y-69009356D01*
X109249845Y-69005605D01*
X109249451Y-69001993D01*
X109248908Y-68998518D01*
X109248221Y-68995179D01*
X109247396Y-68991975D01*
X109246436Y-68988904D01*
X109245348Y-68985967D01*
X109244136Y-68983161D01*
X109242805Y-68980486D01*
X109241360Y-68977941D01*
X109239806Y-68975525D01*
X109238149Y-68973236D01*
X109236393Y-68971075D01*
X109234543Y-68969039D01*
X109232604Y-68967128D01*
X109230582Y-68965340D01*
X109228481Y-68963675D01*
X109226306Y-68962132D01*
X109224063Y-68960710D01*
X109221756Y-68959407D01*
X109219390Y-68958223D01*
X109216971Y-68957156D01*
X109214503Y-68956206D01*
X109209441Y-68954652D01*
X109204246Y-68953552D01*
X109198956Y-68952898D01*
X109193611Y-68952681D01*
X109190880Y-68952729D01*
X109188256Y-68952874D01*
X109185727Y-68953119D01*
X109183280Y-68953468D01*
X109180901Y-68953925D01*
X109178576Y-68954492D01*
X109176292Y-68955173D01*
X109174035Y-68955971D01*
X109171793Y-68956889D01*
X109169551Y-68957931D01*
X109167296Y-68959100D01*
X109165014Y-68960400D01*
X109162692Y-68961833D01*
X109160317Y-68963404D01*
X109157875Y-68965114D01*
X109155352Y-68966969D01*
X109113085Y-68916685D01*
X109116425Y-68914178D01*
X109119809Y-68911797D01*
X109123241Y-68909546D01*
X109126723Y-68907430D01*
X109130259Y-68905454D01*
X109133852Y-68903623D01*
X109137506Y-68901943D01*
X109141224Y-68900418D01*
X109145008Y-68899053D01*
X109148863Y-68897855D01*
X109152791Y-68896826D01*
X109156796Y-68895973D01*
X109160881Y-68895301D01*
X109165049Y-68894815D01*
X109169304Y-68894520D01*
X109173648Y-68894420D01*
X109179376Y-68894554D01*
G37*
G36*
X110084891Y-66271529D02*
G01*
X110085503Y-66271574D01*
X110086111Y-66271649D01*
X110086716Y-66271753D01*
X110087317Y-66271884D01*
X110087911Y-66272043D01*
X110088500Y-66272228D01*
X110089081Y-66272439D01*
X110090217Y-66272935D01*
X110091312Y-66273525D01*
X110092359Y-66274202D01*
X110093351Y-66274961D01*
X110094281Y-66275796D01*
X110095140Y-66276701D01*
X110095921Y-66277670D01*
X110096280Y-66278176D01*
X110096618Y-66278696D01*
X110096932Y-66279229D01*
X110097222Y-66279775D01*
X110097487Y-66280331D01*
X110097726Y-66280899D01*
X110097939Y-66281476D01*
X110098124Y-66282063D01*
X110098280Y-66282658D01*
X110098407Y-66283261D01*
X110149445Y-66557501D01*
X110149731Y-66558719D01*
X110150124Y-66559941D01*
X110150617Y-66561159D01*
X110151202Y-66562365D01*
X110151874Y-66563551D01*
X110152625Y-66564710D01*
X110153448Y-66565833D01*
X110154336Y-66566912D01*
X110155283Y-66567940D01*
X110156282Y-66568908D01*
X110157326Y-66569809D01*
X110158408Y-66570634D01*
X110159521Y-66571375D01*
X110160658Y-66572025D01*
X110161813Y-66572576D01*
X110162978Y-66573019D01*
X110346811Y-66648267D01*
X110347957Y-66648768D01*
X110349172Y-66649187D01*
X110350445Y-66649523D01*
X110351765Y-66649779D01*
X110353121Y-66649953D01*
X110354503Y-66650049D01*
X110355901Y-66650065D01*
X110357303Y-66650003D01*
X110358699Y-66649864D01*
X110360078Y-66649649D01*
X110361431Y-66649358D01*
X110362745Y-66648992D01*
X110364010Y-66648553D01*
X110365216Y-66648040D01*
X110366353Y-66647455D01*
X110367409Y-66646798D01*
X110596524Y-66489556D01*
X110597042Y-66489220D01*
X110597575Y-66488909D01*
X110598123Y-66488625D01*
X110598683Y-66488367D01*
X110599255Y-66488134D01*
X110599838Y-66487927D01*
X110601030Y-66487591D01*
X110602251Y-66487356D01*
X110603491Y-66487222D01*
X110604740Y-66487189D01*
X110605990Y-66487255D01*
X110607230Y-66487419D01*
X110608452Y-66487681D01*
X110609645Y-66488041D01*
X110610801Y-66488496D01*
X110611910Y-66489047D01*
X110612443Y-66489358D01*
X110612962Y-66489692D01*
X110613464Y-66490050D01*
X110613949Y-66490431D01*
X110614414Y-66490835D01*
X110614860Y-66491263D01*
X110807821Y-66684224D01*
X110808245Y-66684669D01*
X110808646Y-66685135D01*
X110809025Y-66685619D01*
X110809380Y-66686122D01*
X110809713Y-66686640D01*
X110810022Y-66687174D01*
X110810308Y-66687722D01*
X110810571Y-66688283D01*
X110810810Y-66688856D01*
X110811025Y-66689439D01*
X110811385Y-66690632D01*
X110811648Y-66691854D01*
X110811814Y-66693094D01*
X110811882Y-66694343D01*
X110811851Y-66695593D01*
X110811720Y-66696833D01*
X110811616Y-66697446D01*
X110811487Y-66698053D01*
X110811333Y-66698654D01*
X110811153Y-66699246D01*
X110810947Y-66699829D01*
X110810715Y-66700401D01*
X110810458Y-66700961D01*
X110810174Y-66701508D01*
X110809864Y-66702041D01*
X110809527Y-66702559D01*
X110655024Y-66927746D01*
X110654368Y-66928808D01*
X110653786Y-66929948D01*
X110653277Y-66931155D01*
X110652844Y-66932420D01*
X110652486Y-66933731D01*
X110652205Y-66935079D01*
X110652000Y-66936453D01*
X110651873Y-66937842D01*
X110651825Y-66939236D01*
X110651857Y-66940625D01*
X110651968Y-66941998D01*
X110652161Y-66943345D01*
X110652435Y-66944656D01*
X110652791Y-66945920D01*
X110653230Y-66947126D01*
X110653754Y-66948265D01*
X110735034Y-67137891D01*
X110735249Y-67138475D01*
X110735492Y-67139057D01*
X110735762Y-67139636D01*
X110736057Y-67140211D01*
X110736722Y-67141348D01*
X110737478Y-67142461D01*
X110738316Y-67143542D01*
X110739230Y-67144585D01*
X110740210Y-67145583D01*
X110741250Y-67146528D01*
X110742340Y-67147415D01*
X110743472Y-67148235D01*
X110744639Y-67148983D01*
X110745833Y-67149651D01*
X110747045Y-67150232D01*
X110748267Y-67150719D01*
X110748880Y-67150925D01*
X110749492Y-67151106D01*
X110750102Y-67151259D01*
X110750710Y-67151385D01*
X111015862Y-67200677D01*
X111016465Y-67200807D01*
X111017060Y-67200966D01*
X111017647Y-67201154D01*
X111018224Y-67201369D01*
X111018792Y-67201610D01*
X111019349Y-67201877D01*
X111019894Y-67202168D01*
X111020427Y-67202483D01*
X111020947Y-67202821D01*
X111021454Y-67203181D01*
X111021945Y-67203562D01*
X111022422Y-67203964D01*
X111022883Y-67204384D01*
X111023327Y-67204823D01*
X111023754Y-67205279D01*
X111024162Y-67205752D01*
X111024551Y-67206241D01*
X111024921Y-67206744D01*
X111025270Y-67207261D01*
X111025599Y-67207792D01*
X111025905Y-67208334D01*
X111026188Y-67208888D01*
X111026448Y-67209452D01*
X111026684Y-67210025D01*
X111026895Y-67210607D01*
X111027080Y-67211197D01*
X111027239Y-67211793D01*
X111027370Y-67212396D01*
X111027474Y-67213003D01*
X111027549Y-67213614D01*
X111027595Y-67214229D01*
X111027610Y-67214845D01*
X111027610Y-67487737D01*
X111027594Y-67488354D01*
X111027549Y-67488968D01*
X111027473Y-67489580D01*
X111027369Y-67490188D01*
X111027236Y-67490791D01*
X111027076Y-67491389D01*
X111026890Y-67491979D01*
X111026678Y-67492562D01*
X111026441Y-67493137D01*
X111026179Y-67493702D01*
X111025586Y-67494801D01*
X111024905Y-67495851D01*
X111024142Y-67496845D01*
X111023303Y-67497776D01*
X111022395Y-67498636D01*
X111021423Y-67499418D01*
X111020915Y-67499778D01*
X111020394Y-67500115D01*
X111019859Y-67500430D01*
X111019313Y-67500720D01*
X111018755Y-67500985D01*
X111018186Y-67501225D01*
X111017608Y-67501437D01*
X111017021Y-67501622D01*
X111016426Y-67501778D01*
X111015823Y-67501905D01*
X110757179Y-67550046D01*
X110756572Y-67550172D01*
X110755963Y-67550326D01*
X110754743Y-67550716D01*
X110753530Y-67551207D01*
X110752329Y-67551794D01*
X110751150Y-67552468D01*
X110750000Y-67553223D01*
X110748887Y-67554052D01*
X110747818Y-67554948D01*
X110746802Y-67555903D01*
X110745846Y-67556910D01*
X110744959Y-67557963D01*
X110744148Y-67559054D01*
X110743420Y-67560176D01*
X110742785Y-67561323D01*
X110742249Y-67562486D01*
X110741820Y-67563659D01*
X110661056Y-67765351D01*
X110660555Y-67766497D01*
X110660136Y-67767711D01*
X110659800Y-67768982D01*
X110659546Y-67770299D01*
X110659372Y-67771653D01*
X110659279Y-67773033D01*
X110659265Y-67774428D01*
X110659330Y-67775828D01*
X110659473Y-67777223D01*
X110659693Y-67778601D01*
X110659991Y-67779953D01*
X110660364Y-67781268D01*
X110660813Y-67782535D01*
X110661336Y-67783745D01*
X110661933Y-67784886D01*
X110662604Y-67785949D01*
X110809527Y-68000023D01*
X110809860Y-68000541D01*
X110810167Y-68001074D01*
X110810448Y-68001621D01*
X110810704Y-68002181D01*
X110810934Y-68002754D01*
X110811138Y-68003336D01*
X110811471Y-68004529D01*
X110811702Y-68005750D01*
X110811833Y-68006990D01*
X110811866Y-68008239D01*
X110811799Y-68009488D01*
X110811635Y-68010729D01*
X110811374Y-68011950D01*
X110811017Y-68013144D01*
X110810565Y-68014299D01*
X110810019Y-68015408D01*
X110809710Y-68015942D01*
X110809378Y-68016461D01*
X110809023Y-68016963D01*
X110808645Y-68017447D01*
X110808244Y-68017913D01*
X110807821Y-68018359D01*
X110614820Y-68211319D01*
X110614375Y-68211743D01*
X110613909Y-68212144D01*
X110613424Y-68212522D01*
X110612922Y-68212877D01*
X110612404Y-68213209D01*
X110611870Y-68213517D01*
X110611322Y-68213802D01*
X110610761Y-68214064D01*
X110610188Y-68214302D01*
X110609605Y-68214516D01*
X110608412Y-68214873D01*
X110607190Y-68215134D01*
X110605950Y-68215298D01*
X110604701Y-68215364D01*
X110603451Y-68215332D01*
X110602211Y-68215201D01*
X110600990Y-68214969D01*
X110600390Y-68214816D01*
X110599798Y-68214637D01*
X110599215Y-68214432D01*
X110598643Y-68214203D01*
X110598083Y-68213947D01*
X110597536Y-68213666D01*
X110597002Y-68213359D01*
X110596485Y-68213026D01*
X110386181Y-68068682D01*
X110385120Y-68068030D01*
X110383986Y-68067457D01*
X110382787Y-68066964D01*
X110381535Y-68066551D01*
X110380238Y-68066219D01*
X110378908Y-68065968D01*
X110377555Y-68065798D01*
X110376189Y-68065711D01*
X110374820Y-68065705D01*
X110373459Y-68065783D01*
X110372115Y-68065943D01*
X110370799Y-68066188D01*
X110369521Y-68066516D01*
X110368292Y-68066928D01*
X110367121Y-68067425D01*
X110366019Y-68068008D01*
X110273270Y-68117538D01*
X110272716Y-68117804D01*
X110272158Y-68118039D01*
X110271596Y-68118241D01*
X110271031Y-68118412D01*
X110270464Y-68118552D01*
X110269896Y-68118662D01*
X110269329Y-68118741D01*
X110268762Y-68118790D01*
X110268197Y-68118809D01*
X110267636Y-68118799D01*
X110267078Y-68118761D01*
X110266526Y-68118694D01*
X110265979Y-68118598D01*
X110265439Y-68118475D01*
X110264907Y-68118325D01*
X110264385Y-68118148D01*
X110263872Y-68117944D01*
X110263369Y-68117714D01*
X110262879Y-68117458D01*
X110262402Y-68117176D01*
X110261938Y-68116869D01*
X110261489Y-68116538D01*
X110261056Y-68116182D01*
X110260640Y-68115802D01*
X110260241Y-68115398D01*
X110259861Y-68114971D01*
X110259501Y-68114522D01*
X110259161Y-68114049D01*
X110258844Y-68113555D01*
X110258548Y-68113038D01*
X110258277Y-68112500D01*
X110258030Y-68111942D01*
X110066815Y-67649860D01*
X110066592Y-67649286D01*
X110066398Y-67648703D01*
X110066233Y-67648112D01*
X110066097Y-67647515D01*
X110065989Y-67646912D01*
X110065909Y-67646305D01*
X110065831Y-67645081D01*
X110065861Y-67643853D01*
X110065994Y-67642629D01*
X110066229Y-67641419D01*
X110066562Y-67640231D01*
X110066991Y-67639074D01*
X110067512Y-67637957D01*
X110068122Y-67636890D01*
X110068819Y-67635880D01*
X110069599Y-67634936D01*
X110070020Y-67634493D01*
X110070460Y-67634069D01*
X110070920Y-67633666D01*
X110071398Y-67633286D01*
X110071896Y-67632929D01*
X110072411Y-67632596D01*
X110095629Y-67618388D01*
X110097303Y-67617323D01*
X110099089Y-67616108D01*
X110100955Y-67614771D01*
X110102866Y-67613338D01*
X110104791Y-67611833D01*
X110106696Y-67610284D01*
X110108547Y-67608717D01*
X110110313Y-67607156D01*
X110125677Y-67596639D01*
X110140340Y-67585220D01*
X110154261Y-67572939D01*
X110167401Y-67559837D01*
X110179720Y-67545951D01*
X110191177Y-67531324D01*
X110201733Y-67515993D01*
X110211347Y-67500000D01*
X110219981Y-67483384D01*
X110223917Y-67474854D01*
X110227593Y-67466184D01*
X110231003Y-67457377D01*
X110234143Y-67448440D01*
X110237008Y-67439377D01*
X110239592Y-67430192D01*
X110241892Y-67420892D01*
X110243900Y-67411481D01*
X110245614Y-67401963D01*
X110247027Y-67392344D01*
X110248135Y-67382630D01*
X110248932Y-67372824D01*
X110249415Y-67362932D01*
X110249576Y-67352958D01*
X110249184Y-67337427D01*
X110248018Y-67322100D01*
X110246099Y-67306996D01*
X110243444Y-67292133D01*
X110240074Y-67277532D01*
X110236007Y-67263211D01*
X110231262Y-67249188D01*
X110225858Y-67235483D01*
X110219813Y-67222115D01*
X110213148Y-67209103D01*
X110205881Y-67196465D01*
X110198030Y-67184220D01*
X110189616Y-67172389D01*
X110180656Y-67160989D01*
X110171170Y-67150039D01*
X110161177Y-67139558D01*
X110150696Y-67129566D01*
X110139746Y-67120082D01*
X110128345Y-67111123D01*
X110116513Y-67102710D01*
X110104268Y-67094861D01*
X110091631Y-67087595D01*
X110078618Y-67080931D01*
X110065251Y-67074888D01*
X110051547Y-67069485D01*
X110037525Y-67064740D01*
X110023205Y-67060674D01*
X110008606Y-67057305D01*
X109993746Y-67054651D01*
X109978644Y-67052732D01*
X109963320Y-67051567D01*
X109947793Y-67051174D01*
X109932265Y-67051567D01*
X109916941Y-67052733D01*
X109901839Y-67054652D01*
X109886979Y-67057306D01*
X109872380Y-67060677D01*
X109858060Y-67064744D01*
X109844038Y-67069489D01*
X109830334Y-67074893D01*
X109816967Y-67080937D01*
X109803955Y-67087603D01*
X109791317Y-67094870D01*
X109779072Y-67102720D01*
X109767240Y-67111135D01*
X109755839Y-67120094D01*
X109744889Y-67129580D01*
X109734408Y-67139573D01*
X109724415Y-67150055D01*
X109714929Y-67161005D01*
X109705969Y-67172406D01*
X109697555Y-67184238D01*
X109689704Y-67196482D01*
X109682437Y-67209120D01*
X109675772Y-67222132D01*
X109669728Y-67235500D01*
X109664323Y-67249204D01*
X109659578Y-67263225D01*
X109655511Y-67277545D01*
X109652141Y-67292145D01*
X109649487Y-67307005D01*
X109647567Y-67322106D01*
X109646402Y-67337430D01*
X109646009Y-67352958D01*
X109646653Y-67372824D01*
X109648558Y-67392346D01*
X109651685Y-67411484D01*
X109655993Y-67430198D01*
X109661442Y-67448448D01*
X109667993Y-67466194D01*
X109675604Y-67483397D01*
X109684238Y-67500015D01*
X109693852Y-67516010D01*
X109704408Y-67531341D01*
X109715866Y-67545969D01*
X109728184Y-67559853D01*
X109741324Y-67572954D01*
X109755245Y-67585232D01*
X109769908Y-67596646D01*
X109785272Y-67607156D01*
X109787025Y-67608717D01*
X109788866Y-67610284D01*
X109790764Y-67611833D01*
X109792684Y-67613338D01*
X109794593Y-67614772D01*
X109796457Y-67616108D01*
X109798243Y-67617323D01*
X109799917Y-67618388D01*
X109823134Y-67632596D01*
X109823650Y-67632932D01*
X109824147Y-67633292D01*
X109824626Y-67633675D01*
X109825085Y-67634080D01*
X109825526Y-67634506D01*
X109825946Y-67634951D01*
X109826347Y-67635415D01*
X109826726Y-67635896D01*
X109827085Y-67636394D01*
X109827423Y-67636907D01*
X109827739Y-67637434D01*
X109828034Y-67637975D01*
X109828305Y-67638527D01*
X109828555Y-67639091D01*
X109828781Y-67639664D01*
X109828983Y-67640246D01*
X109829162Y-67640836D01*
X109829316Y-67641432D01*
X109829446Y-67642034D01*
X109829551Y-67642640D01*
X109829631Y-67643249D01*
X109829685Y-67643861D01*
X109829713Y-67644474D01*
X109829714Y-67645087D01*
X109829689Y-67645698D01*
X109829636Y-67646308D01*
X109829556Y-67646914D01*
X109829448Y-67647517D01*
X109829312Y-67648113D01*
X109829147Y-67648704D01*
X109828953Y-67649286D01*
X109828730Y-67649860D01*
X109637516Y-68111942D01*
X109637269Y-68112500D01*
X109636997Y-68113038D01*
X109636702Y-68113555D01*
X109636384Y-68114049D01*
X109636044Y-68114522D01*
X109635684Y-68114971D01*
X109635304Y-68115398D01*
X109634906Y-68115802D01*
X109634489Y-68116182D01*
X109634056Y-68116538D01*
X109633607Y-68116869D01*
X109633144Y-68117176D01*
X109632666Y-68117458D01*
X109632176Y-68117714D01*
X109631674Y-68117944D01*
X109631161Y-68118148D01*
X109630638Y-68118325D01*
X109630106Y-68118475D01*
X109629566Y-68118598D01*
X109629020Y-68118694D01*
X109628467Y-68118761D01*
X109627910Y-68118799D01*
X109627348Y-68118809D01*
X109626783Y-68118790D01*
X109626217Y-68118741D01*
X109625649Y-68118662D01*
X109625081Y-68118552D01*
X109624514Y-68118412D01*
X109623949Y-68118241D01*
X109623387Y-68118039D01*
X109622829Y-68117804D01*
X109622276Y-68117538D01*
X109529526Y-68068008D01*
X109528424Y-68067432D01*
X109527253Y-68066939D01*
X109526024Y-68066530D01*
X109524746Y-68066204D01*
X109523430Y-68065961D01*
X109522087Y-68065800D01*
X109520725Y-68065722D01*
X109519356Y-68065726D01*
X109517990Y-68065811D01*
X109516637Y-68065978D01*
X109515307Y-68066227D01*
X109514011Y-68066557D01*
X109512758Y-68066967D01*
X109511559Y-68067459D01*
X109510425Y-68068030D01*
X109509365Y-68068682D01*
X109299061Y-68213026D01*
X109298543Y-68213359D01*
X109298010Y-68213666D01*
X109297463Y-68213947D01*
X109296902Y-68214203D01*
X109296330Y-68214432D01*
X109295748Y-68214637D01*
X109294556Y-68214969D01*
X109293335Y-68215201D01*
X109292096Y-68215332D01*
X109290848Y-68215364D01*
X109289600Y-68215298D01*
X109288362Y-68215134D01*
X109287143Y-68214873D01*
X109285953Y-68214516D01*
X109284801Y-68214064D01*
X109283697Y-68213517D01*
X109283166Y-68213209D01*
X109282650Y-68212877D01*
X109282151Y-68212522D01*
X109281669Y-68212144D01*
X109281207Y-68211743D01*
X109280765Y-68211319D01*
X109087765Y-68018359D01*
X109087340Y-68017913D01*
X109086939Y-68017447D01*
X109086561Y-68016962D01*
X109086205Y-68016459D01*
X109085872Y-68015940D01*
X109085563Y-68015405D01*
X109085277Y-68014856D01*
X109085014Y-68014294D01*
X109084775Y-68013720D01*
X109084560Y-68013135D01*
X109084200Y-68011940D01*
X109083937Y-68010716D01*
X109083771Y-68009474D01*
X109083703Y-68008222D01*
X109083734Y-68006972D01*
X109083865Y-68005732D01*
X109083969Y-68005119D01*
X109084098Y-68004512D01*
X109084252Y-68003912D01*
X109084432Y-68003321D01*
X109084638Y-68002740D01*
X109084870Y-68002170D01*
X109085127Y-68001612D01*
X109085411Y-68001067D01*
X109085721Y-68000537D01*
X109086058Y-68000023D01*
X109232981Y-67785949D01*
X109233638Y-67784886D01*
X109234224Y-67783745D01*
X109234739Y-67782535D01*
X109235181Y-67781268D01*
X109235550Y-67779953D01*
X109235844Y-67778601D01*
X109236063Y-67777223D01*
X109236206Y-67775828D01*
X109236271Y-67774428D01*
X109236258Y-67773033D01*
X109236167Y-67771653D01*
X109235995Y-67770299D01*
X109235742Y-67768982D01*
X109235408Y-67767711D01*
X109234990Y-67766497D01*
X109234489Y-67765351D01*
X109153725Y-67563659D01*
X109153525Y-67563072D01*
X109153297Y-67562486D01*
X109152763Y-67561323D01*
X109152129Y-67560176D01*
X109151404Y-67559054D01*
X109150595Y-67557963D01*
X109149710Y-67556910D01*
X109148757Y-67555903D01*
X109147743Y-67554948D01*
X109146676Y-67554052D01*
X109145563Y-67553223D01*
X109144413Y-67552468D01*
X109143233Y-67551794D01*
X109142031Y-67551207D01*
X109140814Y-67550716D01*
X109140202Y-67550508D01*
X109139590Y-67550326D01*
X109138977Y-67550172D01*
X109138366Y-67550046D01*
X108879723Y-67501905D01*
X108879120Y-67501778D01*
X108878525Y-67501622D01*
X108877938Y-67501437D01*
X108877361Y-67501225D01*
X108876793Y-67500985D01*
X108876237Y-67500720D01*
X108875691Y-67500430D01*
X108875158Y-67500116D01*
X108874638Y-67499778D01*
X108874132Y-67499418D01*
X108873640Y-67499037D01*
X108873163Y-67498636D01*
X108872702Y-67498215D01*
X108872258Y-67497776D01*
X108871832Y-67497319D01*
X108871423Y-67496845D01*
X108871034Y-67496355D01*
X108870664Y-67495851D01*
X108870315Y-67495332D01*
X108869987Y-67494801D01*
X108869681Y-67494257D01*
X108869397Y-67493702D01*
X108869137Y-67493137D01*
X108868901Y-67492562D01*
X108868690Y-67491979D01*
X108868505Y-67491389D01*
X108868346Y-67490791D01*
X108868215Y-67490188D01*
X108868111Y-67489580D01*
X108868036Y-67488968D01*
X108867991Y-67488354D01*
X108867975Y-67487737D01*
X108867975Y-67214845D01*
X108867987Y-67214229D01*
X108868029Y-67213614D01*
X108868101Y-67213003D01*
X108868202Y-67212396D01*
X108868331Y-67211793D01*
X108868487Y-67211197D01*
X108868670Y-67210607D01*
X108868878Y-67210025D01*
X108869112Y-67209452D01*
X108869370Y-67208888D01*
X108869957Y-67207792D01*
X108870631Y-67206744D01*
X108871388Y-67205752D01*
X108872222Y-67204823D01*
X108873125Y-67203964D01*
X108874093Y-67203181D01*
X108874599Y-67202821D01*
X108875119Y-67202483D01*
X108875652Y-67202168D01*
X108876197Y-67201877D01*
X108876754Y-67201610D01*
X108877321Y-67201369D01*
X108877899Y-67201154D01*
X108878485Y-67200966D01*
X108879080Y-67200807D01*
X108879683Y-67200677D01*
X108879882Y-67200677D01*
X109145034Y-67151385D01*
X109146252Y-67151106D01*
X109147477Y-67150719D01*
X109148699Y-67150232D01*
X109149911Y-67149651D01*
X109151105Y-67148983D01*
X109152272Y-67148235D01*
X109153404Y-67147415D01*
X109154494Y-67146528D01*
X109155534Y-67145583D01*
X109156514Y-67144585D01*
X109157428Y-67143542D01*
X109158266Y-67142461D01*
X109159022Y-67141348D01*
X109159687Y-67140211D01*
X109160252Y-67139057D01*
X109160711Y-67137891D01*
X109241990Y-66948265D01*
X109242514Y-66947126D01*
X109242955Y-66945921D01*
X109243313Y-66944659D01*
X109243588Y-66943351D01*
X109243783Y-66942006D01*
X109243896Y-66940635D01*
X109243928Y-66939249D01*
X109243880Y-66937857D01*
X109243753Y-66936469D01*
X109243547Y-66935096D01*
X109243263Y-66933749D01*
X109242900Y-66932437D01*
X109242460Y-66931170D01*
X109241943Y-66929959D01*
X109241350Y-66928815D01*
X109240681Y-66927746D01*
X109086177Y-66702559D01*
X109085844Y-66702042D01*
X109085537Y-66701509D01*
X109085255Y-66700962D01*
X109084999Y-66700402D01*
X109084768Y-66699831D01*
X109084563Y-66699249D01*
X109084228Y-66698059D01*
X109083994Y-66696841D01*
X109083860Y-66695603D01*
X109083826Y-66694356D01*
X109083890Y-66693109D01*
X109084053Y-66691870D01*
X109084313Y-66690650D01*
X109084669Y-66689456D01*
X109085122Y-66688300D01*
X109085671Y-66687189D01*
X109085981Y-66686653D01*
X109086314Y-66686133D01*
X109086672Y-66685629D01*
X109087052Y-66685142D01*
X109087456Y-66684673D01*
X109087884Y-66684224D01*
X109280844Y-66491263D01*
X109281290Y-66490839D01*
X109281756Y-66490438D01*
X109282240Y-66490059D01*
X109282742Y-66489703D01*
X109283261Y-66489371D01*
X109283795Y-66489062D01*
X109284342Y-66488775D01*
X109284903Y-66488513D01*
X109285475Y-66488274D01*
X109286058Y-66488058D01*
X109287251Y-66487699D01*
X109288471Y-66487436D01*
X109289710Y-66487269D01*
X109290957Y-66487201D01*
X109292204Y-66487233D01*
X109293440Y-66487364D01*
X109294052Y-66487467D01*
X109294657Y-66487596D01*
X109295256Y-66487751D01*
X109295845Y-66487931D01*
X109296425Y-66488137D01*
X109296995Y-66488368D01*
X109297552Y-66488626D01*
X109298096Y-66488910D01*
X109298626Y-66489220D01*
X109299140Y-66489556D01*
X109528256Y-66646798D01*
X109529319Y-66647462D01*
X109530461Y-66648053D01*
X109531673Y-66648571D01*
X109532942Y-66649015D01*
X109534260Y-66649384D01*
X109535614Y-66649677D01*
X109536995Y-66649893D01*
X109538391Y-66650033D01*
X109539793Y-66650094D01*
X109541189Y-66650076D01*
X109542569Y-66649979D01*
X109543922Y-66649801D01*
X109545238Y-66649541D01*
X109546505Y-66649200D01*
X109547714Y-66648775D01*
X109548854Y-66648267D01*
X109732647Y-66573019D01*
X109733230Y-66572812D01*
X109733812Y-66572576D01*
X109734392Y-66572314D01*
X109734968Y-66572025D01*
X109736107Y-66571375D01*
X109737223Y-66570634D01*
X109738307Y-66569809D01*
X109739353Y-66568908D01*
X109740354Y-66567940D01*
X109741304Y-66566912D01*
X109742194Y-66565833D01*
X109743018Y-66564710D01*
X109743769Y-66563551D01*
X109744440Y-66562365D01*
X109745023Y-66561159D01*
X109745512Y-66559941D01*
X109745720Y-66559330D01*
X109745900Y-66558719D01*
X109746054Y-66558109D01*
X109746180Y-66557501D01*
X109797218Y-66283261D01*
X109797345Y-66282658D01*
X109797501Y-66282063D01*
X109797686Y-66281476D01*
X109797899Y-66280899D01*
X109798138Y-66280331D01*
X109798403Y-66279775D01*
X109798693Y-66279229D01*
X109799007Y-66278696D01*
X109799344Y-66278176D01*
X109799704Y-66277670D01*
X109800084Y-66277178D01*
X109800485Y-66276701D01*
X109800906Y-66276240D01*
X109801344Y-66275796D01*
X109801801Y-66275370D01*
X109802273Y-66274961D01*
X109802762Y-66274572D01*
X109803265Y-66274202D01*
X109803783Y-66273853D01*
X109804313Y-66273525D01*
X109804855Y-66273218D01*
X109805408Y-66272935D01*
X109805972Y-66272675D01*
X109806544Y-66272439D01*
X109807125Y-66272228D01*
X109807714Y-66272043D01*
X109808308Y-66271884D01*
X109808909Y-66271753D01*
X109809514Y-66271649D01*
X109810122Y-66271574D01*
X109810734Y-66271529D01*
X109811347Y-66271513D01*
X110084278Y-66271513D01*
X110084891Y-66271529D01*
G37*
G36*
X108796924Y-68565832D02*
G01*
X108797466Y-68575721D01*
X108797649Y-68586048D01*
X108797449Y-68596922D01*
X108796859Y-68607278D01*
X108795892Y-68617129D01*
X108794564Y-68626485D01*
X108792889Y-68635357D01*
X108790881Y-68643757D01*
X108788554Y-68651696D01*
X108785924Y-68659186D01*
X108783004Y-68666237D01*
X108779809Y-68672861D01*
X108776354Y-68679070D01*
X108772652Y-68684874D01*
X108768718Y-68690285D01*
X108764567Y-68695315D01*
X108760213Y-68699973D01*
X108755670Y-68704273D01*
X108750953Y-68708224D01*
X108746076Y-68711838D01*
X108741054Y-68715128D01*
X108735901Y-68718103D01*
X108730632Y-68720775D01*
X108725260Y-68723156D01*
X108714268Y-68727087D01*
X108703041Y-68729988D01*
X108691694Y-68731948D01*
X108680342Y-68733058D01*
X108669101Y-68733408D01*
X108661838Y-68733246D01*
X108654625Y-68732755D01*
X108647471Y-68731926D01*
X108640389Y-68730751D01*
X108633386Y-68729221D01*
X108626475Y-68727328D01*
X108619664Y-68725064D01*
X108612963Y-68722420D01*
X108606384Y-68719387D01*
X108599936Y-68715958D01*
X108593629Y-68712123D01*
X108587473Y-68707875D01*
X108581478Y-68703205D01*
X108575655Y-68698104D01*
X108570014Y-68692564D01*
X108564564Y-68686577D01*
X108606832Y-68650620D01*
X108610124Y-68653852D01*
X108613564Y-68656906D01*
X108617140Y-68659779D01*
X108620837Y-68662466D01*
X108624645Y-68664962D01*
X108628550Y-68667264D01*
X108632540Y-68669367D01*
X108636602Y-68671267D01*
X108640725Y-68672960D01*
X108644895Y-68674441D01*
X108649100Y-68675706D01*
X108653327Y-68676751D01*
X108657565Y-68677570D01*
X108661800Y-68678161D01*
X108666020Y-68678519D01*
X108670213Y-68678639D01*
X108673931Y-68678569D01*
X108677581Y-68678358D01*
X108681161Y-68678007D01*
X108684667Y-68677515D01*
X108688096Y-68676883D01*
X108691444Y-68676111D01*
X108694709Y-68675199D01*
X108697886Y-68674147D01*
X108700972Y-68672955D01*
X108703965Y-68671623D01*
X108706860Y-68670152D01*
X108709655Y-68668541D01*
X108712346Y-68666791D01*
X108714930Y-68664902D01*
X108717403Y-68662873D01*
X108719762Y-68660706D01*
X108722004Y-68658399D01*
X108724126Y-68655954D01*
X108726124Y-68653370D01*
X108727994Y-68650647D01*
X108729734Y-68647786D01*
X108731340Y-68644786D01*
X108732809Y-68641648D01*
X108734138Y-68638372D01*
X108735323Y-68634958D01*
X108736360Y-68631406D01*
X108737247Y-68627716D01*
X108737980Y-68623888D01*
X108738556Y-68619923D01*
X108738972Y-68615820D01*
X108739224Y-68611580D01*
X108739308Y-68607202D01*
X108558889Y-68607202D01*
X108558889Y-68559259D01*
X108617150Y-68559259D01*
X108739388Y-68559259D01*
X108739212Y-68555194D01*
X108738895Y-68551249D01*
X108738440Y-68547426D01*
X108737849Y-68543725D01*
X108737126Y-68540148D01*
X108736273Y-68536693D01*
X108735294Y-68533362D01*
X108734191Y-68530155D01*
X108732968Y-68527074D01*
X108731626Y-68524117D01*
X108730170Y-68521287D01*
X108728602Y-68518583D01*
X108726925Y-68516005D01*
X108725142Y-68513555D01*
X108723256Y-68511233D01*
X108721270Y-68509040D01*
X108719187Y-68506975D01*
X108717009Y-68505040D01*
X108714740Y-68503235D01*
X108712383Y-68501560D01*
X108709940Y-68500017D01*
X108707415Y-68498604D01*
X108704810Y-68497324D01*
X108702129Y-68496177D01*
X108699373Y-68495162D01*
X108696547Y-68494281D01*
X108693653Y-68493535D01*
X108690695Y-68492923D01*
X108687674Y-68492445D01*
X108684594Y-68492104D01*
X108681458Y-68491899D01*
X108678269Y-68491830D01*
X108675082Y-68491899D01*
X108671951Y-68492104D01*
X108668879Y-68492445D01*
X108665869Y-68492923D01*
X108662924Y-68493535D01*
X108660045Y-68494281D01*
X108657236Y-68495162D01*
X108654499Y-68496177D01*
X108651836Y-68497324D01*
X108649251Y-68498604D01*
X108646745Y-68500017D01*
X108644322Y-68501560D01*
X108641984Y-68503235D01*
X108639734Y-68505040D01*
X108637573Y-68506975D01*
X108635506Y-68509040D01*
X108633533Y-68511234D01*
X108631659Y-68513555D01*
X108629885Y-68516005D01*
X108628215Y-68518583D01*
X108626650Y-68521287D01*
X108625193Y-68524117D01*
X108623847Y-68527074D01*
X108622615Y-68530156D01*
X108621498Y-68533362D01*
X108620500Y-68536693D01*
X108619624Y-68540148D01*
X108618871Y-68543725D01*
X108618245Y-68547426D01*
X108617747Y-68551249D01*
X108617382Y-68555194D01*
X108617150Y-68559259D01*
X108558889Y-68559259D01*
X108558889Y-68559220D01*
X108559050Y-68552283D01*
X108559527Y-68545511D01*
X108560312Y-68538907D01*
X108561396Y-68532475D01*
X108562771Y-68526218D01*
X108564427Y-68520140D01*
X108566357Y-68514245D01*
X108568551Y-68508536D01*
X108571002Y-68503017D01*
X108573699Y-68497692D01*
X108576636Y-68492564D01*
X108579803Y-68487637D01*
X108583192Y-68482915D01*
X108586794Y-68478401D01*
X108590601Y-68474099D01*
X108594603Y-68470012D01*
X108598793Y-68466145D01*
X108603161Y-68462501D01*
X108607699Y-68459083D01*
X108612399Y-68455896D01*
X108617252Y-68452942D01*
X108622250Y-68450227D01*
X108627383Y-68447752D01*
X108632643Y-68445522D01*
X108638021Y-68443541D01*
X108643510Y-68441813D01*
X108649100Y-68440340D01*
X108654783Y-68439127D01*
X108660550Y-68438177D01*
X108666392Y-68437493D01*
X108672302Y-68437081D01*
X108678269Y-68436942D01*
X108688838Y-68437381D01*
X108699477Y-68438735D01*
X108704789Y-68439773D01*
X108710081Y-68441061D01*
X108715338Y-68442607D01*
X108720547Y-68444418D01*
X108725696Y-68446501D01*
X108730771Y-68448863D01*
X108735761Y-68451512D01*
X108740651Y-68454454D01*
X108745428Y-68457697D01*
X108750081Y-68461248D01*
X108754596Y-68465114D01*
X108758959Y-68469303D01*
X108763158Y-68473821D01*
X108767180Y-68478676D01*
X108771013Y-68483875D01*
X108774642Y-68489426D01*
X108778055Y-68495335D01*
X108781240Y-68501609D01*
X108784183Y-68508256D01*
X108786871Y-68515284D01*
X108789291Y-68522698D01*
X108791431Y-68530507D01*
X108793277Y-68538718D01*
X108794816Y-68547338D01*
X108796036Y-68556373D01*
X108796307Y-68559259D01*
X108796924Y-68565832D01*
G37*
G36*
X109111249Y-69023271D02*
G01*
X109111791Y-69033160D01*
X109111974Y-69043487D01*
X109111774Y-69054364D01*
X109111184Y-69064724D01*
X109110217Y-69074577D01*
X109108889Y-69083936D01*
X109107214Y-69092811D01*
X109105206Y-69101214D01*
X109102879Y-69109155D01*
X109100249Y-69116647D01*
X109097329Y-69123700D01*
X109094134Y-69130327D01*
X109090679Y-69136537D01*
X109086977Y-69142343D01*
X109083043Y-69147755D01*
X109078892Y-69152786D01*
X109074538Y-69157445D01*
X109069995Y-69161746D01*
X109065278Y-69165698D01*
X109060401Y-69169313D01*
X109055379Y-69172603D01*
X109050226Y-69175579D01*
X109044957Y-69178252D01*
X109039585Y-69180633D01*
X109028593Y-69184565D01*
X109017366Y-69187466D01*
X109006019Y-69189426D01*
X108994667Y-69190536D01*
X108983426Y-69190886D01*
X108976163Y-69190724D01*
X108968951Y-69190233D01*
X108961800Y-69189404D01*
X108954719Y-69188229D01*
X108947719Y-69186699D01*
X108940810Y-69184806D01*
X108934001Y-69182542D01*
X108927303Y-69179898D01*
X108920726Y-69176865D01*
X108914278Y-69173436D01*
X108907971Y-69169601D01*
X108901815Y-69165353D01*
X108895818Y-69160683D01*
X108889992Y-69155582D01*
X108884346Y-69150042D01*
X108878889Y-69144055D01*
X108921157Y-69108059D01*
X108924450Y-69111297D01*
X108927891Y-69114356D01*
X108931468Y-69117232D01*
X108935168Y-69119921D01*
X108938978Y-69122418D01*
X108942885Y-69124720D01*
X108946878Y-69126822D01*
X108950942Y-69128721D01*
X108955066Y-69130411D01*
X108959237Y-69131890D01*
X108963443Y-69133152D01*
X108967669Y-69134195D01*
X108971905Y-69135012D01*
X108976136Y-69135602D01*
X108980352Y-69135958D01*
X108984538Y-69136078D01*
X108988256Y-69136008D01*
X108991906Y-69135797D01*
X108995486Y-69135445D01*
X108998992Y-69134954D01*
X109002421Y-69134322D01*
X109005769Y-69133550D01*
X109009034Y-69132638D01*
X109012211Y-69131586D01*
X109015297Y-69130394D01*
X109018290Y-69129063D01*
X109021185Y-69127592D01*
X109023980Y-69125982D01*
X109026671Y-69124232D01*
X109029255Y-69122344D01*
X109031728Y-69120316D01*
X109034087Y-69118149D01*
X109036329Y-69115844D01*
X109038451Y-69113399D01*
X109040449Y-69110816D01*
X109042319Y-69108095D01*
X109044059Y-69105235D01*
X109045665Y-69102237D01*
X109047134Y-69099101D01*
X109048463Y-69095827D01*
X109049648Y-69092415D01*
X109050685Y-69088866D01*
X109051572Y-69085178D01*
X109052305Y-69081353D01*
X109052881Y-69077391D01*
X109053297Y-69073291D01*
X109053549Y-69069054D01*
X109053633Y-69064680D01*
X108873254Y-69064680D01*
X108873254Y-69016658D01*
X108931475Y-69016658D01*
X109053713Y-69016658D01*
X109053537Y-69012595D01*
X109053220Y-69008654D01*
X109052765Y-69004834D01*
X109052174Y-69001135D01*
X109051451Y-68997559D01*
X109050598Y-68994106D01*
X109049619Y-68990776D01*
X109048516Y-68987571D01*
X109047293Y-68984489D01*
X109045951Y-68981533D01*
X109044495Y-68978703D01*
X109042927Y-68975998D01*
X109041250Y-68973421D01*
X109039468Y-68970970D01*
X109037582Y-68968648D01*
X109035595Y-68966453D01*
X109033512Y-68964387D01*
X109031334Y-68962451D01*
X109029066Y-68960645D01*
X109026708Y-68958969D01*
X109024265Y-68957424D01*
X109021740Y-68956011D01*
X109019135Y-68954729D01*
X109016454Y-68953581D01*
X109013698Y-68952565D01*
X109010872Y-68951683D01*
X109007978Y-68950935D01*
X109005020Y-68950323D01*
X109001999Y-68949845D01*
X108998919Y-68949503D01*
X108995783Y-68949297D01*
X108992594Y-68949229D01*
X108989407Y-68949297D01*
X108986276Y-68949503D01*
X108983203Y-68949845D01*
X108980193Y-68950323D01*
X108977246Y-68950935D01*
X108974367Y-68951683D01*
X108971556Y-68952565D01*
X108968818Y-68953581D01*
X108966154Y-68954729D01*
X108963568Y-68956011D01*
X108961061Y-68957424D01*
X108958637Y-68958969D01*
X108956297Y-68960645D01*
X108954046Y-68962451D01*
X108951884Y-68964387D01*
X108949816Y-68966453D01*
X108947843Y-68968648D01*
X108945968Y-68970970D01*
X108944193Y-68973421D01*
X108942522Y-68975998D01*
X108940957Y-68978703D01*
X108939500Y-68981533D01*
X108938155Y-68984489D01*
X108936923Y-68987571D01*
X108935807Y-68990776D01*
X108934811Y-68994106D01*
X108933936Y-68997559D01*
X108933185Y-69001135D01*
X108932561Y-69004834D01*
X108932066Y-69008654D01*
X108931703Y-69012595D01*
X108931475Y-69016658D01*
X108873254Y-69016658D01*
X108873415Y-69009725D01*
X108873892Y-69002957D01*
X108874676Y-68996356D01*
X108875759Y-68989927D01*
X108877133Y-68983673D01*
X108878788Y-68977597D01*
X108880717Y-68971704D01*
X108882910Y-68965998D01*
X108885359Y-68960481D01*
X108888055Y-68955157D01*
X108890990Y-68950031D01*
X108894156Y-68945106D01*
X108897543Y-68940385D01*
X108901143Y-68935872D01*
X108904947Y-68931571D01*
X108908948Y-68927485D01*
X108913136Y-68923619D01*
X108917502Y-68919976D01*
X108922039Y-68916559D01*
X108926737Y-68913372D01*
X108931588Y-68910419D01*
X108936584Y-68907704D01*
X108941715Y-68905229D01*
X108946974Y-68903000D01*
X108952351Y-68901019D01*
X108957839Y-68899291D01*
X108963428Y-68897818D01*
X108969110Y-68896605D01*
X108974876Y-68895655D01*
X108980718Y-68894972D01*
X108986627Y-68894559D01*
X108992594Y-68894421D01*
X109003163Y-68894859D01*
X109013802Y-68896211D01*
X109019115Y-68897248D01*
X109024406Y-68898536D01*
X109029663Y-68900080D01*
X109034872Y-68901890D01*
X109040021Y-68903972D01*
X109045096Y-68906332D01*
X109050086Y-68908979D01*
X109054976Y-68911919D01*
X109059754Y-68915161D01*
X109064406Y-68918710D01*
X109068921Y-68922574D01*
X109073284Y-68926761D01*
X109077483Y-68931278D01*
X109081505Y-68936131D01*
X109085338Y-68941328D01*
X109088967Y-68946877D01*
X109092380Y-68952784D01*
X109095565Y-68959057D01*
X109098508Y-68965703D01*
X109101196Y-68972728D01*
X109103616Y-68980142D01*
X109105756Y-68987950D01*
X109107602Y-68996159D01*
X109109141Y-69004778D01*
X109110361Y-69013813D01*
X109110628Y-69016658D01*
X109111249Y-69023271D01*
G37*
G36*
X107367972Y-65280583D02*
G01*
X108007887Y-68247396D01*
X107117939Y-65744844D01*
X105887934Y-67110607D01*
X107261941Y-67642325D01*
X107900051Y-68556824D01*
X108286624Y-69990706D01*
X107878749Y-71607163D01*
X107246837Y-72555842D01*
X106781975Y-74055377D01*
X106826806Y-72381030D01*
X107420626Y-71298819D01*
X107801603Y-69750000D01*
X107470693Y-68477391D01*
X106807911Y-67780669D01*
X105639708Y-67155015D01*
X107052889Y-65301103D01*
X107364422Y-64557865D01*
X107367972Y-65280583D01*
G37*
G36*
X109819891Y-68596272D02*
G01*
X109819562Y-68606754D01*
X109819006Y-68616442D01*
X109818219Y-68625394D01*
X109817193Y-68633666D01*
X109815924Y-68641317D01*
X109814406Y-68648405D01*
X109812632Y-68654986D01*
X109810598Y-68661119D01*
X109808296Y-68666861D01*
X109805723Y-68672270D01*
X109802871Y-68677404D01*
X109799735Y-68682321D01*
X109796310Y-68687077D01*
X109792589Y-68691731D01*
X109788567Y-68696340D01*
X109785439Y-68699674D01*
X109782046Y-68703017D01*
X109778378Y-68706338D01*
X109774423Y-68709606D01*
X109770170Y-68712790D01*
X109765609Y-68715860D01*
X109760728Y-68718784D01*
X109755517Y-68721532D01*
X109752784Y-68722830D01*
X109749964Y-68724072D01*
X109747056Y-68725255D01*
X109744059Y-68726374D01*
X109740971Y-68727426D01*
X109737791Y-68728407D01*
X109734517Y-68729312D01*
X109731149Y-68730139D01*
X109727684Y-68730883D01*
X109724121Y-68731540D01*
X109720460Y-68732107D01*
X109716698Y-68732579D01*
X109712834Y-68732954D01*
X109708867Y-68733226D01*
X109704796Y-68733392D01*
X109700619Y-68733448D01*
X109692370Y-68733226D01*
X109684539Y-68732579D01*
X109677113Y-68731540D01*
X109670083Y-68730139D01*
X109663438Y-68728407D01*
X109657166Y-68726374D01*
X109651258Y-68724072D01*
X109645701Y-68721532D01*
X109640486Y-68718784D01*
X109635602Y-68715860D01*
X109631037Y-68712790D01*
X109626782Y-68709606D01*
X109622824Y-68706338D01*
X109619154Y-68703017D01*
X109615760Y-68699674D01*
X109612632Y-68696340D01*
X109608610Y-68691731D01*
X109604891Y-68687077D01*
X109601467Y-68682321D01*
X109598334Y-68677404D01*
X109595485Y-68672270D01*
X109592915Y-68666861D01*
X109590617Y-68661119D01*
X109588586Y-68654986D01*
X109586816Y-68648405D01*
X109585301Y-68641317D01*
X109584036Y-68633666D01*
X109583013Y-68625394D01*
X109582228Y-68616442D01*
X109581675Y-68606754D01*
X109581347Y-68596272D01*
X109581244Y-68585493D01*
X109639500Y-68585493D01*
X109639668Y-68599780D01*
X109639887Y-68605984D01*
X109640204Y-68611628D01*
X109640624Y-68616763D01*
X109641154Y-68621439D01*
X109641799Y-68625706D01*
X109642566Y-68629615D01*
X109643461Y-68633217D01*
X109644488Y-68636560D01*
X109645655Y-68639697D01*
X109646968Y-68642676D01*
X109648431Y-68645549D01*
X109650052Y-68648366D01*
X109651835Y-68651178D01*
X109653788Y-68654033D01*
X109654620Y-68655148D01*
X109655507Y-68656246D01*
X109657441Y-68658383D01*
X109659579Y-68660436D01*
X109661909Y-68662395D01*
X109664419Y-68664250D01*
X109667099Y-68665993D01*
X109669935Y-68667615D01*
X109672917Y-68669105D01*
X109676033Y-68670454D01*
X109679272Y-68671654D01*
X109682621Y-68672695D01*
X109686069Y-68673567D01*
X109689604Y-68674262D01*
X109693216Y-68674769D01*
X109696891Y-68675081D01*
X109700619Y-68675187D01*
X109704347Y-68675081D01*
X109708023Y-68674771D01*
X109711634Y-68674265D01*
X109715169Y-68673573D01*
X109718616Y-68672703D01*
X109721964Y-68671664D01*
X109725202Y-68670467D01*
X109728316Y-68669120D01*
X109731296Y-68667631D01*
X109734130Y-68666011D01*
X109736806Y-68664268D01*
X109739313Y-68662412D01*
X109741638Y-68660451D01*
X109743771Y-68658395D01*
X109745699Y-68656253D01*
X109747411Y-68654033D01*
X109749363Y-68651177D01*
X109751147Y-68648365D01*
X109752767Y-68645546D01*
X109754231Y-68642668D01*
X109755543Y-68639680D01*
X109756710Y-68636531D01*
X109757738Y-68633170D01*
X109758632Y-68629546D01*
X109759399Y-68625607D01*
X109760045Y-68621303D01*
X109760575Y-68616583D01*
X109760995Y-68611394D01*
X109761311Y-68605686D01*
X109761530Y-68599408D01*
X109761657Y-68592509D01*
X109761698Y-68584937D01*
X109761529Y-68570489D01*
X109761308Y-68564236D01*
X109760989Y-68558562D01*
X109760567Y-68553413D01*
X109760034Y-68548737D01*
X109759386Y-68544480D01*
X109758617Y-68540592D01*
X109757721Y-68537018D01*
X109756693Y-68533706D01*
X109755525Y-68530604D01*
X109754214Y-68527659D01*
X109752753Y-68524818D01*
X109751135Y-68522030D01*
X109749357Y-68519240D01*
X109747411Y-68516397D01*
X109746582Y-68515282D01*
X109745698Y-68514184D01*
X109743769Y-68512047D01*
X109741635Y-68509994D01*
X109739307Y-68508035D01*
X109736798Y-68506180D01*
X109734119Y-68504437D01*
X109731283Y-68502816D01*
X109728301Y-68501326D01*
X109725185Y-68499976D01*
X109721947Y-68498776D01*
X109718599Y-68497736D01*
X109715152Y-68496863D01*
X109711619Y-68496169D01*
X109708011Y-68495661D01*
X109704341Y-68495349D01*
X109700619Y-68495243D01*
X109696898Y-68495349D01*
X109693227Y-68495659D01*
X109689619Y-68496165D01*
X109686085Y-68496858D01*
X109682638Y-68497728D01*
X109679289Y-68498766D01*
X109676050Y-68499963D01*
X109672932Y-68501311D01*
X109669948Y-68502799D01*
X109667109Y-68504419D01*
X109664427Y-68506162D01*
X109661914Y-68508019D01*
X109659582Y-68509979D01*
X109657443Y-68512035D01*
X109655507Y-68514178D01*
X109653788Y-68516397D01*
X109651835Y-68519246D01*
X109650052Y-68522053D01*
X109648431Y-68524870D01*
X109646968Y-68527746D01*
X109645656Y-68530733D01*
X109644488Y-68533882D01*
X109643461Y-68537244D01*
X109642566Y-68540869D01*
X109641799Y-68544810D01*
X109641154Y-68549116D01*
X109640624Y-68553840D01*
X109640204Y-68559031D01*
X109639887Y-68564740D01*
X109639668Y-68571020D01*
X109639541Y-68577921D01*
X109639500Y-68585493D01*
X109581244Y-68585493D01*
X109581239Y-68584937D01*
X109581347Y-68573609D01*
X109581675Y-68563144D01*
X109582228Y-68553484D01*
X109583013Y-68544568D01*
X109584036Y-68536339D01*
X109585301Y-68528735D01*
X109586816Y-68521699D01*
X109588586Y-68515172D01*
X109590617Y-68509093D01*
X109592915Y-68503403D01*
X109595485Y-68498044D01*
X109598334Y-68492956D01*
X109601467Y-68488080D01*
X109604891Y-68483356D01*
X109608610Y-68478726D01*
X109612632Y-68474130D01*
X109615760Y-68470796D01*
X109619152Y-68467452D01*
X109622821Y-68464129D01*
X109626776Y-68460858D01*
X109631029Y-68457671D01*
X109635592Y-68454598D01*
X109640474Y-68451670D01*
X109645687Y-68448918D01*
X109648421Y-68447619D01*
X109651241Y-68446375D01*
X109654150Y-68445190D01*
X109657149Y-68444069D01*
X109660238Y-68443015D01*
X109663420Y-68442033D01*
X109666696Y-68441126D01*
X109670066Y-68440298D01*
X109673534Y-68439552D01*
X109677098Y-68438894D01*
X109680763Y-68438326D01*
X109684527Y-68437853D01*
X109688394Y-68437478D01*
X109692364Y-68437205D01*
X109696438Y-68437039D01*
X109700619Y-68436983D01*
X109708874Y-68437205D01*
X109716709Y-68437853D01*
X109724136Y-68438894D01*
X109731165Y-68440298D01*
X109737809Y-68442033D01*
X109744077Y-68444069D01*
X109749981Y-68446375D01*
X109755532Y-68448919D01*
X109760741Y-68451670D01*
X109765619Y-68454598D01*
X109770178Y-68457671D01*
X109774429Y-68460858D01*
X109778381Y-68464129D01*
X109782048Y-68467452D01*
X109785439Y-68470796D01*
X109788567Y-68474130D01*
X109792589Y-68478739D01*
X109796310Y-68483390D01*
X109799735Y-68488142D01*
X109802871Y-68493051D01*
X109805723Y-68498174D01*
X109808296Y-68503567D01*
X109810598Y-68509289D01*
X109812632Y-68515395D01*
X109814406Y-68521943D01*
X109815924Y-68528990D01*
X109817193Y-68536593D01*
X109818219Y-68544808D01*
X109819006Y-68553694D01*
X109819562Y-68563305D01*
X109819891Y-68573701D01*
X109819999Y-68584937D01*
X109819891Y-68596272D01*
G37*
G36*
X109358433Y-68612917D02*
G01*
X109358505Y-68616563D01*
X109358717Y-68620111D01*
X109359067Y-68623560D01*
X109359553Y-68626908D01*
X109360169Y-68630154D01*
X109360915Y-68633298D01*
X109361787Y-68636338D01*
X109362781Y-68639273D01*
X109363895Y-68642101D01*
X109365125Y-68644823D01*
X109366470Y-68647435D01*
X109367925Y-68649938D01*
X109369487Y-68652331D01*
X109371154Y-68654611D01*
X109372923Y-68656778D01*
X109374790Y-68658831D01*
X109376752Y-68660768D01*
X109378807Y-68662589D01*
X109380951Y-68664292D01*
X109383182Y-68665876D01*
X109385496Y-68667340D01*
X109387890Y-68668682D01*
X109390362Y-68669903D01*
X109392907Y-68670999D01*
X109395524Y-68671971D01*
X109398210Y-68672818D01*
X109400960Y-68673537D01*
X109403773Y-68674128D01*
X109406644Y-68674589D01*
X109409572Y-68674921D01*
X109412553Y-68675120D01*
X109415583Y-68675187D01*
X109418615Y-68675120D01*
X109421600Y-68674921D01*
X109424535Y-68674589D01*
X109427416Y-68674128D01*
X109430240Y-68673537D01*
X109433004Y-68672818D01*
X109435705Y-68671971D01*
X109438340Y-68670999D01*
X109440904Y-68669903D01*
X109443396Y-68668682D01*
X109445812Y-68667340D01*
X109448148Y-68665876D01*
X109450402Y-68664292D01*
X109452570Y-68662589D01*
X109454648Y-68660768D01*
X109456635Y-68658831D01*
X109458526Y-68656778D01*
X109460319Y-68654611D01*
X109462009Y-68652331D01*
X109463595Y-68649938D01*
X109465072Y-68647435D01*
X109466437Y-68644823D01*
X109467688Y-68642101D01*
X109468821Y-68639273D01*
X109469833Y-68636338D01*
X109470720Y-68633298D01*
X109471479Y-68630154D01*
X109472108Y-68626908D01*
X109472602Y-68623560D01*
X109472960Y-68620111D01*
X109473176Y-68616563D01*
X109473249Y-68612917D01*
X109473249Y-68440396D01*
X109531510Y-68440396D01*
X109531510Y-68632920D01*
X109531471Y-68632919D01*
X109531322Y-68638987D01*
X109530882Y-68644873D01*
X109530162Y-68650576D01*
X109529172Y-68656097D01*
X109527922Y-68661434D01*
X109526423Y-68666587D01*
X109524686Y-68671555D01*
X109522720Y-68676337D01*
X109520538Y-68680932D01*
X109518147Y-68685340D01*
X109515561Y-68689560D01*
X109512788Y-68693592D01*
X109509839Y-68697434D01*
X109506725Y-68701085D01*
X109503456Y-68704546D01*
X109500043Y-68707815D01*
X109496497Y-68710891D01*
X109492826Y-68713775D01*
X109489043Y-68716464D01*
X109485158Y-68718959D01*
X109481181Y-68721258D01*
X109477122Y-68723362D01*
X109472992Y-68725268D01*
X109468801Y-68726977D01*
X109464561Y-68728488D01*
X109460281Y-68729799D01*
X109451644Y-68731822D01*
X109442974Y-68733041D01*
X109438653Y-68733346D01*
X109434356Y-68733448D01*
X109428732Y-68733314D01*
X109423207Y-68732912D01*
X109417786Y-68732242D01*
X109412475Y-68731305D01*
X109407281Y-68730099D01*
X109402209Y-68728626D01*
X109397265Y-68726885D01*
X109392456Y-68724875D01*
X109387787Y-68722598D01*
X109383264Y-68720053D01*
X109378894Y-68717240D01*
X109374683Y-68714160D01*
X109370636Y-68710811D01*
X109366760Y-68707194D01*
X109363061Y-68703310D01*
X109359545Y-68699158D01*
X109358434Y-68699158D01*
X109358434Y-68730035D01*
X109300172Y-68730035D01*
X109300172Y-68440396D01*
X109358433Y-68440396D01*
X109358433Y-68612917D01*
G37*
G36*
X106454007Y-71985068D02*
G01*
X106421411Y-72030007D01*
X106397641Y-72060169D01*
X106369177Y-72093967D01*
X106336231Y-72130282D01*
X106299017Y-72167996D01*
X106257751Y-72205989D01*
X106235664Y-72224741D01*
X106212645Y-72243144D01*
X106188719Y-72261057D01*
X106163914Y-72278340D01*
X106138256Y-72294855D01*
X106111772Y-72310461D01*
X106084488Y-72325017D01*
X106056433Y-72338385D01*
X106027631Y-72350425D01*
X105998110Y-72360996D01*
X105967898Y-72369958D01*
X105937019Y-72377173D01*
X105905502Y-72382500D01*
X105873373Y-72385798D01*
X105809436Y-72388302D01*
X105747520Y-72387179D01*
X105687918Y-72382907D01*
X105630917Y-72375965D01*
X105576810Y-72366831D01*
X105525886Y-72355982D01*
X105478435Y-72343897D01*
X105434746Y-72331054D01*
X105395111Y-72317932D01*
X105359820Y-72305008D01*
X105303427Y-72281667D01*
X105255528Y-72258405D01*
X105240642Y-72270392D01*
X105198155Y-72301873D01*
X105167579Y-72322822D01*
X105131326Y-72346123D01*
X105089802Y-72370935D01*
X105043414Y-72396419D01*
X104992570Y-72421734D01*
X104965605Y-72434065D01*
X104937678Y-72446038D01*
X104908840Y-72457550D01*
X104879144Y-72468493D01*
X104848638Y-72478764D01*
X104817376Y-72488257D01*
X104785406Y-72496868D01*
X104752781Y-72504491D01*
X104719551Y-72511021D01*
X104685766Y-72516353D01*
X104651479Y-72520382D01*
X104616740Y-72523003D01*
X104581600Y-72524111D01*
X104546109Y-72523602D01*
X104510701Y-72521386D01*
X104475801Y-72517524D01*
X104441450Y-72512127D01*
X104407688Y-72505309D01*
X104342093Y-72487857D01*
X104279339Y-72466068D01*
X104219750Y-72440845D01*
X104163647Y-72413088D01*
X104111354Y-72383698D01*
X104063194Y-72353577D01*
X104019491Y-72323624D01*
X103980566Y-72294742D01*
X103918347Y-72243793D01*
X103865475Y-72194388D01*
X103878509Y-72204390D01*
X103894500Y-72215805D01*
X103916530Y-72230526D01*
X103944394Y-72247824D01*
X103977887Y-72266972D01*
X104016802Y-72287241D01*
X104060933Y-72307905D01*
X104084891Y-72318157D01*
X104110076Y-72328235D01*
X104136462Y-72338047D01*
X104164023Y-72347504D01*
X104192735Y-72356512D01*
X104222570Y-72364983D01*
X104253504Y-72372825D01*
X104285511Y-72379946D01*
X104318564Y-72386256D01*
X104352639Y-72391664D01*
X104387710Y-72396080D01*
X104423750Y-72399411D01*
X104460734Y-72401567D01*
X104498637Y-72402457D01*
X104537432Y-72401990D01*
X104577094Y-72400076D01*
X104616566Y-72396664D01*
X104654806Y-72391834D01*
X104691814Y-72385684D01*
X104727587Y-72378316D01*
X104762124Y-72369830D01*
X104795424Y-72360325D01*
X104858306Y-72338661D01*
X104916223Y-72314125D01*
X104969163Y-72287519D01*
X105017114Y-72259645D01*
X105060066Y-72231302D01*
X105098007Y-72203294D01*
X105130925Y-72176420D01*
X105158810Y-72151482D01*
X105181651Y-72129281D01*
X105212153Y-72096298D01*
X105222340Y-72083878D01*
X105235532Y-72091892D01*
X105273355Y-72112846D01*
X105300681Y-72126728D01*
X105333178Y-72142108D01*
X105370517Y-72158407D01*
X105412369Y-72175046D01*
X105458407Y-72191445D01*
X105508300Y-72207027D01*
X105534589Y-72214330D01*
X105561720Y-72221211D01*
X105589649Y-72227599D01*
X105618338Y-72233420D01*
X105647743Y-72238602D01*
X105677825Y-72243073D01*
X105708542Y-72246761D01*
X105739853Y-72249592D01*
X105771716Y-72251496D01*
X105804092Y-72252399D01*
X105836938Y-72252228D01*
X105870214Y-72250913D01*
X105903338Y-72248307D01*
X105935742Y-72244375D01*
X105967405Y-72239210D01*
X105998305Y-72232904D01*
X106057727Y-72217238D01*
X106113835Y-72198117D01*
X106166454Y-72176280D01*
X106215411Y-72152464D01*
X106260531Y-72127410D01*
X106301641Y-72101856D01*
X106338566Y-72076541D01*
X106371132Y-72052204D01*
X106422493Y-72009420D01*
X106465253Y-71968099D01*
X106454007Y-71985068D01*
G37*
G36*
X110776388Y-69102343D02*
G01*
X110776278Y-69107021D01*
X110775949Y-69111624D01*
X110775403Y-69116147D01*
X110774642Y-69120585D01*
X110773668Y-69124933D01*
X110772484Y-69129187D01*
X110771090Y-69133341D01*
X110769489Y-69137392D01*
X110767683Y-69141333D01*
X110765674Y-69145161D01*
X110763465Y-69148870D01*
X110761056Y-69152456D01*
X110758450Y-69155914D01*
X110755649Y-69159239D01*
X110752655Y-69162427D01*
X110749470Y-69165471D01*
X110746096Y-69168369D01*
X110742535Y-69171114D01*
X110738789Y-69173703D01*
X110734860Y-69176129D01*
X110730750Y-69178389D01*
X110726460Y-69180478D01*
X110721994Y-69182391D01*
X110717352Y-69184123D01*
X110712537Y-69185669D01*
X110707551Y-69187024D01*
X110702396Y-69188184D01*
X110697074Y-69189144D01*
X110691587Y-69189899D01*
X110685936Y-69190444D01*
X110680124Y-69190775D01*
X110674153Y-69190886D01*
X110666989Y-69190779D01*
X110660262Y-69190455D01*
X110653957Y-69189912D01*
X110648057Y-69189148D01*
X110642545Y-69188159D01*
X110637404Y-69186943D01*
X110632618Y-69185499D01*
X110628171Y-69183822D01*
X110624044Y-69181911D01*
X110620222Y-69179763D01*
X110616688Y-69177376D01*
X110613426Y-69174746D01*
X110610418Y-69171872D01*
X110607648Y-69168750D01*
X110605100Y-69165379D01*
X110602756Y-69161756D01*
X110601605Y-69161756D01*
X110601605Y-69187473D01*
X110601565Y-69187473D01*
X110543304Y-69187473D01*
X110543304Y-69064640D01*
X110601565Y-69064640D01*
X110601565Y-69085793D01*
X110601614Y-69089911D01*
X110601763Y-69093801D01*
X110602014Y-69097469D01*
X110602371Y-69100921D01*
X110602836Y-69104164D01*
X110603412Y-69107205D01*
X110604103Y-69110049D01*
X110604910Y-69112704D01*
X110605837Y-69115175D01*
X110606886Y-69117469D01*
X110608060Y-69119592D01*
X110609363Y-69121551D01*
X110610797Y-69123352D01*
X110612364Y-69125002D01*
X110614068Y-69126506D01*
X110615912Y-69127872D01*
X110617898Y-69129105D01*
X110620029Y-69130213D01*
X110622308Y-69131201D01*
X110624738Y-69132076D01*
X110627322Y-69132844D01*
X110630062Y-69133512D01*
X110632961Y-69134085D01*
X110636022Y-69134572D01*
X110642643Y-69135307D01*
X110649947Y-69135769D01*
X110657955Y-69136009D01*
X110666692Y-69136077D01*
X110673803Y-69135880D01*
X110680364Y-69135303D01*
X110686388Y-69134367D01*
X110691888Y-69133095D01*
X110694445Y-69132340D01*
X110696876Y-69131509D01*
X110699182Y-69130604D01*
X110701365Y-69129629D01*
X110703426Y-69128586D01*
X110705367Y-69127479D01*
X110707190Y-69126309D01*
X110708895Y-69125079D01*
X110710485Y-69123792D01*
X110711961Y-69122452D01*
X110713324Y-69121060D01*
X110714577Y-69119619D01*
X110715721Y-69118132D01*
X110716757Y-69116602D01*
X110717687Y-69115032D01*
X110718512Y-69113424D01*
X110719856Y-69110105D01*
X110720800Y-69106668D01*
X110721357Y-69103134D01*
X110721540Y-69099525D01*
X110721493Y-69097564D01*
X110721352Y-69095647D01*
X110721117Y-69093777D01*
X110720786Y-69091953D01*
X110720360Y-69090177D01*
X110719838Y-69088451D01*
X110719220Y-69086775D01*
X110718505Y-69085150D01*
X110717694Y-69083579D01*
X110716784Y-69082061D01*
X110715777Y-69080598D01*
X110714671Y-69079191D01*
X110713467Y-69077842D01*
X110712163Y-69076551D01*
X110710760Y-69075320D01*
X110709257Y-69074150D01*
X110707653Y-69073042D01*
X110705949Y-69071997D01*
X110704143Y-69071016D01*
X110702235Y-69070100D01*
X110700226Y-69069251D01*
X110698113Y-69068470D01*
X110695898Y-69067758D01*
X110693579Y-69067116D01*
X110691157Y-69066545D01*
X110688630Y-69066047D01*
X110685998Y-69065622D01*
X110683262Y-69065271D01*
X110680420Y-69064997D01*
X110677472Y-69064799D01*
X110674417Y-69064680D01*
X110671256Y-69064640D01*
X110601565Y-69064640D01*
X110543304Y-69064640D01*
X110543304Y-68989829D01*
X110543447Y-68983274D01*
X110543873Y-68976992D01*
X110544577Y-68970979D01*
X110545554Y-68965230D01*
X110546800Y-68959743D01*
X110548309Y-68954512D01*
X110550076Y-68949532D01*
X110552096Y-68944801D01*
X110554366Y-68940312D01*
X110556878Y-68936063D01*
X110559630Y-68932049D01*
X110562615Y-68928265D01*
X110565829Y-68924708D01*
X110569267Y-68921372D01*
X110572924Y-68918255D01*
X110576795Y-68915351D01*
X110580875Y-68912655D01*
X110585160Y-68910165D01*
X110589644Y-68907876D01*
X110594322Y-68905783D01*
X110599190Y-68903882D01*
X110604242Y-68902168D01*
X110609474Y-68900638D01*
X110614881Y-68899288D01*
X110620457Y-68898112D01*
X110626199Y-68897107D01*
X110638157Y-68895591D01*
X110650715Y-68894707D01*
X110663835Y-68894420D01*
X110671842Y-68894556D01*
X110679584Y-68894970D01*
X110687063Y-68895675D01*
X110694282Y-68896682D01*
X110701243Y-68898004D01*
X110707948Y-68899653D01*
X110714401Y-68901639D01*
X110720603Y-68903975D01*
X110726557Y-68906673D01*
X110732266Y-68909745D01*
X110737732Y-68913202D01*
X110742957Y-68917057D01*
X110747945Y-68921321D01*
X110752697Y-68926006D01*
X110757217Y-68931125D01*
X110761506Y-68936688D01*
X110715825Y-68971533D01*
X110714850Y-68970013D01*
X110713848Y-68968556D01*
X110712819Y-68967159D01*
X110711759Y-68965823D01*
X110710668Y-68964547D01*
X110709542Y-68963329D01*
X110708379Y-68962170D01*
X110707177Y-68961066D01*
X110705935Y-68960019D01*
X110704649Y-68959027D01*
X110703317Y-68958089D01*
X110701938Y-68957203D01*
X110700509Y-68956370D01*
X110699029Y-68955589D01*
X110697494Y-68954857D01*
X110695902Y-68954175D01*
X110694252Y-68953542D01*
X110692541Y-68952956D01*
X110690768Y-68952416D01*
X110688929Y-68951923D01*
X110687022Y-68951474D01*
X110685046Y-68951069D01*
X110682998Y-68950707D01*
X110680877Y-68950387D01*
X110676403Y-68949869D01*
X110671606Y-68949509D01*
X110666470Y-68949298D01*
X110660977Y-68949229D01*
X110653436Y-68949345D01*
X110646449Y-68949700D01*
X110640005Y-68950307D01*
X110634097Y-68951177D01*
X110628714Y-68952321D01*
X110623849Y-68953752D01*
X110619490Y-68955480D01*
X110617498Y-68956460D01*
X110615629Y-68957519D01*
X110613883Y-68958658D01*
X110612257Y-68959879D01*
X110610752Y-68961183D01*
X110609365Y-68962571D01*
X110608096Y-68964046D01*
X110606943Y-68965609D01*
X110605906Y-68967261D01*
X110604982Y-68969003D01*
X110604172Y-68970837D01*
X110603473Y-68972765D01*
X110602885Y-68974788D01*
X110602407Y-68976907D01*
X110602037Y-68979124D01*
X110601774Y-68981440D01*
X110601565Y-68986377D01*
X110601565Y-69016658D01*
X110682131Y-69016658D01*
X110687880Y-69016773D01*
X110693451Y-69017112D01*
X110698844Y-69017671D01*
X110704059Y-69018443D01*
X110709095Y-69019423D01*
X110713952Y-69020603D01*
X110718630Y-69021979D01*
X110723128Y-69023544D01*
X110727447Y-69025293D01*
X110731585Y-69027219D01*
X110735542Y-69029316D01*
X110739319Y-69031578D01*
X110742914Y-69034000D01*
X110746328Y-69036575D01*
X110749561Y-69039298D01*
X110752611Y-69042162D01*
X110755478Y-69045162D01*
X110758163Y-69048291D01*
X110760665Y-69051543D01*
X110762983Y-69054913D01*
X110765118Y-69058395D01*
X110767069Y-69061982D01*
X110768835Y-69065669D01*
X110770417Y-69069449D01*
X110771814Y-69073317D01*
X110773026Y-69077267D01*
X110774052Y-69081292D01*
X110774892Y-69085387D01*
X110775546Y-69089545D01*
X110776014Y-69093762D01*
X110776295Y-69098030D01*
X110776327Y-69099525D01*
X110776388Y-69102343D01*
G37*
G36*
X109107225Y-68437076D02*
G01*
X109112841Y-68437478D01*
X109118342Y-68438148D01*
X109123721Y-68439086D01*
X109128973Y-68440291D01*
X109134093Y-68441765D01*
X109139077Y-68443506D01*
X109143918Y-68445515D01*
X109148611Y-68447792D01*
X109153152Y-68450337D01*
X109157535Y-68453150D01*
X109161755Y-68456231D01*
X109165807Y-68459579D01*
X109169686Y-68463196D01*
X109173386Y-68467080D01*
X109176903Y-68471233D01*
X109178014Y-68471233D01*
X109178014Y-68440395D01*
X109236275Y-68440395D01*
X109236275Y-68729995D01*
X109178014Y-68729995D01*
X109178014Y-68555767D01*
X109177933Y-68551874D01*
X109177693Y-68548121D01*
X109177299Y-68544507D01*
X109176756Y-68541029D01*
X109176069Y-68537688D01*
X109175244Y-68534482D01*
X109174284Y-68531411D01*
X109173196Y-68528472D01*
X109171984Y-68525666D01*
X109170653Y-68522991D01*
X109169208Y-68520446D01*
X109167654Y-68518030D01*
X109165997Y-68515742D01*
X109164241Y-68513581D01*
X109162391Y-68511545D01*
X109160452Y-68509635D01*
X109158430Y-68507849D01*
X109156329Y-68506185D01*
X109154154Y-68504643D01*
X109151911Y-68503222D01*
X109149604Y-68501920D01*
X109147238Y-68500737D01*
X109144819Y-68499672D01*
X109142351Y-68498723D01*
X109137290Y-68497171D01*
X109132094Y-68496072D01*
X109126804Y-68495419D01*
X109121459Y-68495204D01*
X109118727Y-68495251D01*
X109116104Y-68495396D01*
X109113575Y-68495641D01*
X109111128Y-68495991D01*
X109108749Y-68496447D01*
X109106424Y-68497014D01*
X109104140Y-68497695D01*
X109101883Y-68498493D01*
X109099641Y-68499411D01*
X109097399Y-68500453D01*
X109095144Y-68501623D01*
X109092862Y-68502922D01*
X109090540Y-68504356D01*
X109088165Y-68505926D01*
X109085723Y-68507637D01*
X109083201Y-68509491D01*
X109040933Y-68459207D01*
X109044279Y-68456701D01*
X109047667Y-68454319D01*
X109051100Y-68452068D01*
X109054582Y-68449952D01*
X109058117Y-68447976D01*
X109061707Y-68446145D01*
X109065358Y-68444465D01*
X109069072Y-68442940D01*
X109072853Y-68441576D01*
X109076704Y-68440377D01*
X109080630Y-68439349D01*
X109084633Y-68438496D01*
X109088718Y-68437824D01*
X109092888Y-68437338D01*
X109097146Y-68437042D01*
X109101496Y-68436942D01*
X109107225Y-68437076D01*
G37*
G36*
X108928923Y-68437483D02*
G01*
X108935119Y-68438115D01*
X108941267Y-68439006D01*
X108947356Y-68440161D01*
X108953375Y-68441583D01*
X108959312Y-68443277D01*
X108965155Y-68445247D01*
X108970894Y-68447496D01*
X108976517Y-68450028D01*
X108982013Y-68452848D01*
X108987369Y-68455959D01*
X108992576Y-68459365D01*
X108997620Y-68463071D01*
X109002492Y-68467080D01*
X109007179Y-68471397D01*
X109011671Y-68476024D01*
X109015955Y-68480967D01*
X109020021Y-68486229D01*
X109023857Y-68491814D01*
X109027451Y-68497727D01*
X109030793Y-68503970D01*
X109033870Y-68510549D01*
X109036672Y-68517467D01*
X109039187Y-68524728D01*
X109041404Y-68532336D01*
X109043310Y-68540294D01*
X109044896Y-68548608D01*
X109046149Y-68557281D01*
X109047058Y-68566317D01*
X109047612Y-68575719D01*
X109047799Y-68585493D01*
X109047612Y-68595265D01*
X109047058Y-68604663D01*
X109046149Y-68613691D01*
X109044896Y-68622354D01*
X109043310Y-68630655D01*
X109041404Y-68638599D01*
X109039187Y-68646190D01*
X109036672Y-68653432D01*
X109033870Y-68660330D01*
X109030793Y-68666887D01*
X109027451Y-68673107D01*
X109023857Y-68678996D01*
X109020021Y-68684556D01*
X109015955Y-68689793D01*
X109011671Y-68694710D01*
X109007179Y-68699312D01*
X109002492Y-68703602D01*
X108997620Y-68707585D01*
X108992575Y-68711266D01*
X108987369Y-68714648D01*
X108982012Y-68717735D01*
X108976517Y-68720531D01*
X108970894Y-68723042D01*
X108965155Y-68725271D01*
X108953375Y-68728898D01*
X108941267Y-68731448D01*
X108928923Y-68732954D01*
X108916434Y-68733448D01*
X108908295Y-68733203D01*
X108900371Y-68732482D01*
X108892662Y-68731304D01*
X108885169Y-68729688D01*
X108877893Y-68727654D01*
X108870835Y-68725221D01*
X108863997Y-68722408D01*
X108857379Y-68719235D01*
X108850982Y-68715721D01*
X108844808Y-68711885D01*
X108838857Y-68707748D01*
X108833131Y-68703327D01*
X108827631Y-68698643D01*
X108822356Y-68693715D01*
X108817310Y-68688562D01*
X108812492Y-68683204D01*
X108855315Y-68644945D01*
X108855315Y-68644905D01*
X108858067Y-68648162D01*
X108860961Y-68651288D01*
X108863994Y-68654273D01*
X108867162Y-68657104D01*
X108870460Y-68659772D01*
X108873883Y-68662265D01*
X108877429Y-68664573D01*
X108881092Y-68666684D01*
X108884869Y-68668587D01*
X108888755Y-68670273D01*
X108892746Y-68671729D01*
X108896838Y-68672944D01*
X108901027Y-68673909D01*
X108905308Y-68674612D01*
X108907482Y-68674861D01*
X108909678Y-68675041D01*
X108911895Y-68675150D01*
X108914132Y-68675187D01*
X108918518Y-68675108D01*
X108922788Y-68674870D01*
X108926942Y-68674471D01*
X108930977Y-68673909D01*
X108934893Y-68673184D01*
X108938687Y-68672293D01*
X108942359Y-68671234D01*
X108945906Y-68670006D01*
X108949326Y-68668608D01*
X108952619Y-68667037D01*
X108955783Y-68665291D01*
X108958815Y-68663370D01*
X108961715Y-68661272D01*
X108964482Y-68658994D01*
X108967112Y-68656535D01*
X108969605Y-68653894D01*
X108971960Y-68651069D01*
X108974173Y-68648058D01*
X108976245Y-68644859D01*
X108978174Y-68641472D01*
X108979957Y-68637893D01*
X108981593Y-68634122D01*
X108983082Y-68630156D01*
X108984420Y-68625995D01*
X108985607Y-68621636D01*
X108986640Y-68617078D01*
X108987519Y-68612320D01*
X108988242Y-68607358D01*
X108988807Y-68602192D01*
X108989212Y-68596821D01*
X108989456Y-68591242D01*
X108989538Y-68585453D01*
X108989212Y-68574080D01*
X108988242Y-68563528D01*
X108987519Y-68558556D01*
X108986640Y-68553784D01*
X108985607Y-68549212D01*
X108984420Y-68544837D01*
X108983082Y-68540658D01*
X108981593Y-68536674D01*
X108979957Y-68532883D01*
X108978174Y-68529284D01*
X108976245Y-68525875D01*
X108974173Y-68522655D01*
X108971960Y-68519622D01*
X108969605Y-68516774D01*
X108967112Y-68514111D01*
X108964482Y-68511630D01*
X108961715Y-68509331D01*
X108958815Y-68507211D01*
X108955783Y-68505269D01*
X108952619Y-68503504D01*
X108949326Y-68501915D01*
X108945906Y-68500499D01*
X108942359Y-68499255D01*
X108938687Y-68498182D01*
X108934893Y-68497278D01*
X108930977Y-68496541D01*
X108922788Y-68495566D01*
X108914132Y-68495244D01*
X108909678Y-68495389D01*
X108905307Y-68495819D01*
X108901024Y-68496521D01*
X108896833Y-68497486D01*
X108892738Y-68498702D01*
X108888744Y-68500158D01*
X108884856Y-68501843D01*
X108881077Y-68503747D01*
X108877412Y-68505858D01*
X108873866Y-68508165D01*
X108870442Y-68510659D01*
X108867145Y-68513326D01*
X108863980Y-68516158D01*
X108860950Y-68519142D01*
X108858060Y-68522268D01*
X108855315Y-68525525D01*
X108812492Y-68487267D01*
X108817317Y-68481901D01*
X108822368Y-68476742D01*
X108827645Y-68471809D01*
X108833148Y-68467120D01*
X108838875Y-68462696D01*
X108844826Y-68458555D01*
X108850999Y-68454717D01*
X108857394Y-68451201D01*
X108864010Y-68448026D01*
X108870846Y-68445212D01*
X108877901Y-68442778D01*
X108885174Y-68440743D01*
X108892665Y-68439127D01*
X108900373Y-68437948D01*
X108904307Y-68437529D01*
X108908296Y-68437227D01*
X108912338Y-68437044D01*
X108916434Y-68436983D01*
X108928923Y-68437483D01*
G37*
G36*
X109984954Y-68437337D02*
G01*
X109995855Y-68438398D01*
X110006327Y-68440164D01*
X110016321Y-68442633D01*
X110025789Y-68445800D01*
X110030311Y-68447646D01*
X110034684Y-68449665D01*
X110038902Y-68451858D01*
X110042958Y-68454224D01*
X110046847Y-68456763D01*
X110050564Y-68459475D01*
X110054101Y-68462359D01*
X110057453Y-68465415D01*
X110060614Y-68468643D01*
X110063578Y-68472042D01*
X110066340Y-68475612D01*
X110068892Y-68479353D01*
X110071230Y-68483264D01*
X110073347Y-68487345D01*
X110075237Y-68491597D01*
X110076894Y-68496017D01*
X110078313Y-68500607D01*
X110079487Y-68505365D01*
X110080411Y-68510292D01*
X110081078Y-68515387D01*
X110081483Y-68520650D01*
X110081619Y-68526081D01*
X110081516Y-68530677D01*
X110081210Y-68535149D01*
X110080704Y-68539496D01*
X110080004Y-68543717D01*
X110079113Y-68547813D01*
X110078036Y-68551781D01*
X110076776Y-68555622D01*
X110075338Y-68559334D01*
X110073726Y-68562918D01*
X110071944Y-68566373D01*
X110069997Y-68569697D01*
X110067888Y-68572891D01*
X110065621Y-68575953D01*
X110063202Y-68578884D01*
X110060634Y-68581682D01*
X110057921Y-68584347D01*
X110055067Y-68586878D01*
X110052077Y-68589274D01*
X110048955Y-68591536D01*
X110045705Y-68593661D01*
X110042331Y-68595651D01*
X110038837Y-68597503D01*
X110035227Y-68599218D01*
X110031507Y-68600794D01*
X110027679Y-68602232D01*
X110023748Y-68603530D01*
X110019719Y-68604687D01*
X110015595Y-68605705D01*
X110007079Y-68607314D01*
X109998236Y-68608353D01*
X109946801Y-68612917D01*
X109943107Y-68613293D01*
X109939537Y-68613791D01*
X109936106Y-68614426D01*
X109932831Y-68615211D01*
X109929727Y-68616160D01*
X109926809Y-68617287D01*
X109924095Y-68618608D01*
X109922819Y-68619345D01*
X109921599Y-68620135D01*
X109920438Y-68620980D01*
X109919338Y-68621883D01*
X109918300Y-68622844D01*
X109917327Y-68623866D01*
X109916420Y-68624950D01*
X109915581Y-68626098D01*
X109914813Y-68627312D01*
X109914118Y-68628594D01*
X109913497Y-68629945D01*
X109912952Y-68631367D01*
X109912486Y-68632862D01*
X109912100Y-68634432D01*
X109911797Y-68636078D01*
X109911577Y-68637802D01*
X109911444Y-68639606D01*
X109911399Y-68641492D01*
X109911469Y-68643760D01*
X109911677Y-68645957D01*
X109912020Y-68648084D01*
X109912496Y-68650140D01*
X109913101Y-68652125D01*
X109913834Y-68654039D01*
X109914691Y-68655882D01*
X109915669Y-68657654D01*
X109916766Y-68659355D01*
X109917980Y-68660984D01*
X109919307Y-68662542D01*
X109920744Y-68664029D01*
X109922290Y-68665444D01*
X109923941Y-68666787D01*
X109925694Y-68668059D01*
X109927547Y-68669258D01*
X109929498Y-68670386D01*
X109931542Y-68671441D01*
X109933679Y-68672425D01*
X109935904Y-68673336D01*
X109938215Y-68674175D01*
X109940610Y-68674941D01*
X109943086Y-68675635D01*
X109945639Y-68676256D01*
X109948268Y-68676805D01*
X109950970Y-68677280D01*
X109953741Y-68677683D01*
X109956579Y-68678013D01*
X109959482Y-68678269D01*
X109962446Y-68678453D01*
X109965470Y-68678563D01*
X109968549Y-68678600D01*
X109975703Y-68678453D01*
X109982602Y-68678013D01*
X109989259Y-68677280D01*
X109995689Y-68676256D01*
X110001905Y-68674941D01*
X110007920Y-68673336D01*
X110013746Y-68671441D01*
X110019399Y-68669258D01*
X110024891Y-68666787D01*
X110030235Y-68664029D01*
X110035445Y-68660984D01*
X110040534Y-68657654D01*
X110045516Y-68654039D01*
X110050403Y-68650140D01*
X110055210Y-68645957D01*
X110059950Y-68641492D01*
X110100510Y-68681457D01*
X110100471Y-68681457D01*
X110093433Y-68687783D01*
X110086252Y-68693696D01*
X110078933Y-68699195D01*
X110071479Y-68704281D01*
X110063895Y-68708956D01*
X110056185Y-68713220D01*
X110048353Y-68717075D01*
X110040404Y-68720520D01*
X110032341Y-68723556D01*
X110024168Y-68726185D01*
X110015891Y-68728408D01*
X110007513Y-68730224D01*
X109999038Y-68731636D01*
X109990470Y-68732643D01*
X109981814Y-68733247D01*
X109973074Y-68733448D01*
X109960621Y-68733068D01*
X109948570Y-68731939D01*
X109936978Y-68730072D01*
X109925898Y-68727479D01*
X109915386Y-68724174D01*
X109905498Y-68720168D01*
X109896289Y-68715475D01*
X109891957Y-68712874D01*
X109887815Y-68710106D01*
X109883870Y-68707173D01*
X109880130Y-68704075D01*
X109876601Y-68700815D01*
X109873291Y-68697394D01*
X109870205Y-68693813D01*
X109867351Y-68690074D01*
X109864737Y-68686180D01*
X109862368Y-68682130D01*
X109860252Y-68677927D01*
X109858395Y-68673573D01*
X109856806Y-68669068D01*
X109855490Y-68664415D01*
X109854454Y-68659615D01*
X109853705Y-68654670D01*
X109853251Y-68649581D01*
X109853098Y-68644349D01*
X109853382Y-68635799D01*
X109854246Y-68627508D01*
X109855706Y-68619510D01*
X109856666Y-68615631D01*
X109857781Y-68611839D01*
X109859055Y-68608136D01*
X109860489Y-68604528D01*
X109862086Y-68601019D01*
X109863847Y-68597612D01*
X109865776Y-68594312D01*
X109867873Y-68591123D01*
X109870142Y-68588050D01*
X109872585Y-68585096D01*
X109875203Y-68582265D01*
X109878000Y-68579563D01*
X109880976Y-68576993D01*
X109884135Y-68574559D01*
X109887479Y-68572265D01*
X109891009Y-68570117D01*
X109894729Y-68568117D01*
X109898640Y-68566270D01*
X109902744Y-68564581D01*
X109907044Y-68563053D01*
X109911542Y-68561691D01*
X109916240Y-68560499D01*
X109921140Y-68559481D01*
X109926245Y-68558641D01*
X109931557Y-68557983D01*
X109937077Y-68557513D01*
X109985059Y-68554100D01*
X109990289Y-68553550D01*
X109995067Y-68552775D01*
X109999407Y-68551789D01*
X110003327Y-68550607D01*
X110006841Y-68549245D01*
X110008451Y-68548501D01*
X110009966Y-68547718D01*
X110011388Y-68546897D01*
X110012718Y-68546040D01*
X110013959Y-68545150D01*
X110015113Y-68544228D01*
X110016181Y-68543275D01*
X110017166Y-68542295D01*
X110018894Y-68540257D01*
X110020312Y-68538130D01*
X110021437Y-68535928D01*
X110022284Y-68533666D01*
X110022869Y-68531360D01*
X110023208Y-68529025D01*
X110023318Y-68526676D01*
X110023281Y-68524819D01*
X110023168Y-68522995D01*
X110022977Y-68521203D01*
X110022705Y-68519447D01*
X110022351Y-68517728D01*
X110021912Y-68516047D01*
X110021387Y-68514407D01*
X110020773Y-68512809D01*
X110020067Y-68511256D01*
X110019268Y-68509748D01*
X110018373Y-68508288D01*
X110017381Y-68506878D01*
X110016288Y-68505519D01*
X110015094Y-68504213D01*
X110013795Y-68502961D01*
X110012389Y-68501767D01*
X110010875Y-68500631D01*
X110009250Y-68499555D01*
X110007512Y-68498542D01*
X110005658Y-68497592D01*
X110003687Y-68496708D01*
X110001597Y-68495891D01*
X109999384Y-68495144D01*
X109997048Y-68494468D01*
X109994585Y-68493864D01*
X109991994Y-68493335D01*
X109989273Y-68492883D01*
X109986418Y-68492509D01*
X109983429Y-68492215D01*
X109980303Y-68492002D01*
X109977037Y-68491873D01*
X109973629Y-68491830D01*
X109967827Y-68491956D01*
X109962202Y-68492329D01*
X109956742Y-68492939D01*
X109951436Y-68493779D01*
X109946274Y-68494839D01*
X109941246Y-68496112D01*
X109936340Y-68497589D01*
X109931546Y-68499262D01*
X109926852Y-68501121D01*
X109922249Y-68503159D01*
X109917725Y-68505367D01*
X109913270Y-68507736D01*
X109908873Y-68510259D01*
X109904523Y-68512926D01*
X109900209Y-68515729D01*
X109895921Y-68518659D01*
X109859964Y-68476431D01*
X109865391Y-68472032D01*
X109870968Y-68467843D01*
X109876709Y-68463875D01*
X109882631Y-68460138D01*
X109888751Y-68456642D01*
X109895083Y-68453398D01*
X109901645Y-68450414D01*
X109908453Y-68447703D01*
X109915521Y-68445272D01*
X109922868Y-68443133D01*
X109930507Y-68441295D01*
X109938456Y-68439769D01*
X109946731Y-68438565D01*
X109955347Y-68437692D01*
X109964321Y-68437161D01*
X109973669Y-68436982D01*
X109984954Y-68437337D01*
G37*
G36*
X104297926Y-70024464D02*
G01*
X104105655Y-69905684D01*
X103875066Y-69894701D01*
X104022761Y-69788693D01*
X104073588Y-69637116D01*
X103996261Y-69516004D01*
X103134988Y-69644992D01*
X103151356Y-69908564D01*
X103576712Y-70161846D01*
X103025768Y-69970095D01*
X103044874Y-69562159D01*
X104100638Y-69417555D01*
X104297926Y-70024464D01*
G37*
G36*
X101985521Y-65742448D02*
G01*
X103694866Y-67327443D01*
X102650835Y-68143618D01*
X102116935Y-68943400D01*
X102008482Y-70253848D01*
X102648658Y-71714723D01*
X103418766Y-72679471D01*
X103749209Y-74321498D01*
X103034807Y-72923524D01*
X102250000Y-72096854D01*
X101571757Y-70573935D01*
X101707479Y-69095073D01*
X102179836Y-68084938D01*
X103442700Y-67326128D01*
X101997296Y-66190777D01*
X101548327Y-68808640D01*
X101671568Y-65776101D01*
X101551500Y-65063418D01*
X101985521Y-65742448D01*
G37*
G36*
X110360238Y-68437076D02*
G01*
X110365855Y-68437478D01*
X110371356Y-68438148D01*
X110376735Y-68439086D01*
X110381987Y-68440291D01*
X110387107Y-68441765D01*
X110392090Y-68443506D01*
X110396931Y-68445515D01*
X110401625Y-68447792D01*
X110406166Y-68450337D01*
X110410549Y-68453150D01*
X110414769Y-68456231D01*
X110418821Y-68459579D01*
X110422700Y-68463196D01*
X110426400Y-68467080D01*
X110429917Y-68471233D01*
X110431067Y-68471233D01*
X110431067Y-68440395D01*
X110489329Y-68440395D01*
X110489329Y-68729995D01*
X110431107Y-68729995D01*
X110431107Y-68557513D01*
X110431036Y-68553864D01*
X110430823Y-68550313D01*
X110430473Y-68546862D01*
X110429987Y-68543511D01*
X110429369Y-68540263D01*
X110428622Y-68537117D01*
X110427748Y-68534076D01*
X110426751Y-68531141D01*
X110425633Y-68528312D01*
X110424398Y-68525590D01*
X110423048Y-68522977D01*
X110421587Y-68520474D01*
X110420016Y-68518083D01*
X110418340Y-68515803D01*
X110416561Y-68513637D01*
X110414681Y-68511585D01*
X110412705Y-68509648D01*
X110410635Y-68507829D01*
X110408473Y-68506127D01*
X110406223Y-68504544D01*
X110403888Y-68503082D01*
X110401470Y-68501740D01*
X110398972Y-68500521D01*
X110396399Y-68499426D01*
X110393751Y-68498455D01*
X110391033Y-68497609D01*
X110388247Y-68496891D01*
X110385396Y-68496301D01*
X110382483Y-68495840D01*
X110379511Y-68495509D01*
X110376483Y-68495310D01*
X110373402Y-68495243D01*
X110370322Y-68495310D01*
X110367299Y-68495509D01*
X110364334Y-68495840D01*
X110361431Y-68496301D01*
X110358593Y-68496891D01*
X110355822Y-68497609D01*
X110353120Y-68498455D01*
X110350491Y-68499426D01*
X110347938Y-68500521D01*
X110345462Y-68501740D01*
X110343067Y-68503082D01*
X110340756Y-68504544D01*
X110338531Y-68506127D01*
X110336394Y-68507829D01*
X110334350Y-68509648D01*
X110332399Y-68511585D01*
X110330546Y-68513637D01*
X110328793Y-68515803D01*
X110327142Y-68518083D01*
X110325596Y-68520474D01*
X110324159Y-68522977D01*
X110322832Y-68525590D01*
X110321618Y-68528312D01*
X110320521Y-68531141D01*
X110319543Y-68534076D01*
X110318686Y-68537117D01*
X110317953Y-68540263D01*
X110317348Y-68543511D01*
X110316872Y-68546862D01*
X110316529Y-68550313D01*
X110316321Y-68553864D01*
X110316251Y-68557513D01*
X110316251Y-68729995D01*
X110257990Y-68729995D01*
X110257990Y-68537511D01*
X110258139Y-68531440D01*
X110258579Y-68525551D01*
X110259298Y-68519844D01*
X110260287Y-68514320D01*
X110261535Y-68508980D01*
X110263031Y-68503825D01*
X110264765Y-68498854D01*
X110266726Y-68494070D01*
X110268904Y-68489473D01*
X110271288Y-68485063D01*
X110273867Y-68480841D01*
X110276632Y-68476808D01*
X110279571Y-68472965D01*
X110282673Y-68469312D01*
X110285930Y-68465851D01*
X110289329Y-68462581D01*
X110292860Y-68459503D01*
X110296512Y-68456619D01*
X110300276Y-68453929D01*
X110304141Y-68451434D01*
X110308095Y-68449134D01*
X110312129Y-68447030D01*
X110316231Y-68445123D01*
X110320392Y-68443414D01*
X110328846Y-68440591D01*
X110337407Y-68438568D01*
X110345990Y-68437350D01*
X110350263Y-68437044D01*
X110354510Y-68436942D01*
X110360238Y-68437076D01*
G37*
G36*
X110282488Y-69066603D02*
G01*
X110281752Y-69086656D01*
X110281169Y-69095296D01*
X110280428Y-69103114D01*
X110279520Y-69110188D01*
X110278434Y-69116596D01*
X110277161Y-69122414D01*
X110275691Y-69127721D01*
X110274013Y-69132593D01*
X110272117Y-69137108D01*
X110269994Y-69141343D01*
X110267633Y-69145375D01*
X110265024Y-69149283D01*
X110262157Y-69153143D01*
X110258947Y-69157144D01*
X110255521Y-69160996D01*
X110251878Y-69164684D01*
X110248018Y-69168193D01*
X110243940Y-69171507D01*
X110239644Y-69174613D01*
X110235128Y-69177494D01*
X110230393Y-69180136D01*
X110225436Y-69182523D01*
X110222874Y-69183616D01*
X110220257Y-69184641D01*
X110217585Y-69185594D01*
X110214856Y-69186474D01*
X110212072Y-69187279D01*
X110209232Y-69188008D01*
X110206336Y-69188658D01*
X110203384Y-69189227D01*
X110200376Y-69189714D01*
X110197312Y-69190117D01*
X110194191Y-69190433D01*
X110191013Y-69190661D01*
X110187780Y-69190800D01*
X110184489Y-69190846D01*
X110178951Y-69190687D01*
X110173489Y-69190217D01*
X110168111Y-69189447D01*
X110162826Y-69188389D01*
X110157642Y-69187052D01*
X110152567Y-69185449D01*
X110147609Y-69183589D01*
X110142777Y-69181485D01*
X110138080Y-69179147D01*
X110133524Y-69176585D01*
X110129119Y-69173812D01*
X110124872Y-69170838D01*
X110120793Y-69167674D01*
X110116888Y-69164331D01*
X110113167Y-69160820D01*
X110109638Y-69157152D01*
X110109638Y-69187433D01*
X110109638Y-69187473D01*
X110051377Y-69187473D01*
X110051377Y-69042415D01*
X110109599Y-69042415D01*
X110109828Y-69058267D01*
X110110220Y-69066229D01*
X110110894Y-69074107D01*
X110111918Y-69081821D01*
X110113366Y-69089288D01*
X110115308Y-69096429D01*
X110117814Y-69103162D01*
X110119302Y-69106350D01*
X110120957Y-69109406D01*
X110122789Y-69112319D01*
X110124807Y-69115080D01*
X110127020Y-69117678D01*
X110129436Y-69120103D01*
X110132065Y-69122346D01*
X110134914Y-69124395D01*
X110137995Y-69126241D01*
X110141314Y-69127874D01*
X110144881Y-69129283D01*
X110148705Y-69130459D01*
X110152795Y-69131391D01*
X110157160Y-69132070D01*
X110161808Y-69132484D01*
X110166749Y-69132624D01*
X110171691Y-69132494D01*
X110176344Y-69132107D01*
X110180716Y-69131472D01*
X110184816Y-69130597D01*
X110188653Y-69129492D01*
X110192235Y-69128163D01*
X110195571Y-69126619D01*
X110198670Y-69124869D01*
X110201540Y-69122921D01*
X110204190Y-69120783D01*
X110206630Y-69118463D01*
X110208866Y-69115969D01*
X110210909Y-69113311D01*
X110212767Y-69110495D01*
X110214448Y-69107531D01*
X110215961Y-69104427D01*
X110217316Y-69101190D01*
X110218520Y-69097830D01*
X110219582Y-69094354D01*
X110220511Y-69090771D01*
X110221316Y-69087088D01*
X110222006Y-69083315D01*
X110223073Y-69075530D01*
X110223782Y-69067482D01*
X110224202Y-69059236D01*
X110224403Y-69050858D01*
X110224454Y-69042415D01*
X110224225Y-69025615D01*
X110223829Y-69017392D01*
X110223151Y-69009374D01*
X110222118Y-69001625D01*
X110220658Y-68994210D01*
X110218699Y-68987194D01*
X110217510Y-68983856D01*
X110216170Y-68980642D01*
X110214668Y-68977559D01*
X110212997Y-68974617D01*
X110211148Y-68971824D01*
X110209110Y-68969186D01*
X110206876Y-68966713D01*
X110204437Y-68964413D01*
X110201782Y-68962293D01*
X110198904Y-68960362D01*
X110195794Y-68958628D01*
X110192441Y-68957099D01*
X110188838Y-68955783D01*
X110184976Y-68954688D01*
X110180844Y-68953823D01*
X110176435Y-68953194D01*
X110171740Y-68952811D01*
X110166749Y-68952682D01*
X110161808Y-68952821D01*
X110157160Y-68953231D01*
X110152795Y-68953903D01*
X110148705Y-68954827D01*
X110144881Y-68955992D01*
X110141314Y-68957388D01*
X110137995Y-68959007D01*
X110134914Y-68960837D01*
X110132065Y-68962869D01*
X110129436Y-68965092D01*
X110127020Y-68967498D01*
X110124807Y-68970076D01*
X110122789Y-68972815D01*
X110120957Y-68975707D01*
X110119302Y-68978741D01*
X110117814Y-68981906D01*
X110116486Y-68985195D01*
X110115308Y-68988595D01*
X110114271Y-68992098D01*
X110113366Y-68995693D01*
X110112585Y-68999370D01*
X110111918Y-69003120D01*
X110110894Y-69010797D01*
X110110220Y-69018645D01*
X110109828Y-69026584D01*
X110109644Y-69034533D01*
X110109599Y-69042415D01*
X110051377Y-69042415D01*
X110051377Y-68780716D01*
X110109638Y-68780716D01*
X110109638Y-68928671D01*
X110113730Y-68924898D01*
X110117868Y-68921295D01*
X110122060Y-68917872D01*
X110126312Y-68914640D01*
X110130631Y-68911608D01*
X110135024Y-68908787D01*
X110139497Y-68906186D01*
X110144057Y-68903816D01*
X110148712Y-68901688D01*
X110153467Y-68899810D01*
X110158329Y-68898193D01*
X110163306Y-68896848D01*
X110168403Y-68895783D01*
X110173629Y-68895011D01*
X110178988Y-68894540D01*
X110184489Y-68894381D01*
X110191013Y-68894565D01*
X110197312Y-68895109D01*
X110203384Y-68895996D01*
X110209232Y-68897213D01*
X110214856Y-68898745D01*
X110220257Y-68900576D01*
X110225436Y-68902691D01*
X110230393Y-68905076D01*
X110235128Y-68907717D01*
X110239644Y-68910597D01*
X110243940Y-68913702D01*
X110248018Y-68917017D01*
X110251878Y-68920528D01*
X110255521Y-68924219D01*
X110258947Y-68928076D01*
X110262157Y-68932084D01*
X110265024Y-68935924D01*
X110267633Y-68939805D01*
X110269994Y-68943803D01*
X110272117Y-68947999D01*
X110273093Y-68950195D01*
X110274013Y-68952470D01*
X110274878Y-68954834D01*
X110275691Y-68957295D01*
X110276451Y-68959865D01*
X110277161Y-68962554D01*
X110278434Y-68968323D01*
X110279520Y-68974683D01*
X110280428Y-68981712D01*
X110281169Y-68989488D01*
X110281752Y-68998091D01*
X110282189Y-69007598D01*
X110282488Y-69018089D01*
X110282660Y-69029642D01*
X110282715Y-69042336D01*
X110282715Y-69042415D01*
X110282488Y-69066603D01*
G37*
G36*
X107060401Y-69449380D02*
G01*
X106566433Y-69759710D01*
X106924219Y-69417555D01*
X106881110Y-69157018D01*
X106043629Y-69222796D01*
X105981812Y-69372829D01*
X106061604Y-69536024D01*
X106229297Y-69606241D01*
X106007034Y-69668614D01*
X105846268Y-69827457D01*
X105919848Y-69150239D01*
X106950372Y-69056099D01*
X107060401Y-69449380D01*
G37*
G36*
X110350237Y-68894554D02*
G01*
X110355854Y-68894956D01*
X110361354Y-68895626D01*
X110366733Y-68896563D01*
X110371986Y-68897769D01*
X110377106Y-68899242D01*
X110382089Y-68900983D01*
X110386930Y-68902993D01*
X110391624Y-68905270D01*
X110396164Y-68907815D01*
X110400548Y-68910628D01*
X110404768Y-68913708D01*
X110408820Y-68917057D01*
X110412698Y-68920673D01*
X110416399Y-68924558D01*
X110419915Y-68928710D01*
X110421066Y-68928710D01*
X110421066Y-68897873D01*
X110479327Y-68897873D01*
X110479327Y-69187473D01*
X110479288Y-69187473D01*
X110421027Y-69187473D01*
X110421027Y-69013245D01*
X110420945Y-69009356D01*
X110420705Y-69005605D01*
X110420310Y-69001993D01*
X110419767Y-68998518D01*
X110419079Y-68995179D01*
X110418253Y-68991975D01*
X110417292Y-68988904D01*
X110416203Y-68985967D01*
X110414989Y-68983161D01*
X110413657Y-68980486D01*
X110412211Y-68977941D01*
X110410656Y-68975525D01*
X110408998Y-68973236D01*
X110407241Y-68971075D01*
X110405390Y-68969039D01*
X110403450Y-68967128D01*
X110401427Y-68965340D01*
X110399325Y-68963675D01*
X110397150Y-68962132D01*
X110394906Y-68960710D01*
X110392599Y-68959407D01*
X110390233Y-68958223D01*
X110387814Y-68957156D01*
X110385347Y-68956206D01*
X110380287Y-68954652D01*
X110375095Y-68953552D01*
X110369810Y-68952898D01*
X110364472Y-68952681D01*
X110361747Y-68952729D01*
X110359128Y-68952874D01*
X110356603Y-68953119D01*
X110354158Y-68953468D01*
X110351779Y-68953925D01*
X110349454Y-68954492D01*
X110347169Y-68955173D01*
X110344911Y-68955971D01*
X110342666Y-68956889D01*
X110340422Y-68957931D01*
X110338164Y-68959100D01*
X110335880Y-68960400D01*
X110333556Y-68961833D01*
X110331179Y-68963404D01*
X110328736Y-68965114D01*
X110326213Y-68966969D01*
X110283946Y-68916685D01*
X110287285Y-68914178D01*
X110290668Y-68911797D01*
X110294098Y-68909546D01*
X110297578Y-68907430D01*
X110301112Y-68905454D01*
X110304703Y-68903623D01*
X110308354Y-68901943D01*
X110312069Y-68900418D01*
X110315852Y-68899053D01*
X110319706Y-68897855D01*
X110323634Y-68896826D01*
X110327640Y-68895973D01*
X110331727Y-68895301D01*
X110335898Y-68894815D01*
X110340158Y-68894520D01*
X110344509Y-68894420D01*
X110350237Y-68894554D01*
G37*
G36*
X105721569Y-71249866D02*
G01*
X105595671Y-71420496D01*
X105588622Y-71408551D01*
X105580253Y-71395390D01*
X105569046Y-71379010D01*
X105555297Y-71360591D01*
X105539299Y-71341315D01*
X105521347Y-71322361D01*
X105511730Y-71313374D01*
X105501735Y-71304910D01*
X105491399Y-71297117D01*
X105480759Y-71290142D01*
X105469850Y-71284133D01*
X105458711Y-71279238D01*
X105447378Y-71275603D01*
X105435887Y-71273377D01*
X105424276Y-71272707D01*
X105412582Y-71273740D01*
X105400840Y-71276625D01*
X105389089Y-71281508D01*
X105377364Y-71288538D01*
X105365703Y-71297861D01*
X105354142Y-71309625D01*
X105342718Y-71323979D01*
X105331469Y-71341068D01*
X105320430Y-71361042D01*
X105310659Y-71382039D01*
X105303106Y-71402111D01*
X105297645Y-71421276D01*
X105294152Y-71439551D01*
X105292502Y-71456951D01*
X105292569Y-71473495D01*
X105294228Y-71489199D01*
X105297354Y-71504080D01*
X105301823Y-71518155D01*
X105307508Y-71531441D01*
X105314285Y-71543955D01*
X105322029Y-71555713D01*
X105330615Y-71566733D01*
X105339917Y-71577032D01*
X105349811Y-71586625D01*
X105360171Y-71595532D01*
X105370872Y-71603767D01*
X105381790Y-71611349D01*
X105403773Y-71624618D01*
X105425120Y-71635474D01*
X105444830Y-71644054D01*
X105461902Y-71650491D01*
X105475335Y-71654922D01*
X105487283Y-71658304D01*
X105196990Y-71942748D01*
X104880271Y-71722109D01*
X104886404Y-71714876D01*
X104901271Y-71694397D01*
X104910323Y-71679760D01*
X104919570Y-71662498D01*
X104928351Y-71642837D01*
X104936002Y-71621008D01*
X104941861Y-71597238D01*
X104943911Y-71584696D01*
X104945265Y-71571755D01*
X104945839Y-71558443D01*
X104945552Y-71544789D01*
X104944319Y-71530821D01*
X104942059Y-71516568D01*
X104938688Y-71502058D01*
X104934123Y-71487320D01*
X104928282Y-71472382D01*
X104921083Y-71457273D01*
X104912441Y-71442022D01*
X104902275Y-71426657D01*
X104890501Y-71411207D01*
X104877036Y-71395700D01*
X104862913Y-71381516D01*
X104849217Y-71369920D01*
X104835951Y-71360774D01*
X104823115Y-71353937D01*
X104810711Y-71349268D01*
X104798741Y-71346628D01*
X104787205Y-71345875D01*
X104776105Y-71346870D01*
X104765443Y-71349472D01*
X104755219Y-71353542D01*
X104745435Y-71358938D01*
X104736092Y-71365521D01*
X104727192Y-71373150D01*
X104718736Y-71381685D01*
X104710726Y-71390986D01*
X104703162Y-71400912D01*
X104689380Y-71422080D01*
X104677400Y-71444067D01*
X104667234Y-71465750D01*
X104658893Y-71486007D01*
X104647726Y-71517754D01*
X104643984Y-71530332D01*
X104496938Y-71384541D01*
X104751830Y-71080386D01*
X105481730Y-71072471D01*
X105721569Y-71249866D01*
G37*
D11*
%TO.C,PR1*%
X96750000Y-70500000D03*
%TD*%
%TO.C,PC2*%
X110000000Y-73250000D03*
%TD*%
D12*
%TO.C,SW1*%
X110500000Y-65000000D03*
D13*
X110000000Y-61250000D03*
D14*
X105000000Y-65000000D03*
D13*
X105000000Y-59050000D03*
D15*
X99780000Y-69200000D03*
D12*
X99500000Y-65000000D03*
D16*
X101775000Y-59050000D03*
X113225000Y-61250000D03*
%TD*%
D11*
%TO.C,PC1*%
X110000000Y-56750000D03*
%TD*%
%TO.C,PR2*%
X113250000Y-70500000D03*
%TD*%
D17*
%TO.C,D1*%
X96750000Y-67800000D03*
X96750000Y-64500000D03*
%TD*%
M02*
