%TF.GenerationSoftware,KiCad,Pcbnew,9.0.5*%
%TF.CreationDate,2025-10-08T11:55:14+08:00*%
%TF.ProjectId,snowshoe-choc,736e6f77-7368-46f6-952d-63686f632e6b,rev?*%
%TF.SameCoordinates,Original*%
%TF.FileFunction,AssemblyDrawing,Bot*%
%FSLAX46Y46*%
G04 Gerber Fmt 4.6, Leading zero omitted, Abs format (unit mm)*
G04 Created by KiCad (PCBNEW 9.0.5) date 2025-10-08 11:55:14*
%MOMM*%
%LPD*%
G01*
G04 APERTURE LIST*
%ADD10C,0.150000*%
%ADD11C,0.120000*%
%ADD12C,0.100000*%
G04 APERTURE END LIST*
D10*
X109333332Y-60407200D02*
X109190475Y-60454819D01*
X109190475Y-60454819D02*
X108952380Y-60454819D01*
X108952380Y-60454819D02*
X108857142Y-60407200D01*
X108857142Y-60407200D02*
X108809523Y-60359580D01*
X108809523Y-60359580D02*
X108761904Y-60264342D01*
X108761904Y-60264342D02*
X108761904Y-60169104D01*
X108761904Y-60169104D02*
X108809523Y-60073866D01*
X108809523Y-60073866D02*
X108857142Y-60026247D01*
X108857142Y-60026247D02*
X108952380Y-59978628D01*
X108952380Y-59978628D02*
X109142856Y-59931009D01*
X109142856Y-59931009D02*
X109238094Y-59883390D01*
X109238094Y-59883390D02*
X109285713Y-59835771D01*
X109285713Y-59835771D02*
X109333332Y-59740533D01*
X109333332Y-59740533D02*
X109333332Y-59645295D01*
X109333332Y-59645295D02*
X109285713Y-59550057D01*
X109285713Y-59550057D02*
X109238094Y-59502438D01*
X109238094Y-59502438D02*
X109142856Y-59454819D01*
X109142856Y-59454819D02*
X108904761Y-59454819D01*
X108904761Y-59454819D02*
X108761904Y-59502438D01*
X108428570Y-59454819D02*
X108190475Y-60454819D01*
X108190475Y-60454819D02*
X107999999Y-59740533D01*
X107999999Y-59740533D02*
X107809523Y-60454819D01*
X107809523Y-60454819D02*
X107571428Y-59454819D01*
X106666666Y-60454819D02*
X107238094Y-60454819D01*
X106952380Y-60454819D02*
X106952380Y-59454819D01*
X106952380Y-59454819D02*
X107047618Y-59597676D01*
X107047618Y-59597676D02*
X107142856Y-59692914D01*
X107142856Y-59692914D02*
X107238094Y-59740533D01*
X109047618Y-56407200D02*
X108904761Y-56454819D01*
X108904761Y-56454819D02*
X108666666Y-56454819D01*
X108666666Y-56454819D02*
X108571428Y-56407200D01*
X108571428Y-56407200D02*
X108523809Y-56359580D01*
X108523809Y-56359580D02*
X108476190Y-56264342D01*
X108476190Y-56264342D02*
X108476190Y-56169104D01*
X108476190Y-56169104D02*
X108523809Y-56073866D01*
X108523809Y-56073866D02*
X108571428Y-56026247D01*
X108571428Y-56026247D02*
X108666666Y-55978628D01*
X108666666Y-55978628D02*
X108857142Y-55931009D01*
X108857142Y-55931009D02*
X108952380Y-55883390D01*
X108952380Y-55883390D02*
X108999999Y-55835771D01*
X108999999Y-55835771D02*
X109047618Y-55740533D01*
X109047618Y-55740533D02*
X109047618Y-55645295D01*
X109047618Y-55645295D02*
X108999999Y-55550057D01*
X108999999Y-55550057D02*
X108952380Y-55502438D01*
X108952380Y-55502438D02*
X108857142Y-55454819D01*
X108857142Y-55454819D02*
X108619047Y-55454819D01*
X108619047Y-55454819D02*
X108476190Y-55502438D01*
X108142856Y-55454819D02*
X107904761Y-56454819D01*
X107904761Y-56454819D02*
X107714285Y-55740533D01*
X107714285Y-55740533D02*
X107523809Y-56454819D01*
X107523809Y-56454819D02*
X107285714Y-55454819D01*
X107142857Y-56550057D02*
X106380952Y-56550057D01*
X106142856Y-56454819D02*
X106142856Y-55454819D01*
X106142856Y-55454819D02*
X105761904Y-55454819D01*
X105761904Y-55454819D02*
X105666666Y-55502438D01*
X105666666Y-55502438D02*
X105619047Y-55550057D01*
X105619047Y-55550057D02*
X105571428Y-55645295D01*
X105571428Y-55645295D02*
X105571428Y-55788152D01*
X105571428Y-55788152D02*
X105619047Y-55883390D01*
X105619047Y-55883390D02*
X105666666Y-55931009D01*
X105666666Y-55931009D02*
X105761904Y-55978628D01*
X105761904Y-55978628D02*
X106142856Y-55978628D01*
X104714285Y-55788152D02*
X104714285Y-56454819D01*
X105142856Y-55788152D02*
X105142856Y-56311961D01*
X105142856Y-56311961D02*
X105095237Y-56407200D01*
X105095237Y-56407200D02*
X104999999Y-56454819D01*
X104999999Y-56454819D02*
X104857142Y-56454819D01*
X104857142Y-56454819D02*
X104761904Y-56407200D01*
X104761904Y-56407200D02*
X104714285Y-56359580D01*
X104285713Y-56407200D02*
X104190475Y-56454819D01*
X104190475Y-56454819D02*
X103999999Y-56454819D01*
X103999999Y-56454819D02*
X103904761Y-56407200D01*
X103904761Y-56407200D02*
X103857142Y-56311961D01*
X103857142Y-56311961D02*
X103857142Y-56264342D01*
X103857142Y-56264342D02*
X103904761Y-56169104D01*
X103904761Y-56169104D02*
X103999999Y-56121485D01*
X103999999Y-56121485D02*
X104142856Y-56121485D01*
X104142856Y-56121485D02*
X104238094Y-56073866D01*
X104238094Y-56073866D02*
X104285713Y-55978628D01*
X104285713Y-55978628D02*
X104285713Y-55931009D01*
X104285713Y-55931009D02*
X104238094Y-55835771D01*
X104238094Y-55835771D02*
X104142856Y-55788152D01*
X104142856Y-55788152D02*
X103999999Y-55788152D01*
X103999999Y-55788152D02*
X103904761Y-55835771D01*
X103428570Y-56454819D02*
X103428570Y-55454819D01*
X102999999Y-56454819D02*
X102999999Y-55931009D01*
X102999999Y-55931009D02*
X103047618Y-55835771D01*
X103047618Y-55835771D02*
X103142856Y-55788152D01*
X103142856Y-55788152D02*
X103285713Y-55788152D01*
X103285713Y-55788152D02*
X103380951Y-55835771D01*
X103380951Y-55835771D02*
X103428570Y-55883390D01*
X100704819Y-66285714D02*
X100704819Y-65714286D01*
X100704819Y-66000000D02*
X99704819Y-66000000D01*
X99704819Y-66000000D02*
X99847676Y-65904762D01*
X99847676Y-65904762D02*
X99942914Y-65809524D01*
X99942914Y-65809524D02*
X99990533Y-65714286D01*
X100704819Y-66714286D02*
X99704819Y-66714286D01*
X99704819Y-66714286D02*
X100704819Y-67285714D01*
X100704819Y-67285714D02*
X99704819Y-67285714D01*
X100038152Y-68190476D02*
X100704819Y-68190476D01*
X99657200Y-67952381D02*
X100371485Y-67714286D01*
X100371485Y-67714286D02*
X100371485Y-68333333D01*
X100704819Y-69238095D02*
X100704819Y-68666667D01*
X100704819Y-68952381D02*
X99704819Y-68952381D01*
X99704819Y-68952381D02*
X99847676Y-68857143D01*
X99847676Y-68857143D02*
X99942914Y-68761905D01*
X99942914Y-68761905D02*
X99990533Y-68666667D01*
X100038152Y-70095238D02*
X100704819Y-70095238D01*
X99657200Y-69857143D02*
X100371485Y-69619048D01*
X100371485Y-69619048D02*
X100371485Y-70238095D01*
X100133390Y-70761905D02*
X100085771Y-70666667D01*
X100085771Y-70666667D02*
X100038152Y-70619048D01*
X100038152Y-70619048D02*
X99942914Y-70571429D01*
X99942914Y-70571429D02*
X99895295Y-70571429D01*
X99895295Y-70571429D02*
X99800057Y-70619048D01*
X99800057Y-70619048D02*
X99752438Y-70666667D01*
X99752438Y-70666667D02*
X99704819Y-70761905D01*
X99704819Y-70761905D02*
X99704819Y-70952381D01*
X99704819Y-70952381D02*
X99752438Y-71047619D01*
X99752438Y-71047619D02*
X99800057Y-71095238D01*
X99800057Y-71095238D02*
X99895295Y-71142857D01*
X99895295Y-71142857D02*
X99942914Y-71142857D01*
X99942914Y-71142857D02*
X100038152Y-71095238D01*
X100038152Y-71095238D02*
X100085771Y-71047619D01*
X100085771Y-71047619D02*
X100133390Y-70952381D01*
X100133390Y-70952381D02*
X100133390Y-70761905D01*
X100133390Y-70761905D02*
X100181009Y-70666667D01*
X100181009Y-70666667D02*
X100228628Y-70619048D01*
X100228628Y-70619048D02*
X100323866Y-70571429D01*
X100323866Y-70571429D02*
X100514342Y-70571429D01*
X100514342Y-70571429D02*
X100609580Y-70619048D01*
X100609580Y-70619048D02*
X100657200Y-70666667D01*
X100657200Y-70666667D02*
X100704819Y-70761905D01*
X100704819Y-70761905D02*
X100704819Y-70952381D01*
X100704819Y-70952381D02*
X100657200Y-71047619D01*
X100657200Y-71047619D02*
X100609580Y-71095238D01*
X100609580Y-71095238D02*
X100514342Y-71142857D01*
X100514342Y-71142857D02*
X100323866Y-71142857D01*
X100323866Y-71142857D02*
X100228628Y-71095238D01*
X100228628Y-71095238D02*
X100181009Y-71047619D01*
X100181009Y-71047619D02*
X100133390Y-70952381D01*
X99704819Y-71476191D02*
X100704819Y-71714286D01*
X100704819Y-71714286D02*
X99990533Y-71904762D01*
X99990533Y-71904762D02*
X100704819Y-72095238D01*
X100704819Y-72095238D02*
X99704819Y-72333334D01*
X99004819Y-66061905D02*
X98004819Y-66061905D01*
X98004819Y-66061905D02*
X98004819Y-66300000D01*
X98004819Y-66300000D02*
X98052438Y-66442857D01*
X98052438Y-66442857D02*
X98147676Y-66538095D01*
X98147676Y-66538095D02*
X98242914Y-66585714D01*
X98242914Y-66585714D02*
X98433390Y-66633333D01*
X98433390Y-66633333D02*
X98576247Y-66633333D01*
X98576247Y-66633333D02*
X98766723Y-66585714D01*
X98766723Y-66585714D02*
X98861961Y-66538095D01*
X98861961Y-66538095D02*
X98957200Y-66442857D01*
X98957200Y-66442857D02*
X99004819Y-66300000D01*
X99004819Y-66300000D02*
X99004819Y-66061905D01*
X99004819Y-67585714D02*
X99004819Y-67014286D01*
X99004819Y-67300000D02*
X98004819Y-67300000D01*
X98004819Y-67300000D02*
X98147676Y-67204762D01*
X98147676Y-67204762D02*
X98242914Y-67109524D01*
X98242914Y-67109524D02*
X98290533Y-67014286D01*
D11*
%TO.C,SW1*%
X100500000Y-57750000D02*
X103000000Y-57750000D01*
X100500000Y-60250000D02*
X100500000Y-57750000D01*
D10*
X103000000Y-57300000D02*
X103500000Y-56800000D01*
D11*
X103000000Y-60250000D02*
X100500000Y-60250000D01*
X103000000Y-60750000D02*
X103000000Y-57300000D01*
D10*
X103000000Y-60800000D02*
X103500000Y-61300000D01*
X103500000Y-56800000D02*
X106500000Y-56800000D01*
X103500000Y-61300000D02*
X106000000Y-61300000D01*
X106500000Y-56800000D02*
X107000000Y-57300000D01*
X107000000Y-58300000D02*
X107000000Y-57300000D01*
X107500000Y-62800000D02*
X107500000Y-63500000D01*
X107500000Y-63500000D02*
X112000000Y-63500000D01*
X112000000Y-58800000D02*
X107500000Y-58800000D01*
D11*
X112000000Y-60000000D02*
X114500000Y-60000000D01*
X112000000Y-63500000D02*
X112000000Y-58800000D01*
X114500000Y-60000000D02*
X114500000Y-62500000D01*
X114500000Y-62500000D02*
X112000000Y-62500000D01*
D10*
X106000000Y-61300000D02*
G75*
G02*
X107500000Y-62800000I-1J-1500001D01*
G01*
X107500000Y-58800000D02*
G75*
G02*
X107000000Y-58300000I1J500001D01*
G01*
D12*
%TO.C,D1*%
X95850000Y-64750000D02*
X95850000Y-67550000D01*
X95850000Y-67550000D02*
X97650000Y-67550000D01*
X96350000Y-65900000D02*
X96750000Y-66500000D01*
X96750000Y-65900000D02*
X96750000Y-65400000D01*
X96750000Y-66500000D02*
X96200000Y-66500000D01*
X96750000Y-66500000D02*
X97150000Y-65900000D01*
X96750000Y-66500000D02*
X97300000Y-66500000D01*
X96750000Y-66900000D02*
X96750000Y-66500000D01*
X97150000Y-65900000D02*
X96350000Y-65900000D01*
X97650000Y-64750000D02*
X95850000Y-64750000D01*
X97650000Y-67550000D02*
X97650000Y-64750000D01*
%TD*%
M02*
