%TF.GenerationSoftware,KiCad,Pcbnew,9.0.5*%
%TF.CreationDate,2025-10-08T11:55:14+08:00*%
%TF.ProjectId,snowshoe-choc,736e6f77-7368-46f6-952d-63686f632e6b,rev?*%
%TF.SameCoordinates,Original*%
%TF.FileFunction,Legend,Top*%
%TF.FilePolarity,Positive*%
%FSLAX46Y46*%
G04 Gerber Fmt 4.6, Leading zero omitted, Abs format (unit mm)*
G04 Created by KiCad (PCBNEW 9.0.5) date 2025-10-08 11:55:14*
%MOMM*%
%LPD*%
G01*
G04 APERTURE LIST*
%ADD10C,0.150000*%
%ADD11C,0.120000*%
G04 APERTURE END LIST*
D10*
X97204819Y-69238094D02*
X96204819Y-69238094D01*
X96204819Y-69238094D02*
X96204819Y-68857142D01*
X96204819Y-68857142D02*
X96252438Y-68761904D01*
X96252438Y-68761904D02*
X96300057Y-68714285D01*
X96300057Y-68714285D02*
X96395295Y-68666666D01*
X96395295Y-68666666D02*
X96538152Y-68666666D01*
X96538152Y-68666666D02*
X96633390Y-68714285D01*
X96633390Y-68714285D02*
X96681009Y-68761904D01*
X96681009Y-68761904D02*
X96728628Y-68857142D01*
X96728628Y-68857142D02*
X96728628Y-69238094D01*
X97204819Y-67666666D02*
X96728628Y-67999999D01*
X97204819Y-68238094D02*
X96204819Y-68238094D01*
X96204819Y-68238094D02*
X96204819Y-67857142D01*
X96204819Y-67857142D02*
X96252438Y-67761904D01*
X96252438Y-67761904D02*
X96300057Y-67714285D01*
X96300057Y-67714285D02*
X96395295Y-67666666D01*
X96395295Y-67666666D02*
X96538152Y-67666666D01*
X96538152Y-67666666D02*
X96633390Y-67714285D01*
X96633390Y-67714285D02*
X96681009Y-67761904D01*
X96681009Y-67761904D02*
X96728628Y-67857142D01*
X96728628Y-67857142D02*
X96728628Y-68238094D01*
X97204819Y-66714285D02*
X97204819Y-67285713D01*
X97204819Y-66999999D02*
X96204819Y-66999999D01*
X96204819Y-66999999D02*
X96347676Y-67095237D01*
X96347676Y-67095237D02*
X96442914Y-67190475D01*
X96442914Y-67190475D02*
X96490533Y-67285713D01*
X106261905Y-73704819D02*
X106261905Y-72704819D01*
X106261905Y-72704819D02*
X106642857Y-72704819D01*
X106642857Y-72704819D02*
X106738095Y-72752438D01*
X106738095Y-72752438D02*
X106785714Y-72800057D01*
X106785714Y-72800057D02*
X106833333Y-72895295D01*
X106833333Y-72895295D02*
X106833333Y-73038152D01*
X106833333Y-73038152D02*
X106785714Y-73133390D01*
X106785714Y-73133390D02*
X106738095Y-73181009D01*
X106738095Y-73181009D02*
X106642857Y-73228628D01*
X106642857Y-73228628D02*
X106261905Y-73228628D01*
X107833333Y-73609580D02*
X107785714Y-73657200D01*
X107785714Y-73657200D02*
X107642857Y-73704819D01*
X107642857Y-73704819D02*
X107547619Y-73704819D01*
X107547619Y-73704819D02*
X107404762Y-73657200D01*
X107404762Y-73657200D02*
X107309524Y-73561961D01*
X107309524Y-73561961D02*
X107261905Y-73466723D01*
X107261905Y-73466723D02*
X107214286Y-73276247D01*
X107214286Y-73276247D02*
X107214286Y-73133390D01*
X107214286Y-73133390D02*
X107261905Y-72942914D01*
X107261905Y-72942914D02*
X107309524Y-72847676D01*
X107309524Y-72847676D02*
X107404762Y-72752438D01*
X107404762Y-72752438D02*
X107547619Y-72704819D01*
X107547619Y-72704819D02*
X107642857Y-72704819D01*
X107642857Y-72704819D02*
X107785714Y-72752438D01*
X107785714Y-72752438D02*
X107833333Y-72800057D01*
X108214286Y-72800057D02*
X108261905Y-72752438D01*
X108261905Y-72752438D02*
X108357143Y-72704819D01*
X108357143Y-72704819D02*
X108595238Y-72704819D01*
X108595238Y-72704819D02*
X108690476Y-72752438D01*
X108690476Y-72752438D02*
X108738095Y-72800057D01*
X108738095Y-72800057D02*
X108785714Y-72895295D01*
X108785714Y-72895295D02*
X108785714Y-72990533D01*
X108785714Y-72990533D02*
X108738095Y-73133390D01*
X108738095Y-73133390D02*
X108166667Y-73704819D01*
X108166667Y-73704819D02*
X108785714Y-73704819D01*
X106261905Y-57204819D02*
X106261905Y-56204819D01*
X106261905Y-56204819D02*
X106642857Y-56204819D01*
X106642857Y-56204819D02*
X106738095Y-56252438D01*
X106738095Y-56252438D02*
X106785714Y-56300057D01*
X106785714Y-56300057D02*
X106833333Y-56395295D01*
X106833333Y-56395295D02*
X106833333Y-56538152D01*
X106833333Y-56538152D02*
X106785714Y-56633390D01*
X106785714Y-56633390D02*
X106738095Y-56681009D01*
X106738095Y-56681009D02*
X106642857Y-56728628D01*
X106642857Y-56728628D02*
X106261905Y-56728628D01*
X107833333Y-57109580D02*
X107785714Y-57157200D01*
X107785714Y-57157200D02*
X107642857Y-57204819D01*
X107642857Y-57204819D02*
X107547619Y-57204819D01*
X107547619Y-57204819D02*
X107404762Y-57157200D01*
X107404762Y-57157200D02*
X107309524Y-57061961D01*
X107309524Y-57061961D02*
X107261905Y-56966723D01*
X107261905Y-56966723D02*
X107214286Y-56776247D01*
X107214286Y-56776247D02*
X107214286Y-56633390D01*
X107214286Y-56633390D02*
X107261905Y-56442914D01*
X107261905Y-56442914D02*
X107309524Y-56347676D01*
X107309524Y-56347676D02*
X107404762Y-56252438D01*
X107404762Y-56252438D02*
X107547619Y-56204819D01*
X107547619Y-56204819D02*
X107642857Y-56204819D01*
X107642857Y-56204819D02*
X107785714Y-56252438D01*
X107785714Y-56252438D02*
X107833333Y-56300057D01*
X108785714Y-57204819D02*
X108214286Y-57204819D01*
X108500000Y-57204819D02*
X108500000Y-56204819D01*
X108500000Y-56204819D02*
X108404762Y-56347676D01*
X108404762Y-56347676D02*
X108309524Y-56442914D01*
X108309524Y-56442914D02*
X108214286Y-56490533D01*
X113704819Y-69238094D02*
X112704819Y-69238094D01*
X112704819Y-69238094D02*
X112704819Y-68857142D01*
X112704819Y-68857142D02*
X112752438Y-68761904D01*
X112752438Y-68761904D02*
X112800057Y-68714285D01*
X112800057Y-68714285D02*
X112895295Y-68666666D01*
X112895295Y-68666666D02*
X113038152Y-68666666D01*
X113038152Y-68666666D02*
X113133390Y-68714285D01*
X113133390Y-68714285D02*
X113181009Y-68761904D01*
X113181009Y-68761904D02*
X113228628Y-68857142D01*
X113228628Y-68857142D02*
X113228628Y-69238094D01*
X113704819Y-67666666D02*
X113228628Y-67999999D01*
X113704819Y-68238094D02*
X112704819Y-68238094D01*
X112704819Y-68238094D02*
X112704819Y-67857142D01*
X112704819Y-67857142D02*
X112752438Y-67761904D01*
X112752438Y-67761904D02*
X112800057Y-67714285D01*
X112800057Y-67714285D02*
X112895295Y-67666666D01*
X112895295Y-67666666D02*
X113038152Y-67666666D01*
X113038152Y-67666666D02*
X113133390Y-67714285D01*
X113133390Y-67714285D02*
X113181009Y-67761904D01*
X113181009Y-67761904D02*
X113228628Y-67857142D01*
X113228628Y-67857142D02*
X113228628Y-68238094D01*
X112800057Y-67285713D02*
X112752438Y-67238094D01*
X112752438Y-67238094D02*
X112704819Y-67142856D01*
X112704819Y-67142856D02*
X112704819Y-66904761D01*
X112704819Y-66904761D02*
X112752438Y-66809523D01*
X112752438Y-66809523D02*
X112800057Y-66761904D01*
X112800057Y-66761904D02*
X112895295Y-66714285D01*
X112895295Y-66714285D02*
X112990533Y-66714285D01*
X112990533Y-66714285D02*
X113133390Y-66761904D01*
X113133390Y-66761904D02*
X113704819Y-67333332D01*
X113704819Y-67333332D02*
X113704819Y-66714285D01*
D11*
%TO.C,PR1*%
X95800000Y-69550000D02*
X95800000Y-71450000D01*
X95800000Y-71450000D02*
X97650000Y-71450000D01*
X97650000Y-69550000D02*
X95800000Y-69550000D01*
X97650000Y-69600000D02*
X97650000Y-69550000D01*
X97650000Y-71450000D02*
X97650000Y-69600000D01*
%TO.C,PC2*%
X109050000Y-72300000D02*
X109050000Y-74200000D01*
X109050000Y-74200000D02*
X110900000Y-74200000D01*
X110900000Y-72300000D02*
X109050000Y-72300000D01*
X110900000Y-72350000D02*
X110900000Y-72300000D01*
X110900000Y-74200000D02*
X110900000Y-72350000D01*
D10*
%TO.C,SW1*%
X98000000Y-58000000D02*
X99000000Y-58000000D01*
X98000000Y-59000000D02*
X98000000Y-58000000D01*
X98000000Y-72000000D02*
X98000000Y-71000000D01*
X98000000Y-72000000D02*
X99000000Y-72000000D01*
X99000000Y-58000000D02*
X98000000Y-58000000D01*
X111000000Y-72000000D02*
X112000000Y-72000000D01*
X112000000Y-58000000D02*
X111000000Y-58000000D01*
X112000000Y-58000000D02*
X112000000Y-59000000D01*
X112000000Y-71000000D02*
X112000000Y-72000000D01*
D11*
%TO.C,PC1*%
X109050000Y-55800000D02*
X109050000Y-57700000D01*
X109050000Y-57700000D02*
X110900000Y-57700000D01*
X110900000Y-55800000D02*
X109050000Y-55800000D01*
X110900000Y-55850000D02*
X110900000Y-55800000D01*
X110900000Y-57700000D02*
X110900000Y-55850000D01*
%TO.C,PR2*%
X112300000Y-69550000D02*
X112300000Y-71450000D01*
X112300000Y-71450000D02*
X114150000Y-71450000D01*
X114150000Y-69550000D02*
X112300000Y-69550000D01*
X114150000Y-69600000D02*
X114150000Y-69550000D01*
X114150000Y-71450000D02*
X114150000Y-69600000D01*
%TD*%
M02*
